<svg width="16" height="16" viewBox="0 0 16 16" fill="none" xmlns="http://www.w3.org/2000/svg">
<path d="M13 1.5H4.5C3.96957 1.5 3.46086 1.71071 3.08579 2.08579C2.71071 2.46086 2.5 2.96957 2.5 3.5V14C2.5 14.1326 2.55268 14.2598 2.64645 14.3536C2.74021 14.4473 2.86739 14.5 3 14.5H12C12.1326 14.5 12.2598 14.4473 12.3536 14.3536C12.4473 14.2598 12.5 14.1326 12.5 14C12.5 13.8674 12.4473 13.7402 12.3536 13.6464C12.2598 13.5527 12.1326 13.5 12 13.5H3.5C3.5 13.2348 3.60536 12.9804 3.79289 12.7929C3.98043 12.6054 4.23478 12.5 4.5 12.5H13C13.1326 12.5 13.2598 12.4473 13.3536 12.3536C13.4473 12.2598 13.5 12.1326 13.5 12V2C13.5 1.86739 13.4473 1.74021 13.3536 1.64645C13.2598 1.55268 13.1326 1.5 13 1.5ZM12.5 11.5H4.5C4.14884 11.4995 3.80382 11.592 3.5 11.7681V3.5C3.5 3.23478 3.60536 2.98043 3.79289 2.79289C3.98043 2.60536 4.23478 2.5 4.5 2.5H12.5V11.5Z" fill="#9299A2"/>
</svg>
