<svg width="25" height="25" viewBox="0 0 25 25" fill="none" xmlns="http://www.w3.org/2000/svg">
<path d="M18.0488 11.1172C18.0488 11.3161 17.9698 11.5069 17.8292 11.6475C17.6885 11.7882 17.4977 11.8672 17.2988 11.8672H11.2988C11.0999 11.8672 10.9092 11.7882 10.7685 11.6475C10.6278 11.5069 10.5488 11.3161 10.5488 11.1172C10.5488 10.9183 10.6278 10.7275 10.7685 10.5869C10.9092 10.4462 11.0999 10.3672 11.2988 10.3672H17.2988C17.4977 10.3672 17.6885 10.4462 17.8292 10.5869C17.9698 10.7275 18.0488 10.9183 18.0488 11.1172ZM17.2988 13.3672H11.2988C11.0999 13.3672 10.9092 13.4462 10.7685 13.5869C10.6278 13.7275 10.5488 13.9183 10.5488 14.1172C10.5488 14.3161 10.6278 14.5069 10.7685 14.6475C10.9092 14.7882 11.0999 14.8672 11.2988 14.8672H17.2988C17.4977 14.8672 17.6885 14.7882 17.8292 14.6475C17.9698 14.5069 18.0488 14.3161 18.0488 14.1172C18.0488 13.9183 17.9698 13.7275 17.8292 13.5869C17.6885 13.4462 17.4977 13.3672 17.2988 13.3672ZM21.7988 5.11719V20.1172C21.7988 20.515 21.6408 20.8965 21.3595 21.1778C21.0782 21.4592 20.6967 21.6172 20.2988 21.6172H5.29883C4.901 21.6172 4.51947 21.4592 4.23817 21.1778C3.95686 20.8965 3.79883 20.515 3.79883 20.1172V5.11719C3.79883 4.71936 3.95686 4.33783 4.23817 4.05653C4.51947 3.77522 4.901 3.61719 5.29883 3.61719H20.2988C20.6967 3.61719 21.0782 3.77522 21.3595 4.05653C21.6408 4.33783 21.7988 4.71936 21.7988 5.11719ZM5.29883 20.1172H7.54883V5.11719H5.29883V20.1172ZM20.2988 20.1172V5.11719H9.04883V20.1172H20.2988Z" fill="#9299A2"/>
</svg>
