<svg width="25" height="25" viewBox="0 0 25 25" fill="none" xmlns="http://www.w3.org/2000/svg">
<path d="M21.5996 12.242V21.242C21.5996 21.4409 21.5206 21.6317 21.3799 21.7723C21.2393 21.913 21.0485 21.992 20.8496 21.992H15.5996C15.4007 21.992 15.2099 21.913 15.0693 21.7723C14.9286 21.6317 14.8496 21.4409 14.8496 21.242V16.367C14.8496 16.2675 14.8101 16.1721 14.7398 16.1018C14.6694 16.0315 14.5741 15.992 14.4746 15.992H10.7246C10.6252 15.992 10.5298 16.0315 10.4594 16.1018C10.3891 16.1721 10.3496 16.2675 10.3496 16.367V21.242C10.3496 21.4409 10.2706 21.6317 10.1299 21.7723C9.98929 21.913 9.79852 21.992 9.59961 21.992H4.34961C4.1507 21.992 3.95993 21.913 3.81928 21.7723C3.67863 21.6317 3.59961 21.4409 3.59961 21.242V12.242C3.59979 11.8442 3.75795 11.4628 4.0393 11.1817L11.5393 3.68167C11.8206 3.40058 12.202 3.24268 12.5996 3.24268C12.9973 3.24268 13.3786 3.40058 13.6599 3.68167L21.1599 11.1817C21.4413 11.4628 21.5994 11.8442 21.5996 12.242Z" fill="#1863D3"/>
</svg>
