<svg width="20" height="19" viewBox="0 0 20 19" fill="none" xmlns="http://www.w3.org/2000/svg">
<path d="M18.4492 0.617188H1.94924C1.55142 0.617188 1.16989 0.775223 0.888585 1.05653C0.60728 1.33783 0.449245 1.71936 0.449245 2.11719V17.1172C0.44755 17.4031 0.528376 17.6834 0.682026 17.9245C0.835677 18.1657 1.05563 18.3573 1.3155 18.4766C1.51407 18.5688 1.73031 18.6167 1.94924 18.6172C2.30137 18.6163 2.64182 18.4908 2.91018 18.2628L2.91862 18.2562L5.9805 15.6172H18.4492C18.8471 15.6172 19.2286 15.4592 19.5099 15.1778C19.7912 14.8965 19.9492 14.515 19.9492 14.1172V2.11719C19.9492 1.71936 19.7912 1.33783 19.5099 1.05653C19.2286 0.775223 18.8471 0.617188 18.4492 0.617188ZM18.4492 14.1172H5.69925C5.51916 14.1173 5.34512 14.1822 5.20893 14.3L1.94924 17.1172V2.11719H18.4492V14.1172ZM6.44925 6.61719C6.44925 6.41828 6.52826 6.22751 6.66892 6.08686C6.80957 5.94621 7.00033 5.86719 7.19925 5.86719H13.1992C13.3982 5.86719 13.5889 5.94621 13.7296 6.08686C13.8702 6.22751 13.9492 6.41828 13.9492 6.61719C13.9492 6.8161 13.8702 7.00687 13.7296 7.14752C13.5889 7.28817 13.3982 7.36719 13.1992 7.36719H7.19925C7.00033 7.36719 6.80957 7.28817 6.66892 7.14752C6.52826 7.00687 6.44925 6.8161 6.44925 6.61719ZM6.44925 9.61719C6.44925 9.41827 6.52826 9.22751 6.66892 9.08686C6.80957 8.9462 7.00033 8.86719 7.19925 8.86719H13.1992C13.3982 8.86719 13.5889 8.9462 13.7296 9.08686C13.8702 9.22751 13.9492 9.41827 13.9492 9.61719C13.9492 9.8161 13.8702 10.0069 13.7296 10.1475C13.5889 10.2882 13.3982 10.3672 13.1992 10.3672H7.19925C7.00033 10.3672 6.80957 10.2882 6.66892 10.1475C6.52826 10.0069 6.44925 9.8161 6.44925 9.61719Z" fill="#9299A2"/>
</svg>
