<svg width="24" height="17" viewBox="0 0 24 17" fill="none" xmlns="http://www.w3.org/2000/svg">
<path d="M23.8399 5.98352L21.4474 1.19665C21.3592 1.02046 21.2372 0.863359 21.0884 0.734318C20.9395 0.605277 20.7667 0.506822 20.5798 0.444576C20.3929 0.38233 20.1955 0.357513 19.999 0.371541C19.8025 0.38557 19.6107 0.438169 19.4345 0.526335L17.103 1.69165L12.1914 0.392273C12.0654 0.359477 11.9331 0.359477 11.807 0.392273L6.89548 1.69165L4.56391 0.526335C4.38774 0.438169 4.19593 0.38557 3.99942 0.371541C3.80292 0.357513 3.60558 0.38233 3.41867 0.444576C3.23175 0.506822 3.05894 0.605277 2.91008 0.734318C2.76122 0.863359 2.63924 1.02046 2.5511 1.19665L0.158602 5.98259C0.0704353 6.15876 0.0178362 6.35057 0.00380791 6.54708C-0.0102204 6.74358 0.0145969 6.94092 0.0768426 7.12783C0.139088 7.31474 0.237543 7.48756 0.366585 7.63642C0.495626 7.78528 0.652726 7.90726 0.828914 7.9954L3.36016 9.26196L8.56235 12.9773C8.63901 13.0318 8.72517 13.0716 8.81641 13.0945L14.8164 14.5945C14.9421 14.626 15.0737 14.6244 15.1986 14.5899C15.3235 14.5554 15.4373 14.4891 15.5289 14.3976L19.2789 10.6476L20.6927 9.23384L23.1695 7.9954C23.5251 7.81739 23.7955 7.50548 23.9212 7.12822C24.0469 6.75096 24.0176 6.33923 23.8399 5.98352ZM18.6939 9.11196L15.468 6.52821C15.3235 6.41247 15.1412 6.35428 14.9564 6.36484C14.7715 6.3754 14.5971 6.45396 14.4667 6.5854C12.797 8.26727 10.9361 8.05446 9.74923 7.30446L13.803 3.36696H16.7852L19.3361 8.4679L18.6939 9.11196ZM14.7686 13.0363L9.31985 11.6741L4.70735 8.37977L7.33235 3.12977L11.9992 1.89321L12.918 2.13602L8.69923 6.23102L8.69173 6.23946C8.53292 6.39827 8.4118 6.59071 8.33731 6.80258C8.26281 7.01445 8.23684 7.24035 8.26132 7.46359C8.28579 7.68684 8.36009 7.90175 8.47872 8.09245C8.59735 8.28314 8.75729 8.44477 8.94673 8.5654C10.8742 9.79633 13.2002 9.59665 15.032 8.09665L17.6242 10.1788L14.7686 13.0363ZM12.3574 16.2988C12.3168 16.4609 12.2233 16.6049 12.0917 16.7078C11.9601 16.8107 11.7979 16.8667 11.6308 16.867C11.5692 16.8669 11.5078 16.8593 11.448 16.8445L7.53766 15.8666C7.44629 15.8441 7.36006 15.8043 7.2836 15.7495L4.81329 13.9851C4.6614 13.8658 4.56136 13.6926 4.53401 13.5014C4.50666 13.3102 4.55411 13.1159 4.66647 12.9588C4.77883 12.8018 4.94745 12.6941 5.13721 12.6582C5.32696 12.6224 5.52324 12.6611 5.68516 12.7663L8.03923 14.4482L11.8117 15.3895C12.0047 15.4377 12.1705 15.5606 12.2728 15.7312C12.3752 15.9017 12.4056 16.1059 12.3574 16.2988Z" fill="#1863D3"/>
</svg>
