<svg width="25" height="25" viewBox="0 0 25 25" fill="none" xmlns="http://www.w3.org/2000/svg">
<path d="M21.7544 20.8424C21.6885 20.9564 21.5938 21.0511 21.4798 21.117C21.3657 21.1828 21.2364 21.2174 21.1047 21.2174H3.1047C2.97311 21.2173 2.84388 21.1825 2.72997 21.1166C2.61606 21.0507 2.52149 20.9561 2.45576 20.8421C2.39002 20.7281 2.35543 20.5988 2.35547 20.4672C2.3555 20.3356 2.39016 20.2064 2.45595 20.0924C3.88376 17.624 6.08407 15.854 8.65189 15.0149C7.38173 14.2588 6.3949 13.1066 5.84294 11.7353C5.29098 10.3641 5.2044 8.84952 5.59652 7.42429C5.98863 5.99906 6.83775 4.74195 8.01347 3.84601C9.1892 2.95007 10.6265 2.46484 12.1047 2.46484C13.5829 2.46484 15.0202 2.95007 16.1959 3.84601C17.3717 4.74195 18.2208 5.99906 18.6129 7.42429C19.005 8.84952 18.9184 10.3641 18.3665 11.7353C17.8145 13.1066 16.8277 14.2588 15.5575 15.0149C18.1253 15.854 20.3256 17.624 21.7535 20.0924C21.8194 20.2063 21.8542 20.3356 21.8544 20.4673C21.8546 20.5989 21.8201 20.7283 21.7544 20.8424Z" fill="#1863D3"/>
</svg>
