<svg width="25" height="25" viewBox="0 0 25 25" fill="none" xmlns="http://www.w3.org/2000/svg">
<path d="M20.1992 2.61719H3.69925C3.30142 2.61719 2.91989 2.77522 2.63859 3.05653C2.35728 3.33783 2.19925 3.71936 2.19925 4.11719V19.1172C2.19752 19.4032 2.27843 19.6837 2.43227 19.9248C2.58611 20.166 2.80632 20.3576 3.06643 20.4766C3.26465 20.5689 3.4806 20.6168 3.69925 20.6172C4.05137 20.6163 4.39182 20.4908 4.66018 20.2628L4.66862 20.2562L7.7305 17.6172H20.1992C20.5971 17.6172 20.9786 17.4592 21.2599 17.1778C21.5412 16.8965 21.6992 16.515 21.6992 16.1172V4.11719C21.6992 3.71936 21.5412 3.33783 21.2599 3.05653C20.9786 2.77522 20.5971 2.61719 20.1992 2.61719ZM14.9492 12.3672H8.94925C8.75033 12.3672 8.55957 12.2882 8.41892 12.1475C8.27826 12.0069 8.19925 11.8161 8.19925 11.6172C8.19925 11.4183 8.27826 11.2275 8.41892 11.0869C8.55957 10.9462 8.75033 10.8672 8.94925 10.8672H14.9492C15.1482 10.8672 15.3389 10.9462 15.4796 11.0869C15.6202 11.2275 15.6992 11.4183 15.6992 11.6172C15.6992 11.8161 15.6202 12.0069 15.4796 12.1475C15.3389 12.2882 15.1482 12.3672 14.9492 12.3672ZM14.9492 9.36719H8.94925C8.75033 9.36719 8.55957 9.28817 8.41892 9.14752C8.27826 9.00687 8.19925 8.8161 8.19925 8.61719C8.19925 8.41828 8.27826 8.22751 8.41892 8.08686C8.55957 7.94621 8.75033 7.86719 8.94925 7.86719H14.9492C15.1482 7.86719 15.3389 7.94621 15.4796 8.08686C15.6202 8.22751 15.6992 8.41828 15.6992 8.61719C15.6992 8.8161 15.6202 9.00687 15.4796 9.14752C15.3389 9.28817 15.1482 9.36719 14.9492 9.36719Z" fill="#1863D3"/>
</svg>
