<svg width="24" height="17" viewBox="0 0 24 17" fill="none" xmlns="http://www.w3.org/2000/svg">
<path d="M23.8418 5.98401L21.4493 1.19714C21.3612 1.02095 21.2392 0.863848 21.0903 0.734806C20.9415 0.605765 20.7687 0.50731 20.5817 0.445064C20.3948 0.382819 20.1975 0.358001 20.001 0.37203C19.8045 0.386058 19.6127 0.438657 19.4365 0.526824L17.1049 1.69214L12.1934 0.392761C12.0673 0.359965 11.935 0.359965 11.809 0.392761L6.89743 1.69214L4.56587 0.526824C4.38969 0.438657 4.19788 0.386058 4.00138 0.37203C3.80487 0.358001 3.60753 0.382819 3.42062 0.445064C3.23371 0.50731 3.06089 0.605765 2.91203 0.734806C2.76317 0.863848 2.64119 1.02095 2.55305 1.19714L0.160555 5.98307C0.0723885 6.15925 0.0197893 6.35106 0.00576103 6.54756C-0.00826727 6.74407 0.0165501 6.94141 0.0787958 7.12832C0.141041 7.31523 0.239496 7.48805 0.368538 7.63691C0.497579 7.78577 0.65468 7.90775 0.830867 7.99588L3.36212 9.26245L8.56431 12.9778C8.64096 13.0323 8.72712 13.072 8.81837 13.0949L14.8184 14.5949C14.944 14.6265 15.0757 14.6249 15.2006 14.5904C15.3254 14.5559 15.4392 14.4896 15.5309 14.3981L20.6937 9.23432L23.1706 7.99588C23.5261 7.81788 23.7965 7.50597 23.9222 7.12871C24.0479 6.75145 24.0196 6.33971 23.8418 5.98401ZM18.6959 9.11245L15.4699 6.5287C15.3254 6.41296 15.1432 6.35477 14.9583 6.36533C14.7735 6.37589 14.5991 6.45445 14.4687 6.58589C12.799 8.26776 10.9381 8.05495 9.75118 7.30495L13.8049 3.36745H16.7871L19.3381 8.46839L18.6959 9.11245ZM3.89462 1.86745L5.81368 2.82557L3.41649 7.61151L1.50118 6.65432L3.89462 1.86745ZM14.7696 13.0359L9.32181 11.6746L4.70931 8.38026L7.33431 3.13026L12.0012 1.8937L12.9199 2.13651L8.70118 6.23151L8.69368 6.23995C8.53487 6.39875 8.41375 6.59119 8.33926 6.80307C8.26476 7.01494 8.2388 7.24083 8.26327 7.46408C8.28775 7.68733 8.36204 7.90223 8.48067 8.09293C8.5993 8.28363 8.75924 8.44526 8.94868 8.56589C10.8762 9.79682 13.2021 9.59714 15.034 8.09714L17.6262 10.1793L14.7696 13.0359ZM20.5821 7.61057L18.1896 2.82932L20.1077 1.86745L22.5012 6.65432L20.5821 7.61057ZM12.3556 16.2984C12.315 16.4605 12.2216 16.6044 12.0899 16.7073C11.9583 16.8103 11.7961 16.8663 11.629 16.8665C11.5674 16.8664 11.506 16.8589 11.4462 16.844L7.53962 15.8671C7.44825 15.8446 7.36202 15.8048 7.28556 15.7499L4.81524 13.9856C4.66335 13.8663 4.56331 13.6931 4.53596 13.5019C4.50862 13.3107 4.55606 13.1164 4.66842 12.9593C4.78078 12.8022 4.9494 12.6946 5.13916 12.6587C5.32892 12.6229 5.5252 12.6616 5.68712 12.7668L8.04118 14.4487L11.8137 15.3899C12.0066 15.4382 12.1725 15.5611 12.2748 15.7317C12.3771 15.9022 12.4075 16.1064 12.3593 16.2993L12.3556 16.2984Z" fill="#9299A2"/>
</svg>
