<svg width="25" height="25" viewBox="0 0 25 25" fill="none" xmlns="http://www.w3.org/2000/svg">
<path d="M22.0488 20.86C20.621 18.3915 18.4207 16.6215 15.8528 15.7825C17.123 15.0263 18.1098 13.8742 18.6618 12.5029C19.2138 11.1316 19.3003 9.6171 18.9082 8.19187C18.5161 6.76664 17.667 5.50953 16.4913 4.61359C15.3155 3.71765 13.8782 3.23242 12.4 3.23242C10.9218 3.23242 9.48453 3.71765 8.30881 4.61359C7.13308 5.50953 6.28397 6.76664 5.89185 8.19187C5.49974 9.6171 5.58631 11.1316 6.13827 12.5029C6.69023 13.8742 7.67707 15.0263 8.94722 15.7825C6.37941 16.6206 4.1791 18.3906 2.75128 20.86C2.69892 20.9453 2.66419 21.0403 2.64914 21.1394C2.63409 21.2384 2.63902 21.3394 2.66365 21.4365C2.68828 21.5336 2.7321 21.6247 2.79253 21.7046C2.85296 21.7845 2.92877 21.8514 3.01549 21.9015C3.10222 21.9516 3.1981 21.9838 3.29748 21.9963C3.39686 22.0087 3.49772 22.0011 3.59412 21.9739C3.69051 21.9468 3.78049 21.9006 3.85874 21.838C3.93699 21.7755 4.00193 21.698 4.04972 21.61C5.81597 18.5575 8.93785 16.735 12.4 16.735C15.8622 16.735 18.9841 18.5575 20.7503 21.61C20.7981 21.698 20.8631 21.7755 20.9413 21.838C21.0196 21.9006 21.1096 21.9468 21.2059 21.9739C21.3023 22.0011 21.4032 22.0087 21.5026 21.9963C21.602 21.9838 21.6978 21.9516 21.7846 21.9015C21.8713 21.8514 21.9471 21.7845 22.0075 21.7046C22.068 21.6247 22.1118 21.5336 22.1364 21.4365C22.161 21.3394 22.166 21.2384 22.1509 21.1394C22.1359 21.0403 22.1011 20.9453 22.0488 20.86ZM7.15003 9.98497C7.15003 8.94662 7.45794 7.93159 8.03482 7.06823C8.6117 6.20487 9.43163 5.53196 10.3909 5.1346C11.3503 4.73724 12.4059 4.63328 13.4243 4.83585C14.4427 5.03842 15.3781 5.53844 16.1123 6.27266C16.8466 7.00689 17.3466 7.94235 17.5492 8.96075C17.7517 9.97915 17.6478 11.0347 17.2504 11.9941C16.853 12.9534 16.1801 13.7733 15.3168 14.3502C14.4534 14.9271 13.4384 15.235 12.4 15.235C11.0081 15.2335 9.67361 14.6799 8.68937 13.6956C7.70512 12.7114 7.15152 11.3769 7.15003 9.98497Z" fill="#9299A2"/>
</svg>
