<svg width="19" height="19" viewBox="0 0 19 19" fill="none" xmlns="http://www.w3.org/2000/svg">
<path d="M18.1599 8.18118L10.6599 0.68118C10.3787 0.400088 9.99727 0.242187 9.59962 0.242188C9.20196 0.242187 8.82058 0.400088 8.53931 0.68118L1.03931 8.18118C0.899342 8.32011 0.788392 8.48547 0.71291 8.66766C0.637427 8.84985 0.598917 9.04523 0.599619 9.24243V18.2424C0.599619 18.4413 0.678637 18.6321 0.819289 18.7728C0.959941 18.9134 1.15071 18.9924 1.34962 18.9924H7.34962C7.54853 18.9924 7.7393 18.9134 7.87995 18.7728C8.0206 18.6321 8.09962 18.4413 8.09962 18.2424V12.9924H11.0996V18.2424C11.0996 18.4413 11.1786 18.6321 11.3193 18.7728C11.4599 18.9134 11.6507 18.9924 11.8496 18.9924H17.8496C18.0485 18.9924 18.2393 18.9134 18.3799 18.7728C18.5206 18.6321 18.5996 18.4413 18.5996 18.2424V9.24243C18.6003 9.04523 18.5618 8.84985 18.4863 8.66766C18.4108 8.48547 18.2999 8.32011 18.1599 8.18118ZM17.0996 17.4924H12.5996V12.2424C12.5996 12.0435 12.5206 11.8528 12.3799 11.7121C12.2393 11.5714 12.0485 11.4924 11.8496 11.4924H7.34962C7.15071 11.4924 6.95994 11.5714 6.81929 11.7121C6.67864 11.8528 6.59962 12.0435 6.59962 12.2424V17.4924H2.09962V9.24243L9.59962 1.74243L17.0996 9.24243V17.4924Z" fill="#9299A2"/>
</svg>
