<svg width="16" height="16" viewBox="0 0 16 16" fill="none" xmlns="http://www.w3.org/2000/svg">
<path d="M12.7864 2.73461H11.3505V2.25598C11.3505 2.12903 11.3001 2.00729 11.2103 1.91753C11.1205 1.82777 10.9988 1.77734 10.8719 1.77734C10.7449 1.77734 10.6232 1.82777 10.5334 1.91753C10.4436 2.00729 10.3932 2.12903 10.3932 2.25598V2.73461H5.6069V2.25598C5.6069 2.12903 5.55647 2.00729 5.46671 1.91753C5.37695 1.82777 5.25521 1.77734 5.12826 1.77734C5.00132 1.77734 4.87958 1.82777 4.78982 1.91753C4.70006 2.00729 4.64963 2.12903 4.64963 2.25598V2.73461H3.21373C2.95985 2.73461 2.71637 2.83546 2.53685 3.01499C2.35732 3.19451 2.25647 3.43799 2.25647 3.69187V13.2645C2.25647 13.5184 2.35732 13.7619 2.53685 13.9414C2.71637 14.1209 2.95985 14.2218 3.21373 14.2218H12.7864C13.0403 14.2218 13.2837 14.1209 13.4633 13.9414C13.6428 13.7619 13.7436 13.5184 13.7436 13.2645V3.69187C13.7436 3.43799 13.6428 3.19451 13.4633 3.01499C13.2837 2.83546 13.0403 2.73461 12.7864 2.73461ZM4.64963 3.69187V4.17051C4.64963 4.29745 4.70006 4.41919 4.78982 4.50895C4.87958 4.59871 5.00132 4.64914 5.12826 4.64914C5.25521 4.64914 5.37695 4.59871 5.46671 4.50895C5.55647 4.41919 5.6069 4.29745 5.6069 4.17051V3.69187H10.3932V4.17051C10.3932 4.29745 10.4436 4.41919 10.5334 4.50895C10.6232 4.59871 10.7449 4.64914 10.8719 4.64914C10.9988 4.64914 11.1205 4.59871 11.2103 4.50895C11.3001 4.41919 11.3505 4.29745 11.3505 4.17051V3.69187H12.7864V5.6064H3.21373V3.69187H4.64963ZM12.7864 13.2645H3.21373V6.56367H12.7864V13.2645Z" fill="#9299A2"/>
</svg>
