<svg width="16" height="16" viewBox="0 0 16 16" fill="none" xmlns="http://www.w3.org/2000/svg">
<path d="M13 3.75H11.2675L10.4156 2.4725C10.37 2.40409 10.3082 2.348 10.2357 2.30919C10.1632 2.27038 10.0822 2.25005 10 2.25H6C5.91777 2.25005 5.83682 2.27038 5.76432 2.30919C5.69182 2.348 5.63001 2.40409 5.58437 2.4725L4.73187 3.75H3C2.60218 3.75 2.22064 3.90804 1.93934 4.18934C1.65804 4.47064 1.5 4.85218 1.5 5.25V12.25C1.5 12.6478 1.65804 13.0294 1.93934 13.3107C2.22064 13.592 2.60218 13.75 3 13.75H13C13.3978 13.75 13.7794 13.592 14.0607 13.3107C14.342 13.0294 14.5 12.6478 14.5 12.25V5.25C14.5 4.85218 14.342 4.47064 14.0607 4.18934C13.7794 3.90804 13.3978 3.75 13 3.75ZM13.5 12.25C13.5 12.3826 13.4473 12.5098 13.3536 12.6036C13.2598 12.6973 13.1326 12.75 13 12.75H3C2.86739 12.75 2.74021 12.6973 2.64645 12.6036C2.55268 12.5098 2.5 12.3826 2.5 12.25V5.25C2.5 5.11739 2.55268 4.99021 2.64645 4.89645C2.74021 4.80268 2.86739 4.75 3 4.75H5C5.08234 4.75005 5.16342 4.72977 5.23603 4.69096C5.30865 4.65214 5.37055 4.59599 5.41625 4.5275L6.2675 3.25H9.73188L10.5837 4.5275C10.6294 4.59599 10.6914 4.65214 10.764 4.69096C10.8366 4.72977 10.9177 4.75005 11 4.75H13C13.1326 4.75 13.2598 4.80268 13.3536 4.89645C13.4473 4.99021 13.5 5.11739 13.5 5.25V12.25ZM11 6.25V7.75C11 7.88261 10.9473 8.00979 10.8536 8.10355C10.7598 8.19732 10.6326 8.25 10.5 8.25H9C8.86739 8.25 8.74021 8.19732 8.64645 8.10355C8.55268 8.00979 8.5 7.88261 8.5 7.75C8.5 7.61739 8.55268 7.49021 8.64645 7.39645C8.74021 7.30268 8.86739 7.25 9 7.25H9.32187C8.9765 6.94742 8.53784 6.77238 8.07903 6.75406C7.62023 6.73575 7.16901 6.87528 6.80062 7.14937C6.69462 7.22911 6.56129 7.26346 6.42995 7.24488C6.29862 7.22631 6.18004 7.15632 6.10031 7.05031C6.02058 6.94431 5.98623 6.81097 6.0048 6.67964C6.02338 6.54831 6.09337 6.42973 6.19938 6.35C6.75518 5.93621 7.43663 5.72663 8.12891 5.75657C8.82119 5.78651 9.48199 6.05414 10 6.51438V6.25C10 6.11739 10.0527 5.99021 10.1464 5.89645C10.2402 5.80268 10.3674 5.75 10.5 5.75C10.6326 5.75 10.7598 5.80268 10.8536 5.89645C10.9473 5.99021 11 6.11739 11 6.25ZM9.89937 9.95C9.97907 10.0559 10.0134 10.1892 9.99492 10.3204C9.97641 10.4517 9.90652 10.5702 9.80062 10.65C9.24482 11.0638 8.56337 11.2734 7.87109 11.2434C7.17881 11.2135 6.51801 10.9459 6 10.4856V10.75C6 10.8826 5.94732 11.0098 5.85355 11.1036C5.75979 11.1973 5.63261 11.25 5.5 11.25C5.36739 11.25 5.24021 11.1973 5.14645 11.1036C5.05268 11.0098 5 10.8826 5 10.75V9.25C5 9.11739 5.05268 8.99021 5.14645 8.89645C5.24021 8.80268 5.36739 8.75 5.5 8.75H7C7.13261 8.75 7.25979 8.80268 7.35355 8.89645C7.44732 8.99021 7.5 9.11739 7.5 9.25C7.5 9.38261 7.44732 9.50979 7.35355 9.60355C7.25979 9.69732 7.13261 9.75 7 9.75H6.67812C7.0235 10.0526 7.46216 10.2276 7.92096 10.2459C8.37977 10.2642 8.83099 10.1247 9.19938 9.85063C9.30538 9.77099 9.43868 9.73673 9.56995 9.75536C9.70122 9.774 9.81972 9.84401 9.89937 9.95Z" fill="#283B52"/>
</svg>
