<svg width="162" height="113" viewBox="0 0 162 113" fill="none" xmlns="http://www.w3.org/2000/svg">
<path d="M156.827 75.9073C156.836 76.5941 156.708 77.2759 156.451 77.9129C156.194 78.55 155.813 79.1297 155.33 79.6184C154.848 80.1072 154.273 80.4951 153.639 80.7599C153.005 81.0246 152.325 81.1608 151.638 81.1606H114.579C115.118 82.145 115.323 83.2773 115.164 84.388C115.005 85.4986 114.49 86.5279 113.697 87.3216C113.394 87.623 113.056 87.8869 112.691 88.1078H119.537C122.4 88.1078 124.824 90.3683 124.861 93.2288C124.869 93.9156 124.741 94.5973 124.484 95.2343C124.227 95.8713 123.846 96.451 123.364 96.9399C122.881 97.4287 122.306 97.8169 121.673 98.082C121.039 98.347 120.359 98.4837 119.672 98.4842H85.6426C84.507 98.4839 83.4028 98.1112 82.4993 97.4231C81.5958 96.735 80.943 95.7695 80.641 94.6748C80.339 93.58 80.4044 92.4164 80.8273 91.3624C81.2502 90.3084 82.0071 89.4222 82.982 88.8397H62.5966C59.7332 88.8397 57.3094 86.5793 57.2726 83.7188C57.2607 82.7926 57.497 81.88 57.9569 81.076C58.4169 80.2719 59.0837 79.6056 59.8881 79.1463C59.0453 78.7089 58.3388 78.0484 57.8457 77.2368C57.3527 76.4252 57.0921 75.4937 57.0924 74.5441V68.1901C57.0915 67.3787 57.2814 66.5785 57.6466 65.8539C58.0117 65.1293 58.5421 64.5007 59.1948 64.0188H22.5613C19.7006 64.0188 17.2798 61.764 17.2373 58.9062C17.2271 58.2183 17.3539 57.5353 17.6101 56.8968C17.8664 56.2584 18.2471 55.6773 18.7301 55.1874C19.213 54.6975 19.7886 54.3086 20.4233 54.0432C21.058 53.7779 21.7392 53.6414 22.4271 53.6418H25.0162C26.0793 53.6418 27.0989 53.2195 27.8506 52.4678C28.6023 51.7161 29.0246 50.6966 29.0246 49.6335V49.6305C29.0246 48.5674 28.6023 47.5479 27.8506 46.7962C27.0989 46.0444 26.0793 45.6221 25.0162 45.6221H7.78175C6.406 45.6221 5.0866 45.0756 4.1138 44.1028C3.141 43.13 2.59448 41.8106 2.59448 40.4349C2.59448 39.0591 3.141 37.7397 4.1138 36.7669C5.0866 35.7941 6.406 35.2476 7.78175 35.2476H32.7004C34.0762 35.2479 35.3957 34.7018 36.3688 33.7292C37.3418 32.7567 37.8887 31.4374 37.889 30.0617C37.8894 28.6859 37.3432 27.3664 36.3707 26.3933C35.3981 25.4203 34.0789 24.8734 32.7031 24.873H25.5857C22.7193 24.873 20.2956 22.607 20.2647 19.7409C20.2572 19.0548 20.3859 18.3742 20.6433 17.7382C20.9008 17.1023 21.2818 16.5237 21.7643 16.0361C22.2468 15.5484 22.8213 15.1613 23.4545 14.8971C24.0877 14.633 24.767 14.4971 25.453 14.4973H72.7814C75.5689 14.4973 77.9617 16.6422 78.0962 19.4294C78.1419 20.349 77.9425 21.2642 77.5184 22.0814H138.558C139.934 22.0814 141.253 22.628 142.226 23.6008C143.199 24.5736 143.745 25.893 143.745 27.2687C143.745 28.6445 143.199 29.9639 142.226 30.9367C141.253 31.9095 139.934 32.456 138.558 32.456H115.949C115.948 33.5722 115.504 34.6424 114.715 35.4319C113.926 36.2213 112.856 36.6654 111.739 36.6668H86.2543C87.0095 37.3799 87.5332 38.3032 87.7576 39.3173C87.982 40.3314 87.8967 41.3895 87.5128 42.3545C87.1289 43.3196 86.4641 44.1472 85.6044 44.73C84.7448 45.3129 83.7299 45.6242 82.6913 45.6236H75.5653C75.2848 45.6232 75.007 45.6781 74.7477 45.7851C74.4884 45.8921 74.2527 46.0492 74.0542 46.2473C73.8556 46.4455 73.6981 46.6808 73.5906 46.9399C73.483 47.199 73.4276 47.4767 73.4275 47.7573V47.7602C73.4276 48.0407 73.483 48.3185 73.5906 48.5776C73.6981 48.8366 73.8556 49.072 74.0542 49.2701C74.2527 49.4683 74.4884 49.6254 74.7477 49.7324C75.007 49.8394 75.2848 49.8943 75.5653 49.8939H133.409C134.784 49.8939 136.104 50.4404 137.077 51.4132C138.049 52.386 138.596 53.7054 138.596 55.0811C138.596 56.4569 138.049 57.7763 137.077 58.7491C136.104 59.7219 134.784 60.2684 133.409 60.2684H118.45C119.208 60.7325 119.835 61.3837 120.27 62.1595C120.705 62.9352 120.933 63.8097 120.933 64.699V66.1785C120.933 67.1303 120.672 68.0639 120.176 68.8768C119.681 69.6897 118.972 70.3505 118.126 70.7867H151.503C154.366 70.7867 156.79 73.0471 156.827 75.9076" fill="#F4F7FA"/>
<path d="M146.454 44.262V50.6504" stroke="#5599D9" stroke-width="0.593832" stroke-miterlimit="10" stroke-linecap="round"/>
<path d="M143.26 47.4561H149.648" stroke="#5599D9" stroke-width="0.593832" stroke-miterlimit="10" stroke-linecap="round"/>
<path d="M42.7113 2.15918V7.80177" stroke="#5599D9" stroke-width="0.593832" stroke-miterlimit="10" stroke-linecap="round"/>
<path d="M39.8901 4.98047H45.5327" stroke="#5599D9" stroke-width="0.593832" stroke-miterlimit="10" stroke-linecap="round"/>
<path d="M153.963 11.1395C153.963 11.882 153.742 12.6078 153.33 13.2252C152.917 13.8426 152.331 14.3238 151.645 14.6079C150.959 14.8921 150.204 14.9664 149.476 14.8215C148.748 14.6766 148.079 14.319 147.554 13.794C147.029 13.2689 146.671 12.6 146.526 11.8717C146.381 11.1434 146.456 10.3886 146.74 9.70258C147.024 9.0166 147.505 8.43029 148.123 8.01781C148.74 7.60533 149.466 7.3852 150.209 7.38525C150.702 7.38525 151.19 7.48236 151.645 7.67103C152.101 7.8597 152.515 8.13624 152.863 8.48485C153.212 8.83347 153.488 9.24733 153.677 9.70281C153.865 10.1583 153.963 10.6465 153.963 11.1395Z" stroke="#5599D9" stroke-width="0.593832" stroke-miterlimit="10"/>
<path d="M8.79259 72.4409C8.79289 73.1835 8.57295 73.9095 8.1606 74.5271C7.74825 75.1447 7.162 75.6261 6.47602 75.9105C5.79004 76.1948 5.03513 76.2694 4.30678 76.1247C3.57843 75.9799 2.90935 75.6225 2.38418 75.0975C1.85901 74.5725 1.50133 73.9035 1.35639 73.1752C1.21145 72.4469 1.28575 71.692 1.5699 71.0059C1.85404 70.3198 2.33528 69.7334 2.95272 69.3209C3.57017 68.9083 4.2961 68.6882 5.03868 68.6882C6.03405 68.6883 6.98865 69.0837 7.69259 69.7874C8.39654 70.4911 8.7922 71.4456 8.79259 72.4409Z" stroke="#5599D9" stroke-width="0.593832" stroke-miterlimit="10"/>
<path d="M160.716 64.5916C160.716 64.951 160.609 65.3022 160.41 65.601C160.21 65.8998 159.926 66.1327 159.594 66.2702C159.262 66.4077 158.897 66.4436 158.544 66.3735C158.192 66.3034 157.868 66.1303 157.614 65.8762C157.36 65.6221 157.187 65.2983 157.117 64.9459C157.046 64.5934 157.082 64.2281 157.22 63.8961C157.357 63.564 157.59 63.2802 157.889 63.0805C158.188 62.8808 158.539 62.7742 158.899 62.7742C159.381 62.7742 159.843 62.9657 160.184 63.3065C160.524 63.6473 160.716 64.1096 160.716 64.5916Z" stroke="#5599D9" stroke-width="0.593832" stroke-miterlimit="10"/>
<path d="M21.9276 57.283C21.9275 57.6424 21.8209 57.9936 21.6212 58.2924C21.4215 58.5912 21.1377 58.8241 20.8057 58.9616C20.4737 59.0991 20.1083 59.135 19.7559 59.0649C19.4034 58.9948 19.0797 58.8217 18.8256 58.5676C18.5714 58.3135 18.3984 57.9897 18.3283 57.6373C18.2581 57.2848 18.2941 56.9195 18.4316 56.5875C18.5691 56.2554 18.802 55.9716 19.1007 55.7719C19.3995 55.5722 19.7508 55.4656 20.1102 55.4656C20.5922 55.4656 21.0544 55.6571 21.3953 55.9979C21.7361 56.3387 21.9276 56.801 21.9276 57.283Z" stroke="#5599D9" stroke-width="0.593832" stroke-miterlimit="10"/>
<path d="M123.46 109.857C123.46 109.896 123.434 109.965 123.309 110.061C123.187 110.154 122.996 110.252 122.731 110.352C122.203 110.552 121.416 110.747 120.392 110.935C118.346 111.309 115.38 111.647 111.71 111.932C104.37 112.5 94.228 112.852 83.0233 112.852C71.8187 112.852 61.6765 112.5 54.337 111.932C50.6665 111.647 47.7007 111.309 45.6546 110.935C44.6303 110.747 43.8435 110.552 43.3156 110.352C43.0507 110.252 42.86 110.154 42.738 110.061C42.6127 109.965 42.5869 109.896 42.5869 109.857C42.5869 109.818 42.6127 109.75 42.738 109.654C42.86 109.561 43.0507 109.463 43.3156 109.363C43.8435 109.163 44.6303 108.968 45.6546 108.78C47.7007 108.406 50.6665 108.068 54.337 107.783C61.6765 107.215 71.8187 106.863 83.0233 106.863C94.228 106.863 104.37 107.215 111.71 107.783C115.38 108.068 118.346 108.406 120.392 108.78C121.416 108.968 122.203 109.163 122.731 109.363C122.996 109.463 123.187 109.561 123.309 109.654C123.434 109.75 123.46 109.818 123.46 109.857Z" fill="#E6F0FF" stroke="#E6F0FF" stroke-width="0.296916"/>
<mask id="path-11-inside-1_2861_28208" fill="white">
<path d="M77.9835 0.52762L77.9889 0H77.7709L77.6151 0.152615L77.9835 0.52762ZM99.4102 0.757433L99.7861 0.38896L99.6338 0.233079L99.4152 0.230704L99.4102 0.757433ZM62.6701 15.5162L62.3016 15.1397L62.1457 15.2924L62.1434 15.5106L62.6701 15.5162ZM62.4403 36.9429L61.9127 36.9364L61.9103 37.1546L62.0629 37.3105L62.4403 36.9429ZM77.4289 52.2572L77.0524 52.6257L77.205 52.7816L77.4232 52.784L77.4289 52.2572ZM98.8555 52.487L98.8496 53.0138L99.0675 53.0161L99.2234 52.8635L98.8555 52.487ZM114.17 37.4972L114.538 37.8737L114.694 37.7211L114.697 37.5029L114.17 37.4972ZM114.399 16.0706L114.926 16.0762L114.928 15.858L114.776 15.7021L114.399 16.0706ZM97.2368 4.45641L97.6091 4.08408L97.4547 3.92968H97.2368V4.45641ZM79.1231 4.45641V3.92968H78.9049L78.7505 4.08408L79.1231 4.45641ZM110.045 17.2645H110.572V17.0462L110.417 16.8918L110.045 17.2645ZM110.045 35.3781L110.417 35.7505L110.572 35.5961V35.3778L110.045 35.3781ZM97.2368 48.1865V48.7132H97.4547L97.6091 48.5588L97.2368 48.1865ZM79.1231 48.1865L78.7508 48.5588L78.9052 48.7132H79.1234L79.1231 48.1865ZM66.315 35.3781H65.7883V35.5964L65.9424 35.7508L66.315 35.3781ZM66.315 17.2645L65.9424 16.8918L65.7883 17.0462V17.2645H66.315ZM77.9779 1.05286L99.4045 1.28268L99.4155 0.229219L77.9889 0L77.9779 1.05286ZM63.0386 15.8927L78.352 0.904406L77.6151 0.151427L62.3016 15.1397L63.0386 15.8927ZM62.967 36.9485L63.1968 15.5219L62.1434 15.5106L61.9127 36.9364L62.967 36.9485ZM77.8051 51.8879L62.8168 36.5744L62.0641 37.3114L77.0524 52.6248L77.8051 51.8879ZM98.8612 51.9594L77.4342 51.7296L77.423 52.7831L98.8496 53.0129L98.8612 51.9594ZM113.8 37.1213L98.4868 52.1088L99.2237 52.8617L114.537 37.8731L113.8 37.1213ZM113.873 16.0652L113.643 37.4919L114.697 37.5032L114.926 16.0765L113.873 16.0652ZM99.0334 1.12591L114.021 16.4391L114.775 15.7021L99.7861 0.38896L99.0334 1.12591ZM97.2368 3.92968H79.1231L79.1234 4.98314H97.2368V3.92968ZM110.417 16.8918L97.6094 4.08378L96.8647 4.82875L109.673 17.6368L110.417 16.8918ZM110.572 35.3778V17.2645H109.518V35.3781L110.572 35.3778ZM97.6094 48.5588L110.417 35.7505L109.673 35.0055L96.8647 47.8139L97.6094 48.5588ZM79.1234 48.7132H97.2368V47.6598H79.1234V48.7132ZM65.9424 35.7508L78.7508 48.5588L79.4957 47.8142L66.6874 35.0064L65.9424 35.7508ZM65.7883 17.2645V35.3781L66.8415 35.3784V17.2645H65.7883ZM78.7508 4.08378L65.9424 16.8918L66.6874 17.6368L79.4957 4.82845L78.7508 4.08378Z"/>
</mask>
<path d="M77.9835 0.52762L77.9889 0H77.7709L77.6151 0.152615L77.9835 0.52762ZM99.4102 0.757433L99.7861 0.38896L99.6338 0.233079L99.4152 0.230704L99.4102 0.757433ZM62.6701 15.5162L62.3016 15.1397L62.1457 15.2924L62.1434 15.5106L62.6701 15.5162ZM62.4403 36.9429L61.9127 36.9364L61.9103 37.1546L62.0629 37.3105L62.4403 36.9429ZM77.4289 52.2572L77.0524 52.6257L77.205 52.7816L77.4232 52.784L77.4289 52.2572ZM98.8555 52.487L98.8496 53.0138L99.0675 53.0161L99.2234 52.8635L98.8555 52.487ZM114.17 37.4972L114.538 37.8737L114.694 37.7211L114.697 37.5029L114.17 37.4972ZM114.399 16.0706L114.926 16.0762L114.928 15.858L114.776 15.7021L114.399 16.0706ZM97.2368 4.45641L97.6091 4.08408L97.4547 3.92968H97.2368V4.45641ZM79.1231 4.45641V3.92968H78.9049L78.7505 4.08408L79.1231 4.45641ZM110.045 17.2645H110.572V17.0462L110.417 16.8918L110.045 17.2645ZM110.045 35.3781L110.417 35.7505L110.572 35.5961V35.3778L110.045 35.3781ZM97.2368 48.1865V48.7132H97.4547L97.6091 48.5588L97.2368 48.1865ZM79.1231 48.1865L78.7508 48.5588L78.9052 48.7132H79.1234L79.1231 48.1865ZM66.315 35.3781H65.7883V35.5964L65.9424 35.7508L66.315 35.3781ZM66.315 17.2645L65.9424 16.8918L65.7883 17.0462V17.2645H66.315ZM77.9779 1.05286L99.4045 1.28268L99.4155 0.229219L77.9889 0L77.9779 1.05286ZM63.0386 15.8927L78.352 0.904406L77.6151 0.151427L62.3016 15.1397L63.0386 15.8927ZM62.967 36.9485L63.1968 15.5219L62.1434 15.5106L61.9127 36.9364L62.967 36.9485ZM77.8051 51.8879L62.8168 36.5744L62.0641 37.3114L77.0524 52.6248L77.8051 51.8879ZM98.8612 51.9594L77.4342 51.7296L77.423 52.7831L98.8496 53.0129L98.8612 51.9594ZM113.8 37.1213L98.4868 52.1088L99.2237 52.8617L114.537 37.8731L113.8 37.1213ZM113.873 16.0652L113.643 37.4919L114.697 37.5032L114.926 16.0765L113.873 16.0652ZM99.0334 1.12591L114.021 16.4391L114.775 15.7021L99.7861 0.38896L99.0334 1.12591ZM97.2368 3.92968H79.1231L79.1234 4.98314H97.2368V3.92968ZM110.417 16.8918L97.6094 4.08378L96.8647 4.82875L109.673 17.6368L110.417 16.8918ZM110.572 35.3778V17.2645H109.518V35.3781L110.572 35.3778ZM97.6094 48.5588L110.417 35.7505L109.673 35.0055L96.8647 47.8139L97.6094 48.5588ZM79.1234 48.7132H97.2368V47.6598H79.1234V48.7132ZM65.9424 35.7508L78.7508 48.5588L79.4957 47.8142L66.6874 35.0064L65.9424 35.7508ZM65.7883 17.2645V35.3781L66.8415 35.3784V17.2645H65.7883ZM78.7508 4.08378L65.9424 16.8918L66.6874 17.6368L79.4957 4.82845L78.7508 4.08378Z" fill="#5599D9"/>
<path d="M98.3649 2.58449L98.2105 2.43009L98.0005 2.64005L98.1549 2.79444L98.3649 2.58449ZM112.085 36.5354L112.239 36.163L111.965 36.0493L111.811 36.4216L112.085 36.5354ZM97.9445 50.4573L98.3168 50.3029L98.2031 50.0286L97.8307 50.183L97.9445 50.4573ZM78.1015 50.3029L78.4739 50.4573L78.5876 50.183L78.2153 50.0286L78.1015 50.3029ZM77.9835 0.52762L77.7717 0.735718L78.2732 1.24605L78.2804 0.530627L77.9835 0.52762ZM77.9889 0L77.9921 -0.296916H77.9889V0ZM77.7709 0V-0.296916H77.6498L77.5632 -0.212163L77.7709 0ZM77.6151 0.152615L77.4073 -0.0595477L77.1948 0.148543L77.4033 0.360713L77.6151 0.152615ZM99.4102 0.757433L99.1133 0.754585L99.1064 1.47098L99.618 0.969468L99.4102 0.757433ZM99.6338 0.233079L99.8461 0.0255687L99.7601 -0.0624814L99.637 -0.0638194L99.6338 0.233079ZM99.4152 0.230704L99.4185 -0.0661947L99.1212 -0.069426L99.1183 0.227856L99.4152 0.230704ZM62.6701 15.5162L62.6669 15.8131L63.3836 15.8208L62.8823 15.3086L62.6701 15.5162ZM62.3016 15.1397L62.0939 14.9276L62.0939 14.9276L62.3016 15.1397ZM62.1457 15.2924L61.938 15.0802L61.8502 15.1662L61.8488 15.2891L62.1457 15.2924ZM62.1434 15.5106L61.8465 15.5074L61.8465 15.5074L62.1434 15.5106ZM62.4403 36.9429L62.6474 37.1556L63.1615 36.6549L62.4439 36.646L62.4403 36.9429ZM61.9103 37.1546L61.6134 37.1514L61.612 37.2744L61.6981 37.3623L61.9103 37.1546ZM62.0629 37.3105L61.8507 37.5182L62.0579 37.7298L62.2701 37.5232L62.0629 37.3105ZM77.4289 52.2572L77.7258 52.2604L77.7335 51.5437L77.2212 52.045L77.4289 52.2572ZM77.0524 52.6257L76.8447 52.4135L76.6325 52.6212L76.8402 52.8334L77.0524 52.6257ZM77.205 52.7816L76.9929 52.9893L77.0789 53.0771L77.2018 53.0785L77.205 52.7816ZM77.4232 52.784L77.42 53.0809L77.717 53.0841L77.7201 52.7871L77.4232 52.784ZM98.8555 52.487L99.0679 52.2795L98.5667 51.7666L98.5586 52.4837L98.8555 52.487ZM98.8496 53.0138L98.5527 53.0104L98.5494 53.3074L98.8464 53.3107L98.8496 53.0138ZM99.0675 53.0161L99.0643 53.313L99.1873 53.3144L99.2752 53.2283L99.0675 53.0161ZM99.2234 52.8635L99.4311 53.0757L99.6431 52.8682L99.4358 52.656L99.2234 52.8635ZM114.17 37.4972L114.173 37.2003L113.457 37.1927L113.958 37.7048L114.17 37.4972ZM114.538 37.8737L114.326 38.0813L114.533 38.2937L114.746 38.0859L114.538 37.8737ZM114.694 37.7211L114.902 37.9333L114.989 37.8474L114.991 37.7247L114.694 37.7211ZM114.697 37.5029L114.993 37.5065L114.997 37.2092L114.7 37.206L114.697 37.5029ZM114.399 16.0706L114.192 15.8584L113.679 16.3598L114.396 16.3675L114.399 16.0706ZM114.926 16.0762L114.923 16.3731L115.22 16.3763L115.223 16.0791L114.926 16.0762ZM114.928 15.858L115.225 15.8608L115.226 15.7382L115.141 15.6505L114.928 15.858ZM114.776 15.7021L114.988 15.4946L114.781 15.2821L114.568 15.4899L114.776 15.7021ZM97.2368 4.45641H96.9398V5.17323L97.4467 4.66636L97.2368 4.45641ZM97.6091 4.08408L97.819 4.29403L98.029 4.08408L97.819 3.87413L97.6091 4.08408ZM97.4547 3.92968L97.6646 3.71973L97.5777 3.63277H97.4547V3.92968ZM79.1231 4.45641L78.9132 4.66645L79.42 5.17283V4.45641H79.1231ZM78.9049 3.92968V3.63277H78.7819L78.6949 3.71973L78.9049 3.92968ZM78.7505 4.08408L78.5405 3.87413L78.3305 4.08416L78.5406 4.29412L78.7505 4.08408ZM110.045 17.2645L109.835 17.0546L109.329 17.5614H110.045V17.2645ZM110.572 17.0462H110.869V16.9233L110.782 16.8363L110.572 17.0462ZM110.045 35.3781L110.045 35.0812L109.329 35.0816L109.835 35.5881L110.045 35.3781ZM110.572 35.5961L110.782 35.806L110.869 35.7191V35.5961H110.572ZM97.2368 48.1865L97.4467 47.9766L96.9398 47.4697V48.1865H97.2368ZM97.4547 48.7132V49.0101H97.5777L97.6646 48.9232L97.4547 48.7132ZM97.6091 48.5588L97.819 48.7688L98.029 48.5588L97.819 48.3489L97.6091 48.5588ZM79.1231 48.1865L79.42 48.1863L79.4196 47.4701L78.9131 47.9766L79.1231 48.1865ZM78.7508 48.5588L78.5408 48.7688L78.7508 48.5588ZM78.9052 48.7132L78.6952 48.9232L78.7822 49.0101H78.9052V48.7132ZM66.315 35.3781L66.525 35.5881L67.0318 35.0812H66.315V35.3781ZM65.7883 35.5964H65.4914V35.7192L65.5781 35.8061L65.7883 35.5964ZM65.9424 35.7508L65.7322 35.9605L65.7324 35.9607L65.9424 35.7508ZM66.315 17.2645V17.5614H67.0318L66.525 17.0545L66.315 17.2645ZM65.9424 16.8918L65.7324 16.6819L65.7322 16.6821L65.9424 16.8918ZM65.7883 17.0462L65.5781 16.8365L65.4914 16.9234V17.0462H65.7883ZM77.9779 1.05286L77.681 1.04977L77.6779 1.34658L77.9747 1.34976L77.9779 1.05286ZM99.4045 1.28268L99.4013 1.57958L99.6983 1.58276L99.7014 1.28577L99.4045 1.28268ZM99.4155 0.229219L99.7124 0.232316L99.7155 -0.0645045L99.4187 -0.0676799L99.4155 0.229219ZM63.0386 15.8927L62.8264 16.1004L63.034 16.3126L63.2462 16.1049L63.0386 15.8927ZM78.352 0.904406L78.5597 1.1166L78.7719 0.908918L78.5642 0.696727L78.352 0.904406ZM77.6151 0.151427L77.8273 -0.0562526L77.6196 -0.268458L77.4074 -0.0607646L77.6151 0.151427ZM62.967 36.9485L62.9636 37.2454L63.2607 37.2489L63.2639 36.9517L62.967 36.9485ZM63.1968 15.5219L63.4937 15.5251L63.4969 15.2282L63.2 15.225L63.1968 15.5219ZM77.8051 51.8879L78.0128 52.1L78.2249 51.8923L78.0173 51.6802L77.8051 51.8879ZM62.8168 36.5744L63.029 36.3667L62.8212 36.1545L62.609 36.3623L62.8168 36.5744ZM62.0641 37.3114L61.8564 37.0992L61.6442 37.3069L61.8519 37.519L62.0641 37.3114ZM77.0524 52.6248L76.8402 52.8325L77.0479 53.0447L77.2601 52.837L77.0524 52.6248ZM98.8612 51.9594L99.1581 51.9627L99.1613 51.6657L98.8644 51.6625L98.8612 51.9594ZM77.4342 51.7296L77.4374 51.4327L77.1405 51.4295L77.1373 51.7264L77.4342 51.7296ZM77.423 52.7831L77.1261 52.7799L77.1229 53.0768L77.4198 53.08L77.423 52.7831ZM98.8496 53.0129L98.8464 53.3098L99.1432 53.313L99.1465 53.0161L98.8496 53.0129ZM113.8 37.1213L114.012 36.9135L113.804 36.7016L113.592 36.9091L113.8 37.1213ZM98.4868 52.1088L98.2791 51.8966L98.0669 52.1042L98.2746 52.3164L98.4868 52.1088ZM99.2237 52.8617L99.0115 53.0694L99.2192 53.2816L99.4314 53.0739L99.2237 52.8617ZM114.537 37.8731L114.745 38.0853L114.957 37.8775L114.749 37.6653L114.537 37.8731ZM113.873 16.0652L113.876 15.7683L113.579 15.7652L113.576 16.0621L113.873 16.0652ZM113.643 37.4919L113.347 37.4887L113.343 37.7856L113.64 37.7888L113.643 37.4919ZM114.697 37.5032L114.694 37.8001L114.991 37.8032L114.994 37.5063L114.697 37.5032ZM114.926 16.0765L115.223 16.0797L115.226 15.7828L114.93 15.7796L114.926 16.0765ZM99.0334 1.12591L98.8257 0.913748L98.6135 1.12144L98.8212 1.33359L99.0334 1.12591ZM114.021 16.4391L113.809 16.6467L114.017 16.8589L114.229 16.6513L114.021 16.4391ZM114.775 15.7021L114.982 15.9143L115.195 15.7067L114.987 15.4944L114.775 15.7021ZM79.1234 4.98314L78.8265 4.98323L78.8266 5.28006H79.1234V4.98314ZM97.2368 4.98314V5.28006H97.5337V4.98314H97.2368ZM97.6094 4.08378L97.8193 3.87383L97.6093 3.66384L97.3994 3.87387L97.6094 4.08378ZM96.8647 4.82875L96.6547 4.61884L96.4449 4.82879L96.6548 5.0387L96.8647 4.82875ZM109.673 17.6368L109.463 17.8468L109.673 18.0568L109.883 17.8467L109.673 17.6368ZM109.518 17.2645V16.9676H109.221V17.2645H109.518ZM109.518 35.3781H109.221V35.6751L109.518 35.6751L109.518 35.3781ZM97.6094 48.5588L97.3994 48.7687L97.6093 48.9788L97.8193 48.7688L97.6094 48.5588ZM109.673 35.0055L109.883 34.7956L109.673 34.5856L109.463 34.7956L109.673 35.0055ZM96.8647 47.8139L96.6548 47.6039L96.4449 47.8138L96.6547 48.0238L96.8647 47.8139ZM97.2368 47.6598H97.5337V47.3629H97.2368V47.6598ZM79.1234 47.6598V47.3629H78.8265V47.6598H79.1234ZM79.4957 47.8142L79.7056 48.0242L79.9157 47.8142L79.7057 47.6042L79.4957 47.8142ZM66.6874 35.0064L66.8973 34.7964L66.6874 34.5866L66.4775 34.7964L66.6874 35.0064ZM66.8415 35.3784L66.8414 35.6754L67.1384 35.6754V35.3784H66.8415ZM66.8415 17.2645H67.1384V16.9676H66.8415V17.2645ZM78.7508 4.08378L78.9607 3.87379L78.7507 3.66392L78.5408 3.87383L78.7508 4.08378ZM66.6874 17.6368L66.4774 17.8468L66.6874 18.0567L66.8973 17.8468L66.6874 17.6368ZM79.4957 4.82845L79.7057 5.0384L79.9157 4.82841L79.7056 4.61846L79.4957 4.82845ZM78.2804 0.530627L78.2858 0.00300706L77.692 -0.00300706L77.6866 0.524613L78.2804 0.530627ZM77.9889 -0.296916H77.7709V0.296916H77.9889V-0.296916ZM77.5632 -0.212163L77.4073 -0.0595477L77.8228 0.364777L77.9787 0.212163L77.5632 -0.212163ZM77.4033 0.360713L77.7717 0.735718L78.1953 0.319521L77.8268 -0.0554836L77.4033 0.360713ZM99.618 0.969468L99.9939 0.600995L99.5782 0.176925L99.2023 0.545398L99.618 0.969468ZM99.9984 0.18145L99.8461 0.0255687L99.4214 0.440589L99.5737 0.59647L99.9984 0.18145ZM99.637 -0.0638194L99.4185 -0.0661947L99.412 0.527602L99.6305 0.529978L99.637 -0.0638194ZM99.1183 0.227856L99.1133 0.754585L99.7071 0.76028L99.7121 0.233551L99.1183 0.227856ZM62.8823 15.3086L62.5138 14.9321L62.0894 15.3474L62.4579 15.7239L62.8823 15.3086ZM62.0939 14.9276L61.938 15.0802L62.3534 15.5045L62.5093 15.3519L62.0939 14.9276ZM61.8488 15.2891L61.8465 15.5074L62.4403 15.5138L62.4426 15.2956L61.8488 15.2891ZM62.1402 15.8075L62.6669 15.8131L62.6733 15.2193L62.1465 15.2137L62.1402 15.8075ZM62.4439 36.646L61.9163 36.6395L61.909 37.2332L62.4366 37.2398L62.4439 36.646ZM61.6158 36.9331L61.6134 37.1514L62.2072 37.1578L62.2096 36.9396L61.6158 36.9331ZM61.6981 37.3623L61.8507 37.5182L62.2751 37.1028L62.1224 36.9469L61.6981 37.3623ZM62.2701 37.5232L62.6474 37.1556L62.2331 36.7302L61.8557 37.0978L62.2701 37.5232ZM77.2212 52.045L76.8447 52.4135L77.2601 52.8379L77.6366 52.4694L77.2212 52.045ZM76.8402 52.8334L76.9929 52.9893L77.4172 52.5739L77.2646 52.418L76.8402 52.8334ZM77.2018 53.0785L77.42 53.0809L77.4265 52.4871L77.2082 52.4847L77.2018 53.0785ZM77.7201 52.7871L77.7258 52.2604L77.132 52.254L77.1263 52.7808L77.7201 52.7871ZM98.5586 52.4837L98.5527 53.0104L99.1465 53.0171L99.1524 52.4904L98.5586 52.4837ZM98.8464 53.3107L99.0643 53.313L99.0708 52.7192L98.8528 52.7169L98.8464 53.3107ZM99.2752 53.2283L99.4311 53.0757L99.0157 52.6514L98.8598 52.804L99.2752 53.2283ZM99.4358 52.656L99.0679 52.2795L98.6432 52.6945L99.011 53.071L99.4358 52.656ZM113.958 37.7048L114.326 38.0813L114.75 37.6661L114.382 37.2896L113.958 37.7048ZM114.746 38.0859L114.902 37.9333L114.486 37.5089L114.33 37.6616L114.746 38.0859ZM114.991 37.7247L114.993 37.5065L114.4 37.4992L114.397 37.7175L114.991 37.7247ZM114.7 37.206L114.173 37.2003L114.167 37.7941L114.693 37.7998L114.7 37.206ZM114.396 16.3675L114.923 16.3731L114.929 15.7793L114.403 15.7737L114.396 16.3675ZM115.223 16.0791L115.225 15.8608L114.631 15.8552L114.629 16.0734L115.223 16.0791ZM115.141 15.6505L114.988 15.4946L114.564 15.9096L114.716 16.0655L115.141 15.6505ZM114.568 15.4899L114.192 15.8584L114.607 16.2828L114.984 15.9143L114.568 15.4899ZM97.4467 4.66636L97.819 4.29403L97.3991 3.87413L97.0268 4.24646L97.4467 4.66636ZM97.819 3.87413L97.6646 3.71973L97.2447 4.13964L97.3991 4.29403L97.819 3.87413ZM97.4547 3.63277H97.2368V4.2266H97.4547V3.63277ZM96.9398 3.92968V4.45641H97.5337V3.92968H96.9398ZM79.42 4.45641V3.92968H78.8262V4.45641H79.42ZM79.1231 3.63277H78.9049V4.2266H79.1231V3.63277ZM78.6949 3.71973L78.5405 3.87413L78.9604 4.29403L79.1148 4.13963L78.6949 3.71973ZM78.5406 4.29412L78.9132 4.66645L79.333 4.24638L78.9603 3.87405L78.5406 4.29412ZM110.045 17.5614H110.572V16.9676H110.045V17.5614ZM110.869 17.2645V17.0462H110.275V17.2645H110.869ZM110.782 16.8363L110.627 16.6819L110.207 17.1018L110.362 17.2562L110.782 16.8363ZM110.207 16.682L109.835 17.0546L110.255 17.4743L110.627 17.1017L110.207 16.682ZM109.835 35.5881L110.207 35.9604L110.627 35.5405L110.255 35.1682L109.835 35.5881ZM110.627 35.9604L110.782 35.806L110.362 35.3861L110.207 35.5405L110.627 35.9604ZM110.869 35.5961V35.3778H110.275V35.5961H110.869ZM110.572 35.0809L110.045 35.0812L110.045 35.6751L110.572 35.6748L110.572 35.0809ZM96.9398 48.1865V48.7132H97.5337V48.1865H96.9398ZM97.2368 49.0101H97.4547V48.4163H97.2368V49.0101ZM97.6646 48.9232L97.819 48.7688L97.3991 48.3489L97.2447 48.5033L97.6646 48.9232ZM97.819 48.3489L97.4467 47.9766L97.0268 48.3965L97.3991 48.7688L97.819 48.3489ZM78.9131 47.9766L78.5408 48.3489L78.9607 48.7688L79.333 48.3965L78.9131 47.9766ZM78.5408 48.7688L78.6952 48.9232L79.1151 48.5033L78.9607 48.3489L78.5408 48.7688ZM78.9052 49.0101H79.1234V48.4163H78.9052V49.0101ZM79.4203 48.7131L79.42 48.1863L78.8262 48.1867L78.8265 48.7134L79.4203 48.7131ZM66.315 35.0812H65.7883V35.6751H66.315V35.0812ZM65.4914 35.3781V35.5964H66.0852V35.3781H65.4914ZM65.5781 35.8061L65.7322 35.9605L66.1526 35.541L65.9985 35.3866L65.5781 35.8061ZM66.1523 35.9607L66.525 35.5881L66.1051 35.1682L65.7324 35.5408L66.1523 35.9607ZM66.525 17.0545L66.1523 16.6819L65.7324 17.1018L66.1051 17.4744L66.525 17.0545ZM65.7322 16.6821L65.5781 16.8365L65.9985 17.256L66.1526 17.1016L65.7322 16.6821ZM65.4914 17.0462V17.2645H66.0852V17.0462H65.4914ZM65.7883 17.5614H66.315V16.9676H65.7883V17.5614ZM77.9747 1.34976L99.4013 1.57958L99.4077 0.985778L77.9811 0.755965L77.9747 1.34976ZM99.7014 1.28577L99.7124 0.232316L99.1186 0.226123L99.1076 1.27958L99.7014 1.28577ZM99.4187 -0.0676799L77.992 -0.296899L77.9857 0.296899L99.4123 0.526118L99.4187 -0.0676799ZM77.692 -0.00309752L77.681 1.04977L78.2748 1.05596L78.2858 0.00309752L77.692 -0.00309752ZM63.2462 16.1049L78.5597 1.1166L78.1443 0.692214L62.8309 15.6805L63.2462 16.1049ZM78.5642 0.696727L77.8273 -0.0562526L77.4029 0.359107L78.1398 1.11209L78.5642 0.696727ZM77.4074 -0.0607646L62.0939 14.9276L62.5093 15.3519L77.8227 0.363619L77.4074 -0.0607646ZM62.0894 15.3474L62.8264 16.1004L63.2508 15.685L62.5138 14.9321L62.0894 15.3474ZM63.2639 36.9517L63.4937 15.5251L62.8999 15.5187L62.6701 36.9453L63.2639 36.9517ZM63.2 15.225L62.1465 15.2137L62.1402 15.8075L63.1936 15.8188L63.2 15.225ZM61.8465 15.5074L61.6158 36.9332L62.2096 36.9396L62.4403 15.5138L61.8465 15.5074ZM61.9092 37.2333L62.9636 37.2454L62.9704 36.6516L61.9161 36.6395L61.9092 37.2333ZM78.0173 51.6802L63.029 36.3667L62.6046 36.7821L77.5929 52.0955L78.0173 51.6802ZM62.609 36.3623L61.8564 37.0992L62.2718 37.5235L63.0245 36.7866L62.609 36.3623ZM61.8519 37.519L76.8402 52.8325L77.2646 52.4171L62.2763 37.1037L61.8519 37.519ZM77.2601 52.837L78.0128 52.1L77.5974 51.6757L76.8447 52.4127L77.2601 52.837ZM98.8644 51.6625L77.4374 51.4327L77.4311 52.0265L98.858 52.2563L98.8644 51.6625ZM77.1373 51.7264L77.1261 52.7799L77.7199 52.7862L77.7311 51.7328L77.1373 51.7264ZM77.4198 53.08L98.8464 53.3098L98.8528 52.716L77.4261 52.4862L77.4198 53.08ZM99.1465 53.0161L99.1581 51.9627L98.5643 51.9562L98.5527 53.0096L99.1465 53.0161ZM113.592 36.9091L98.2791 51.8966L98.6944 52.321L114.008 37.3335L113.592 36.9091ZM98.2746 52.3164L99.0115 53.0694L99.4359 52.6541L98.699 51.9011L98.2746 52.3164ZM99.4314 53.0739L114.745 38.0853L114.329 37.6609L99.016 52.6496L99.4314 53.0739ZM114.749 37.6653L114.012 36.9135L113.588 37.3292L114.325 38.081L114.749 37.6653ZM113.576 16.0621L113.347 37.4887L113.94 37.4951L114.17 16.0684L113.576 16.0621ZM113.64 37.7888L114.694 37.8001L114.7 37.2063L113.647 37.195L113.64 37.7888ZM114.994 37.5063L115.223 16.0797L114.63 16.0733L114.4 37.5L114.994 37.5063ZM114.93 15.7796L113.876 15.7683L113.87 16.3621L114.923 16.3734L114.93 15.7796ZM98.8212 1.33359L113.809 16.6467L114.234 16.2314L99.2456 0.918219L98.8212 1.33359ZM114.229 16.6513L114.982 15.9143L114.567 15.4899L113.814 16.2268L114.229 16.6513ZM114.987 15.4944L99.9983 0.181269L99.5739 0.596651L114.562 15.9098L114.987 15.4944ZM99.5784 0.176802L98.8257 0.913748L99.2411 1.33806L99.9938 0.601118L99.5784 0.176802ZM97.2368 3.63277H79.1231V4.2266H97.2368V3.63277ZM78.8262 3.92977L78.8265 4.98323L79.4203 4.98306L79.42 3.9296L78.8262 3.92977ZM79.1234 5.28006H97.2368V4.68623H79.1234V5.28006ZM97.5337 4.98314V3.92968H96.9398V4.98314H97.5337ZM110.627 16.6819L97.8193 3.87383L97.3994 4.29373L110.207 17.1018L110.627 16.6819ZM97.3994 3.87387L96.6547 4.61884L97.0747 5.03866L97.8194 4.29369L97.3994 3.87387ZM96.6548 5.0387L109.463 17.8468L109.883 17.4269L97.0747 4.61879L96.6548 5.0387ZM109.883 17.8467L110.627 17.1018L110.207 16.6819L109.463 17.4269L109.883 17.8467ZM110.869 35.3778V17.2645H110.275V35.3778H110.869ZM110.572 16.9676H109.518V17.5614H110.572V16.9676ZM109.221 17.2645V35.3781H109.815V17.2645H109.221ZM109.518 35.6751L110.572 35.6748L110.572 35.0809L109.518 35.0812L109.518 35.6751ZM97.8193 48.7688L110.627 35.9604L110.207 35.5405L97.3994 48.3489L97.8193 48.7688ZM110.627 35.5406L109.883 34.7956L109.463 35.2154L110.207 35.9604L110.627 35.5406ZM109.463 34.7956L96.6548 47.6039L97.0747 48.0238L109.883 35.2155L109.463 34.7956ZM96.6547 48.0238L97.3994 48.7687L97.8194 48.3489L97.0747 47.604L96.6547 48.0238ZM79.1234 49.0101H97.2368V48.4163H79.1234V49.0101ZM97.5337 48.7132V47.6598H96.9398V48.7132H97.5337ZM97.2368 47.3629H79.1234V47.9567H97.2368V47.3629ZM78.8265 47.6598V48.7132H79.4203V47.6598H78.8265ZM65.7324 35.9607L78.5408 48.7688L78.9607 48.3489L66.1523 35.5408L65.7324 35.9607ZM78.9607 48.7688L79.7056 48.0242L79.2858 47.6042L78.5408 48.3488L78.9607 48.7688ZM79.7057 47.6042L66.8973 34.7964L66.4774 35.2164L79.2858 48.0241L79.7057 47.6042ZM66.4775 34.7964L65.7325 35.5407L66.1523 35.9608L66.8972 35.2164L66.4775 34.7964ZM65.4914 17.2645V35.3781H66.0852V17.2645H65.4914ZM65.7882 35.6751L66.8414 35.6754L66.8415 35.0815L65.7884 35.0812L65.7882 35.6751ZM67.1384 35.3784V17.2645H66.5445V35.3784H67.1384ZM66.8415 16.9676H65.7883V17.5614H66.8415V16.9676ZM78.5408 3.87383L65.7324 16.6819L66.1523 17.1018L78.9607 4.29374L78.5408 3.87383ZM65.7324 17.1018L66.4774 17.8468L66.8973 17.4269L66.1523 16.6819L65.7324 17.1018ZM66.8973 17.8468L79.7057 5.0384L79.2858 4.6185L66.4774 17.4269L66.8973 17.8468ZM79.7056 4.61846L78.9607 3.87379L78.5408 4.29378L79.2858 5.03844L79.7056 4.61846Z" fill="#5599D9" mask="url(#path-11-inside-1_2861_28208)"/>
<path d="M83.7728 92.8438H51.6429V96.5309H83.7728V92.8438Z" fill="#E6F0FF" stroke="#5599D9" stroke-width="0.593832"/>
<path d="M75.1015 80.9426H61.0411L62.5626 76.0354H73.3217L75.1015 80.9426Z" fill="#E6F0FF" stroke="#E6F0FF" stroke-width="0.296916"/>
<path d="M59.9245 84.9008L59.9327 84.8772V84.8523V84.439H76.1223L78.5365 92.2084H57.4005L59.9245 84.9008Z" fill="white" stroke="#5599D9" stroke-width="0.296916"/>
<path d="M63.5913 72.2299L66.3406 61.7547H69.2042L72.6256 72.2299H63.5913Z" fill="white" stroke="#5599D9" stroke-width="0.296916"/>
<mask id="path-17-inside-2_2861_28208" fill="white">
<path d="M63.2357 72.6881L62.731 72.5343L62.5231 73.2148H63.2357V72.6881ZM66.6081 61.6271V61.1003H66.2179L66.1042 61.4733L66.6081 61.6271ZM72.55 72.6881V73.2145H73.2626L73.0547 72.534L72.55 72.6881ZM69.1776 61.6271L69.6824 61.4733L69.5675 61.1003H69.1776V61.6271ZM60.6662 81.1155L60.1615 80.9616L59.9536 81.6422H60.6662V81.1155ZM62.2722 75.8482V75.3226H61.8809L61.7672 75.6955L62.2722 75.8482ZM75.1198 81.1155V81.6422H75.8324L75.6245 80.9616L75.1198 81.1155ZM73.5138 75.8482L74.0185 75.6944L73.9048 75.3214H73.5147L73.5138 75.8482ZM59.7024 84.2758V83.7491H59.3123L59.1986 84.122L59.7024 84.2758ZM57.1733 92.5717L56.6685 92.4179L56.4607 93.0984H57.1733V92.5717ZM76.0833 84.2758L76.588 84.122L76.4743 83.7491H76.0842L76.0833 84.2758ZM78.6124 92.5717V93.0984H79.325L79.1172 92.4179L78.6124 92.5717ZM63.7396 72.8419L67.112 61.7809L66.1042 61.4733L62.7319 72.5343L63.7396 72.8419ZM72.55 72.1614H63.2357V73.2148L72.55 73.2145V72.1614ZM68.6737 61.7809L72.0461 72.8419L73.0538 72.5343L69.6815 61.4733L68.6737 61.7809ZM69.1785 61.1003H66.6081V62.1538H69.1776L69.1785 61.1003ZM61.1701 81.2693L62.7758 76.002L61.7681 75.6944L60.1623 80.9616L61.1701 81.2693ZM75.1195 80.5887H60.6662V81.6422H75.1198L75.1195 80.5887ZM73.0099 76.002L74.6156 81.2693L75.6234 80.9616L74.0176 75.6944L73.0099 76.002ZM62.2722 76.3749H73.5138V75.3226H62.2722V76.3749ZM59.1986 84.122L56.6694 92.4179L57.6772 92.7255L60.2063 84.4296L59.1986 84.122ZM76.083 83.7491H59.7024V84.8026H76.083V83.7491ZM79.116 92.419L76.5868 84.1232L75.5791 84.4308L78.1082 92.7267L79.116 92.419ZM57.1739 93.0996H78.613V92.0449H57.1733L57.1739 93.0996Z"/>
</mask>
<path d="M63.2357 72.6881L62.731 72.5343L62.5231 73.2148H63.2357V72.6881ZM66.6081 61.6271V61.1003H66.2179L66.1042 61.4733L66.6081 61.6271ZM72.55 72.6881V73.2145H73.2626L73.0547 72.534L72.55 72.6881ZM69.1776 61.6271L69.6824 61.4733L69.5675 61.1003H69.1776V61.6271ZM60.6662 81.1155L60.1615 80.9616L59.9536 81.6422H60.6662V81.1155ZM62.2722 75.8482V75.3226H61.8809L61.7672 75.6955L62.2722 75.8482ZM75.1198 81.1155V81.6422H75.8324L75.6245 80.9616L75.1198 81.1155ZM73.5138 75.8482L74.0185 75.6944L73.9048 75.3214H73.5147L73.5138 75.8482ZM59.7024 84.2758V83.7491H59.3123L59.1986 84.122L59.7024 84.2758ZM57.1733 92.5717L56.6685 92.4179L56.4607 93.0984H57.1733V92.5717ZM76.0833 84.2758L76.588 84.122L76.4743 83.7491H76.0842L76.0833 84.2758ZM78.6124 92.5717V93.0984H79.325L79.1172 92.4179L78.6124 92.5717ZM63.7396 72.8419L67.112 61.7809L66.1042 61.4733L62.7319 72.5343L63.7396 72.8419ZM72.55 72.1614H63.2357V73.2148L72.55 73.2145V72.1614ZM68.6737 61.7809L72.0461 72.8419L73.0538 72.5343L69.6815 61.4733L68.6737 61.7809ZM69.1785 61.1003H66.6081V62.1538H69.1776L69.1785 61.1003ZM61.1701 81.2693L62.7758 76.002L61.7681 75.6944L60.1623 80.9616L61.1701 81.2693ZM75.1195 80.5887H60.6662V81.6422H75.1198L75.1195 80.5887ZM73.0099 76.002L74.6156 81.2693L75.6234 80.9616L74.0176 75.6944L73.0099 76.002ZM62.2722 76.3749H73.5138V75.3226H62.2722V76.3749ZM59.1986 84.122L56.6694 92.4179L57.6772 92.7255L60.2063 84.4296L59.1986 84.122ZM76.083 83.7491H59.7024V84.8026H76.083V83.7491ZM79.116 92.419L76.5868 84.1232L75.5791 84.4308L78.1082 92.7267L79.116 92.419ZM57.1739 93.0996H78.613V92.0449H57.1733L57.1739 93.0996Z" fill="#5599D9"/>
<path d="M63.2357 72.6881H63.5326V72.4682L63.3223 72.4041L63.2357 72.6881ZM62.731 72.5343L62.8175 72.2503L62.5337 72.1638L62.447 72.4476L62.731 72.5343ZM62.5231 73.2148L62.2392 73.1281L62.122 73.5117H62.5231V73.2148ZM63.2357 73.2148V73.5117H63.2357L63.2357 73.2148ZM66.6081 61.6271L66.5214 61.9111L66.905 62.0281V61.6271H66.6081ZM66.2179 61.1003V60.8034H65.9981L65.9339 61.0137L66.2179 61.1003ZM66.1042 61.4733L65.8202 61.3867L65.8202 61.3867L66.1042 61.4733ZM72.55 72.6881L72.4633 72.4041L72.2531 72.4683V72.6881H72.55ZM73.2626 73.2145V73.5114H73.6637L73.5465 73.1278L73.2626 73.2145ZM73.0547 72.534L73.3387 72.4473L73.252 72.1633L72.968 72.25L73.0547 72.534ZM69.1776 61.6271H68.8807V62.0279L69.2642 61.9111L69.1776 61.6271ZM69.6824 61.4733L69.7689 61.7573L70.0538 61.6705L69.9661 61.3858L69.6824 61.4733ZM69.5675 61.1003L69.8512 61.0129L69.7867 60.8034H69.5675V61.1003ZM69.1776 61.1003V60.8034H68.8807V61.1003H69.1776ZM60.6662 81.1155H60.9631V80.8955L60.7528 80.8314L60.6662 81.1155ZM60.1615 80.9616L60.248 80.6776L59.9642 80.5911L59.8775 80.8749L60.1615 80.9616ZM59.9536 81.6422L59.6696 81.5555L59.5525 81.9391H59.9536V81.6422ZM62.2722 75.8482L62.1863 76.1324L62.5691 76.2481V75.8482H62.2722ZM61.8809 75.3226V75.0257H61.661L61.5969 75.236L61.8809 75.3226ZM61.7672 75.6955L61.4832 75.6089L61.3963 75.8937L61.6813 75.9798L61.7672 75.6955ZM75.1198 81.1155L75.0332 80.8314L74.8229 80.8955V81.1155H75.1198ZM75.8324 81.6422V81.9391H76.2335L76.1164 81.5555L75.8324 81.6422ZM75.6245 80.9616L75.9085 80.8749L75.8218 80.5911L75.538 80.6776L75.6245 80.9616ZM73.5138 75.8482L73.2169 75.8477L73.2162 76.2492L73.6003 76.1322L73.5138 75.8482ZM74.0185 75.6944L74.1051 75.9784L74.3892 75.8918L74.3025 75.6078L74.0185 75.6944ZM73.9048 75.3214L74.1888 75.2348L74.1247 75.0245H73.9048V75.3214ZM73.5147 75.3214V75.0245H73.2182L73.2177 75.3209L73.5147 75.3214ZM59.7024 84.2758L59.6157 84.5598L59.9993 84.6769V84.2758H59.7024ZM59.3123 83.7491V83.4522H59.0924L59.0283 83.6625L59.3123 83.7491ZM59.1986 84.122L58.9146 84.0354L58.9145 84.0354L59.1986 84.122ZM57.1733 92.5717H57.4702V92.3517L57.2598 92.2876L57.1733 92.5717ZM56.6685 92.4179L56.7551 92.1338L56.4712 92.0473L56.3846 92.3311L56.6685 92.4179ZM56.4607 93.0984L56.1767 93.0117L56.0596 93.3953H56.4607V93.0984ZM57.1733 93.0984V93.3953H57.4702V93.0984H57.1733ZM76.0833 84.2758L75.7864 84.2753L75.7857 84.6769L76.1698 84.5598L76.0833 84.2758ZM76.588 84.122L76.6746 84.406L76.9587 84.3195L76.872 84.0354L76.588 84.122ZM76.4743 83.7491L76.7583 83.6625L76.6942 83.4522H76.4743V83.7491ZM76.0842 83.7491V83.4522H75.7878L75.7873 83.7486L76.0842 83.7491ZM78.6124 92.5717L78.5259 92.2876L78.3155 92.3517V92.5717H78.6124ZM78.6124 93.0984H78.3155V93.3953H78.6124V93.0984ZM79.325 93.0984V93.3953H79.7261L79.609 93.0117L79.325 93.0984ZM79.1172 92.4179L79.4011 92.3311L79.3145 92.0473L79.0306 92.1338L79.1172 92.4179ZM63.7396 72.8419L63.6529 73.1259L63.937 73.2126L64.0236 72.9285L63.7396 72.8419ZM67.112 61.7809L67.396 61.8675L67.4825 61.5835L67.1986 61.4969L67.112 61.7809ZM62.7319 72.5343L62.4478 72.4477L62.3613 72.7316L62.6452 72.8183L62.7319 72.5343ZM72.55 72.1614H72.8469V71.8644H72.55V72.1614ZM63.2357 72.1614V71.8644H62.9388V72.1614H63.2357ZM68.6737 61.7809L68.5871 61.4969L68.3032 61.5835L68.3897 61.8675L68.6737 61.7809ZM72.0461 72.8419L71.7621 72.9285L71.8487 73.2126L72.1328 73.1259L72.0461 72.8419ZM73.0538 72.5343L73.1405 72.8183L73.4244 72.7316L73.3379 72.4477L73.0538 72.5343ZM69.6815 61.4733L69.9655 61.3867L69.8789 61.1026L69.5948 61.1893L69.6815 61.4733ZM69.1785 61.1003L69.4754 61.1006L69.4757 60.8034H69.1785V61.1003ZM66.6081 62.1538H66.3112V62.4507H66.6081V62.1538ZM69.1776 62.1538V62.4507H69.4743L69.4745 62.154L69.1776 62.1538ZM61.1701 81.2693L61.0834 81.5532L61.3675 81.6399L61.4541 81.3558L61.1701 81.2693ZM62.7758 76.002L63.0598 76.0885L63.1464 75.8046L62.8625 75.718L62.7758 76.002ZM61.7681 75.6944L61.8548 75.4104L61.5707 75.3237L61.4841 75.6078L61.7681 75.6944ZM60.1623 80.9616L59.8783 80.8751L59.7918 81.159L60.0757 81.2456L60.1623 80.9616ZM75.1195 80.5887L75.4164 80.5886L75.4163 80.2918H75.1195V80.5887ZM60.6662 80.5887V80.2918H60.3693V80.5887H60.6662ZM73.0099 76.002L72.9232 75.718L72.6393 75.8046L72.7259 76.0885L73.0099 76.002ZM74.6156 81.2693L74.3316 81.3558L74.4182 81.6399L74.7023 81.5532L74.6156 81.2693ZM75.6234 80.9616L75.71 81.2456L75.9939 81.159L75.9074 80.8751L75.6234 80.9616ZM74.0176 75.6944L74.3016 75.6078L74.215 75.3237L73.931 75.4104L74.0176 75.6944ZM62.2722 76.3749H61.9753V76.6718H62.2722V76.3749ZM73.5138 76.3749V76.6718H73.8107V76.3749H73.5138ZM73.5138 75.3226H73.8107V75.0257H73.5138V75.3226ZM56.6694 92.4179L56.3854 92.3313L56.2989 92.6152L56.5827 92.7018L56.6694 92.4179ZM57.6772 92.7255L57.5905 93.0094L57.8746 93.0962L57.9612 92.812L57.6772 92.7255ZM60.2063 84.4296L60.4903 84.5162L60.5769 84.2323L60.293 84.1457L60.2063 84.4296ZM76.083 83.7491H76.3799V83.4522H76.083V83.7491ZM59.7024 84.8026H59.4055V85.0995H59.7024V84.8026ZM76.083 84.8026V85.0995H76.3799V84.8026H76.083ZM79.116 92.419L79.2027 92.703L79.4865 92.6164L79.4 92.3325L79.116 92.419ZM76.5868 84.1232L76.8709 84.0366L76.7842 83.7525L76.5002 83.8392L76.5868 84.1232ZM75.5791 84.4308L75.4924 84.1468L75.2086 84.2335L75.2951 84.5174L75.5791 84.4308ZM78.1082 92.7267L77.8242 92.8132L77.9109 93.0973L78.1949 93.0106L78.1082 92.7267ZM57.1739 93.0996L56.877 93.0997L56.8771 93.3965H57.1739V93.0996ZM78.613 93.0996V93.3965H78.9099V93.0996H78.613ZM78.613 92.0449H78.9099V91.748H78.613V92.0449ZM57.1733 92.0449V91.748H56.8762L56.8764 92.0451L57.1733 92.0449ZM63.3223 72.4041L62.8175 72.2503L62.6444 72.8183L63.1492 72.9721L63.3223 72.4041ZM62.447 72.4476L62.2392 73.1281L62.8071 73.3015L63.0149 72.621L62.447 72.4476ZM62.5231 73.5117H63.2357V72.9179H62.5231V73.5117ZM63.5326 73.2148V72.6881H62.9388V73.2148H63.5326ZM66.905 61.6271V61.1003H66.3112V61.6271H66.905ZM66.6081 60.8034H66.2179V61.3973H66.6081V60.8034ZM65.9339 61.0137L65.8202 61.3867L66.3882 61.5599L66.502 61.1869L65.9339 61.0137ZM66.0175 61.7572L66.5214 61.9111L66.6948 61.3431L66.1909 61.1893L66.0175 61.7572ZM72.2531 72.6881V73.2145H72.8469V72.6881H72.2531ZM72.55 73.5114H73.2626V72.9176H72.55V73.5114ZM73.5465 73.1278L73.3387 72.4473L72.7708 72.6207L72.9786 73.3012L73.5465 73.1278ZM72.968 72.25L72.4633 72.4041L72.6367 72.9721L73.1414 72.818L72.968 72.25ZM69.2642 61.9111L69.7689 61.7573L69.5958 61.1892L69.0911 61.343L69.2642 61.9111ZM69.9661 61.3858L69.8512 61.0129L69.2837 61.1878L69.3986 61.5607L69.9661 61.3858ZM69.5675 60.8034H69.1776V61.3973H69.5675V60.8034ZM68.8807 61.1003V61.6271H69.4745V61.1003H68.8807ZM60.7528 80.8314L60.248 80.6776L60.0749 81.2457L60.5797 81.3995L60.7528 80.8314ZM59.8775 80.8749L59.6696 81.5555L60.2376 81.7289L60.4454 81.0484L59.8775 80.8749ZM59.9536 81.9391H60.6662V81.3453H59.9536V81.9391ZM60.9631 81.6422V81.1155H60.3693V81.6422H60.9631ZM62.5691 75.8482V75.3226H61.9753V75.8482H62.5691ZM62.2722 75.0257H61.8809V75.6195H62.2722V75.0257ZM61.5969 75.236L61.4832 75.6089L62.0512 75.7822L62.1649 75.4092L61.5969 75.236ZM61.6813 75.9798L62.1863 76.1324L62.3581 75.5639L61.8531 75.4113L61.6813 75.9798ZM74.8229 81.1155V81.6422H75.4167V81.1155H74.8229ZM75.1198 81.9391H75.8324V81.3453H75.1198V81.9391ZM76.1164 81.5555L75.9085 80.8749L75.3406 81.0484L75.5484 81.7289L76.1164 81.5555ZM75.538 80.6776L75.0332 80.8314L75.2063 81.3995L75.7111 81.2457L75.538 80.6776ZM73.6003 76.1322L74.1051 75.9784L73.932 75.4103L73.4272 75.5641L73.6003 76.1322ZM74.3025 75.6078L74.1888 75.2348L73.6208 75.408L73.7345 75.781L74.3025 75.6078ZM73.9048 75.0245H73.5147V75.6183H73.9048V75.0245ZM73.2177 75.3209L73.2169 75.8477L73.8107 75.8487L73.8116 75.3219L73.2177 75.3209ZM59.9993 84.2758V83.7491H59.4055V84.2758H59.9993ZM59.7024 83.4522H59.3123V84.046H59.7024V83.4522ZM59.0283 83.6625L58.9146 84.0354L59.4826 84.2086L59.5963 83.8357L59.0283 83.6625ZM59.1119 84.406L59.6157 84.5598L59.7891 83.9918L59.2852 83.838L59.1119 84.406ZM57.2598 92.2876L56.7551 92.1338L56.582 92.7019L57.0867 92.8557L57.2598 92.2876ZM56.3846 92.3311L56.1767 93.0117L56.7447 93.1851L56.9525 92.5046L56.3846 92.3311ZM56.4607 93.3953H57.1733V92.8015H56.4607V93.3953ZM57.4702 93.0984V92.5717H56.8764V93.0984H57.4702ZM76.1698 84.5598L76.6746 84.406L76.5015 83.838L75.9967 83.9918L76.1698 84.5598ZM76.872 84.0354L76.7583 83.6625L76.1903 83.8357L76.304 84.2086L76.872 84.0354ZM76.4743 83.4522H76.0842V84.046H76.4743V83.4522ZM75.7873 83.7486L75.7864 84.2753L76.3802 84.2763L76.3811 83.7496L75.7873 83.7486ZM78.3155 92.5717V93.0984H78.9093V92.5717H78.3155ZM78.6124 93.3953H79.325V92.8015H78.6124V93.3953ZM79.609 93.0117L79.4011 92.3311L78.8332 92.5046L79.041 93.1851L79.609 93.0117ZM79.0306 92.1338L78.5259 92.2876L78.699 92.8557L79.2037 92.7019L79.0306 92.1338ZM64.0236 72.9285L67.396 61.8675L66.828 61.6943L63.4556 72.7553L64.0236 72.9285ZM67.1986 61.4969L66.1909 61.1893L66.0175 61.7572L67.0253 62.0649L67.1986 61.4969ZM65.8202 61.3867L62.4478 72.4477L63.0159 72.6209L66.3882 61.5599L65.8202 61.3867ZM62.6452 72.8183L63.6529 73.1259L63.8263 72.5579L62.8185 72.2503L62.6452 72.8183ZM72.55 71.8644H63.2357V72.4583H72.55V71.8644ZM62.9388 72.1614V73.2148H63.5326V72.1614H62.9388ZM63.2357 73.5117L72.55 73.5114L72.55 72.9176L63.2357 72.9179L63.2357 73.5117ZM72.8469 73.2145V72.1614H72.2531V73.2145H72.8469ZM68.3897 61.8675L71.7621 72.9285L72.3301 72.7553L68.9577 61.6943L68.3897 61.8675ZM72.1328 73.1259L73.1405 72.8183L72.9672 72.2503L71.9594 72.5579L72.1328 73.1259ZM73.3379 72.4477L69.9655 61.3867L69.3975 61.5599L72.7698 72.6209L73.3379 72.4477ZM69.5948 61.1893L68.5871 61.4969L68.7604 62.0649L69.7682 61.7572L69.5948 61.1893ZM69.1785 60.8034H66.6081V61.3973H69.1785V60.8034ZM66.3112 61.1003V62.1538H66.905V61.1003H66.3112ZM66.6081 62.4507H69.1776V61.8569H66.6081V62.4507ZM69.4745 62.154L69.4754 61.1006L68.8816 61.1001L68.8807 62.1535L69.4745 62.154ZM61.4541 81.3558L63.0598 76.0885L62.4918 75.9154L60.8861 81.1827L61.4541 81.3558ZM62.8625 75.718L61.8548 75.4104L61.6814 75.9783L62.6891 76.2859L62.8625 75.718ZM61.4841 75.6078L59.8783 80.8751L60.4464 81.0482L62.0521 75.7809L61.4841 75.6078ZM60.0757 81.2456L61.0834 81.5532L61.2568 80.9853L60.249 80.6777L60.0757 81.2456ZM75.1195 80.2918H60.6662V80.8856H75.1195V80.2918ZM60.3693 80.5887V81.6422H60.9631V80.5887H60.3693ZM60.6662 81.9391H75.1198V81.3453H60.6662V81.9391ZM75.4167 81.6421L75.4164 80.5886L74.8226 80.5888L74.8229 81.6423L75.4167 81.6421ZM72.7259 76.0885L74.3316 81.3558L74.8996 81.1827L73.2939 75.9154L72.7259 76.0885ZM74.7023 81.5532L75.71 81.2456L75.5367 80.6777L74.5289 80.9853L74.7023 81.5532ZM75.9074 80.8751L74.3016 75.6078L73.7336 75.7809L75.3393 81.0482L75.9074 80.8751ZM73.931 75.4104L72.9232 75.718L73.0966 76.2859L74.1043 75.9783L73.931 75.4104ZM62.2722 76.6718H73.5138V76.078H62.2722V76.6718ZM73.8107 76.3749V75.3226H73.2169V76.3749H73.8107ZM73.5138 75.0257H62.2722V75.6195H73.5138V75.0257ZM61.9753 75.3226V76.3749H62.5691V75.3226H61.9753ZM58.9145 84.0354L56.3854 92.3313L56.9534 92.5044L59.4826 84.2086L58.9145 84.0354ZM56.5827 92.7018L57.5905 93.0094L57.7638 92.4415L56.7561 92.1339L56.5827 92.7018ZM57.9612 92.812L60.4903 84.5162L59.9223 84.343L57.3931 92.6389L57.9612 92.812ZM60.293 84.1457L59.2852 83.838L59.1119 84.406L60.1196 84.7136L60.293 84.1457ZM76.083 83.4522H59.7024V84.046H76.083V83.4522ZM59.4055 83.7491V84.8026H59.9993V83.7491H59.4055ZM59.7024 85.0995H76.083V84.5056H59.7024V85.0995ZM76.3799 84.8026V83.7491H75.7861V84.8026H76.3799ZM79.4 92.3325L76.8709 84.0366L76.3028 84.2098L78.832 92.5056L79.4 92.3325ZM76.5002 83.8392L75.4924 84.1468L75.6658 84.7148L76.6735 84.4072L76.5002 83.8392ZM75.2951 84.5174L77.8242 92.8132L78.3923 92.6401L75.8631 84.3442L75.2951 84.5174ZM78.1949 93.0106L79.2027 92.703L79.0293 92.1351L78.0216 92.4427L78.1949 93.0106ZM57.1739 93.3965H78.613V92.8027H57.1739V93.3965ZM78.9099 93.0996V92.0449H78.3161V93.0996H78.9099ZM78.613 91.748H57.1733V92.3418H78.613V91.748ZM56.8764 92.0451L56.877 93.0997L57.4708 93.0994L57.4702 92.0448L56.8764 92.0451Z" fill="#5599D9" mask="url(#path-17-inside-2_2861_28208)"/>
<path d="M67.0122 17.7466L79.0283 5.16823H96.8804L109.461 17.7483V35.2224L96.8818 47.3882H79.0269L67.0122 35.2244V17.7466Z" fill="#E6F0FF" stroke="#E6F0FF" stroke-width="0.296916"/>
<path d="M88.3586 35.6118C88.3586 36.1099 87.9548 36.5138 87.4566 36.5138C86.9584 36.5138 86.5546 36.1099 86.5546 35.6118C86.5546 35.1136 86.9584 34.7097 87.4566 34.7097C87.9548 34.7097 88.3586 35.1136 88.3586 35.6118Z" fill="#5599D9" stroke="#5599D9" stroke-width="0.296916"/>
<path d="M87.4566 18.4251H87.4569C87.9551 18.4251 88.3589 18.8289 88.3589 19.3271V31.4095C88.3589 31.9077 87.9551 32.3115 87.4569 32.3115H87.4566C86.9584 32.3115 86.5546 31.9077 86.5546 31.4095V19.3271C86.5546 18.8289 86.9584 18.4251 87.4566 18.4251Z" fill="#5599D9" stroke="#5599D9" stroke-width="0.296916"/>
<path d="M90 53V97H86V53" fill="#E6F0FF"/>
<path d="M90 53V97H86V53" stroke="#A2C7EB" stroke-width="0.593832"/>
</svg>
