<svg width="14" height="14" viewBox="0 0 14 14" fill="none" xmlns="http://www.w3.org/2000/svg">
<path d="M13.3541 3.6242L10.3748 0.645515C10.2757 0.54644 10.1581 0.467847 10.0287 0.414227C9.89925 0.360606 9.76053 0.333008 9.62043 0.333008C9.48033 0.333008 9.3416 0.360606 9.21217 0.414227C9.08274 0.467847 8.96514 0.54644 8.86609 0.645515L0.645369 8.86624C0.545888 8.96493 0.467017 9.08241 0.41334 9.21185C0.359664 9.34129 0.332253 9.48011 0.3327 9.62024V12.5996C0.3327 12.8825 0.445082 13.1538 0.645122 13.3538C0.845162 13.5539 1.11647 13.6663 1.39937 13.6663H12.5994C12.7409 13.6663 12.8766 13.6101 12.9766 13.5101C13.0766 13.41 13.1328 13.2744 13.1328 13.1329C13.1328 12.9915 13.0766 12.8558 12.9766 12.7558C12.8766 12.6558 12.7409 12.5996 12.5994 12.5996H5.8874L13.3541 5.13288C13.4532 5.03383 13.5318 4.91623 13.5854 4.78679C13.639 4.65736 13.6666 4.51864 13.6666 4.37854C13.6666 4.23844 13.639 4.09972 13.5854 3.97029C13.5318 3.84085 13.4532 3.72325 13.3541 3.6242ZM4.37873 12.5996H1.39937V9.62024L7.26608 3.75354L10.2454 6.73289L4.37873 12.5996ZM10.9994 5.97888L8.02075 2.99953L9.62076 1.39952L12.5994 4.37887L10.9994 5.97888Z" fill="#BAC1CA"/>
</svg>
