<svg width="128" height="104" viewBox="0 0 128 104" fill="none" xmlns="http://www.w3.org/2000/svg">
<path fill-rule="evenodd" clip-rule="evenodd" d="M105.898 34.2734C107.864 34.2734 109.458 35.8828 109.458 37.868C109.458 39.8533 107.864 41.4626 105.898 41.4626H85.5594C87.5252 41.4626 89.1187 43.072 89.1187 45.0572C89.1187 47.0425 87.5252 48.6518 85.5594 48.6518H96.7459C98.7116 48.6518 100.305 50.2612 100.305 52.2464C100.305 54.2317 98.7116 55.841 96.7459 55.841H91.5727C89.0941 55.841 87.0848 57.4504 87.0848 59.4356C87.0848 60.7591 88.1018 61.9573 90.1357 63.0302C92.1015 63.0302 93.695 64.6396 93.695 66.6248C93.695 68.61 92.1015 70.2194 90.1357 70.2194H47.9323C45.9665 70.2194 44.373 68.61 44.373 66.6248C44.373 64.6396 45.9665 63.0302 47.9323 63.0302H28.1018C26.136 63.0302 24.5425 61.4208 24.5425 59.4356C24.5425 57.4504 26.136 55.841 28.1018 55.841H48.4408C50.4065 55.841 52.0001 54.2317 52.0001 52.2464C52.0001 50.2612 50.4065 48.6518 48.4408 48.6518H35.7289C33.7632 48.6518 32.1696 47.0425 32.1696 45.0572C32.1696 43.072 33.7632 41.4626 35.7289 41.4626H56.0679C54.1021 41.4626 52.5086 39.8533 52.5086 37.868C52.5086 35.8828 54.1021 34.2734 56.0679 34.2734H105.898ZM105.898 48.6518C107.864 48.6518 109.458 50.2612 109.458 52.2464C109.458 54.2317 107.864 55.841 105.898 55.841C103.933 55.841 102.339 54.2317 102.339 52.2464C102.339 50.2612 103.933 48.6518 105.898 48.6518Z" fill="#F4F7FA"/>
<path fill-rule="evenodd" clip-rule="evenodd" d="M78.8227 33.761L83.5178 68.5673L83.9392 72.0593C84.075 73.1843 83.2801 74.2093 82.1638 74.3488L52.3512 78.0733C51.2349 78.2127 50.22 77.4138 50.0842 76.2889L45.538 38.6167C45.4701 38.0542 45.8675 37.5417 46.4257 37.472C46.4292 37.4715 46.4327 37.4711 46.4363 37.4707L48.9096 37.1882M50.903 36.9261L53.2361 36.6597L50.903 36.9261Z" fill="white"/>
<path d="M79.4597 33.6735C79.4123 33.3216 79.0886 33.0755 78.7367 33.1238C78.3849 33.1721 78.1381 33.4966 78.1856 33.8485L79.4597 33.6735ZM83.5178 68.5673L84.1561 68.4888L84.1549 68.4799L83.5178 68.5673ZM83.9392 72.0593L84.5774 71.9808L83.9392 72.0593ZM82.1638 74.3488L82.0856 73.7105L82.1638 74.3488ZM52.3512 78.0733L52.4294 78.7116L52.3512 78.0733ZM50.0842 76.2889L50.7224 76.2103L50.0842 76.2889ZM45.538 38.6167L44.8998 38.6953L45.538 38.6167ZM46.4363 37.4707L46.3648 36.8316L46.4363 37.4707ZM48.981 37.8272C49.3339 37.7869 49.5879 37.4681 49.5485 37.1152C49.509 36.7622 49.191 36.5088 48.8381 36.5491L48.981 37.8272ZM50.8316 36.2871C50.4788 36.3273 50.2247 36.6461 50.2642 36.9991C50.3036 37.352 50.6216 37.6055 50.9745 37.5652L50.8316 36.2871ZM53.3076 37.2988C53.6604 37.2585 53.9145 36.9398 53.875 36.5868C53.8356 36.2339 53.5176 35.9804 53.1647 36.0207L53.3076 37.2988ZM78.1856 33.8485L82.8807 68.6548L84.1549 68.4799L79.4597 33.6735L78.1856 33.8485ZM82.8796 68.6459L83.301 72.1379L84.5774 71.9808L84.156 68.4888L82.8796 68.6459ZM83.301 72.1379C83.3948 72.9151 82.8456 73.6156 82.0856 73.7105L82.242 74.987C83.7146 74.8031 84.7552 73.4535 84.5774 71.9808L83.301 72.1379ZM82.0856 73.7105L52.273 77.435L52.4294 78.7116L82.242 74.987L82.0856 73.7105ZM52.273 77.435C51.514 77.5299 50.8161 76.9866 50.7224 76.2103L49.446 76.3674C49.6238 77.8411 50.9559 78.8956 52.4294 78.7116L52.273 77.435ZM50.7224 76.2103L46.1762 38.5381L44.8998 38.6953L49.446 76.3674L50.7224 76.2103ZM46.1762 38.5381C46.1503 38.3234 46.302 38.1355 46.5039 38.1102L46.3475 36.8337C45.4331 36.9479 44.7899 37.785 44.8998 38.6953L46.1762 38.5381ZM46.5039 38.1102C46.5051 38.1101 46.5064 38.1099 46.5077 38.1098L46.3648 36.8316C46.359 36.8323 46.3532 36.833 46.3475 36.8337L46.5039 38.1102ZM46.5077 38.1098L48.981 37.8272L48.8381 36.5491L46.3648 36.8316L46.5077 38.1098ZM50.9745 37.5652L53.3076 37.2988L53.1647 36.0207L50.8316 36.2871L50.9745 37.5652ZM53.1647 36.0207L50.8316 36.2871L50.9745 37.5652L53.3076 37.2988L53.1647 36.0207Z" fill="#5599D9"/>
<path fill-rule="evenodd" clip-rule="evenodd" d="M77.4949 35.9533L81.776 67.526L82.1611 70.6935C82.2852 71.7139 81.5764 72.6414 80.5779 72.7653L53.9125 76.0718C52.9141 76.1956 52.0041 75.4688 51.8801 74.4484L47.7362 40.3651C47.6677 39.801 48.0692 39.2871 48.6331 39.2171L51.9202 38.8095" fill="#E6F0FF"/>
<path d="M55.5273 28.628C55.5273 27.8467 56.1607 27.2134 56.942 27.2134H80.0668C80.4443 27.2134 80.8061 27.3642 81.0718 27.6323L87.8993 34.5233C88.1618 34.7882 88.309 35.146 88.309 35.519V67.6477C88.309 68.429 87.6757 69.0624 86.8943 69.0624H56.942C56.1607 69.0624 55.5273 68.429 55.5273 67.6477V28.628Z" fill="white" stroke="#5599D9" stroke-width="1.28608"/>
<path d="M80.3076 27.8125V33.7678C80.3076 34.6186 80.9906 35.3083 81.833 35.3083H85.8671" stroke="#5599D9" stroke-width="1.28608" stroke-linecap="round" stroke-linejoin="round"/>
<path d="M60.644 61.5017H73.8644M60.644 35.3125H73.8644H60.644ZM60.644 41.4747H82.5085H60.644ZM60.644 48.1503H82.5085H60.644ZM60.644 54.826H82.5085H60.644Z" stroke="#A2C7EB" stroke-width="1.28608" stroke-linecap="round" stroke-linejoin="round"/>
</svg>
