<svg width="161" height="132" viewBox="0 0 161 132" fill="none" xmlns="http://www.w3.org/2000/svg">
<path d="M54.4963 23.1016V27.008" stroke="#BAC1CA" stroke-width="0.90847" stroke-linecap="round" stroke-linejoin="round"/>
<path d="M52.5339 25.0547H56.4494" stroke="#BAC1CA" stroke-width="0.90847" stroke-linecap="round" stroke-linejoin="round"/>
<path d="M98.9659 47.7416C91.362 47.7416 83.6219 47.4327 76.3814 45.4159C69.2771 43.4445 62.7543 39.6198 56.9401 35.1956C53.1336 32.3157 49.6723 30.0173 44.7303 30.3625C39.8954 30.6242 35.272 32.4296 31.5393 35.5136C25.2526 41.0189 26.1975 51.221 28.7139 58.3616C32.4932 69.1451 43.9944 76.6582 53.7695 81.5185C65.0618 87.1601 77.4715 90.4397 89.9085 92.3202C100.81 93.9827 114.819 95.1819 124.267 88.0686C132.943 81.5185 135.323 66.5832 133.197 56.4992C132.681 53.5202 131.095 50.8323 128.737 48.9408C122.641 44.4802 113.547 47.4599 106.697 47.6053C104.153 47.6598 101.564 47.7234 98.9659 47.7416Z" fill="#F4F7FA"/>
<path d="M87.1013 16.8903C87.1013 17.1311 86.906 17.3264 86.6652 17.3264C86.4244 17.3264 86.2291 17.1311 86.2291 16.8903C86.2291 16.6495 86.4244 16.4542 86.6652 16.4542C86.906 16.4542 87.1013 16.6495 87.1013 16.8903Z" stroke="#BAC1CA" stroke-width="0.90847"/>
<path d="M40.406 87.1055V91.0119" stroke="#BAC1CA" stroke-width="0.90847" stroke-linecap="round" stroke-linejoin="round"/>
<path d="M38.4529 89.0586H42.3593" stroke="#BAC1CA" stroke-width="0.90847" stroke-linecap="round" stroke-linejoin="round"/>
<path d="M123.385 16.8906V20.8061" stroke="#BAC1CA" stroke-width="0.90847" stroke-linecap="round" stroke-linejoin="round"/>
<path d="M80.7966 89.2419C80.7966 89.4827 80.6014 89.6779 80.3605 89.6779C80.1197 89.6779 79.9245 89.4827 79.9245 89.2419C79.9245 89.001 80.1197 88.8058 80.3605 88.8058C80.6014 88.8058 80.7966 89.001 80.7966 89.2419Z" stroke="#BAC1CA" stroke-width="0.90847"/>
<path d="M121.424 18.8555H125.339" stroke="#BAC1CA" stroke-width="0.90847" stroke-linecap="round" stroke-linejoin="round"/>
<path d="M80.7237 109.997C99.1424 109.997 114.074 109.065 114.074 107.916C114.074 106.767 99.1424 105.836 80.7237 105.836C62.3051 105.836 47.3738 106.767 47.3738 107.916C47.3738 109.065 62.3051 109.997 80.7237 109.997Z" fill="#E3E7EE"/>
<path d="M107.532 85.6338H49.9263C49.5408 85.6335 49.1599 85.5495 48.8101 85.3875C48.4602 85.2256 48.1497 84.9896 47.9 84.6959C47.6504 84.4021 47.4675 84.0577 47.364 83.6863C47.2605 83.3149 47.239 82.9255 47.3008 82.545L54.6685 37.8664C54.7681 37.2446 55.0863 36.6787 55.566 36.2707C56.0456 35.8626 56.6552 35.6392 57.2849 35.6406H114.891C115.276 35.6407 115.657 35.7246 116.006 35.8866C116.356 36.0486 116.666 36.2848 116.915 36.5788C117.164 36.8727 117.346 37.2174 117.448 37.5888C117.551 37.9602 117.571 38.3494 117.507 38.7294L110.176 83.408C110.074 84.0337 109.751 84.6021 109.266 85.0104C108.781 85.4187 108.166 85.6399 107.532 85.6338Z" fill="#BAC1CA"/>
<path d="M108.243 34.4724L74.0489 19.2055C73.041 18.7554 71.8591 19.2077 71.409 20.2156L60.5718 44.488C60.1218 45.4959 60.5741 46.6778 61.582 47.1278L95.7757 62.3948C96.7836 62.8448 97.9655 62.3925 98.4155 61.3846L109.253 37.1122C109.703 36.1043 109.25 34.9224 108.243 34.4724Z" fill="#F4F7FA" stroke="#BAC1CA" stroke-width="0.90847" stroke-linecap="round" stroke-linejoin="round"/>
<path d="M79.0613 39.1726C79.9613 37.9097 81.2703 36.9968 82.7665 36.5886C84.2626 36.1804 85.8538 36.3021 87.2706 36.9329C88.6873 37.5637 89.8423 38.665 90.54 40.05C91.2376 41.435 91.4349 43.0187 91.0985 44.5326" stroke="#BAC1CA" stroke-width="0.61776" stroke-linecap="round" stroke-linejoin="round"/>
<path d="M95.895 36.8693C95.895 37.1352 95.6794 37.3508 95.4135 37.3508C95.1476 37.3508 94.932 37.1352 94.932 36.8693C94.932 36.6034 95.1476 36.3878 95.4135 36.3878C95.6794 36.3878 95.895 36.6034 95.895 36.8693Z" stroke="#BAC1CA" stroke-width="0.90847"/>
<path d="M82.3408 30.8185C82.3408 31.0845 82.1252 31.3 81.8593 31.3C81.5934 31.3 81.3778 31.0845 81.3778 30.8185C81.3778 30.5526 81.5934 30.337 81.8593 30.337C82.1252 30.337 82.3408 30.5526 82.3408 30.8185Z" stroke="#BAC1CA" stroke-width="0.90847"/>
<path d="M107.278 85.615H49.3906C48.6862 85.6126 48.0115 85.3311 47.5142 84.8321C47.017 84.3332 46.7378 83.6575 46.7378 82.9531V42.1356C46.7294 41.7815 46.7917 41.4292 46.9211 41.0995C47.0505 40.7698 47.2444 40.4692 47.4914 40.2154C47.7385 39.9616 48.0337 39.7596 48.3598 39.6213C48.6859 39.4831 49.0364 39.4113 49.3906 39.4102H70.4762C70.9654 39.412 71.4447 39.5486 71.8614 39.805C72.2781 40.0614 72.6161 40.4277 72.8382 40.8637L75.8452 46.7506C76.0665 47.1872 76.4043 47.5541 76.8211 47.8106C77.238 48.0672 77.7177 48.2034 78.2072 48.2042H107.278C107.982 48.2042 108.657 48.4836 109.154 48.9811C109.652 49.4786 109.931 50.1533 109.931 50.8569V82.9531C109.931 83.6575 109.652 84.3332 109.155 84.8321C108.657 85.3311 107.983 85.6126 107.278 85.615Z" fill="#F4F7FA" stroke="#BAC1CA" stroke-width="0.90847" stroke-linecap="round" stroke-linejoin="round"/>
<path d="M98.3662 49.5977C95.022 49.5959 91.7523 50.5859 88.9709 52.4425C86.1894 54.2992 84.021 56.939 82.74 60.0281C81.459 63.1172 81.1229 66.5169 81.7742 69.797C82.4255 73.0772 84.035 76.0905 86.3991 78.4559C88.7631 80.8212 91.7756 82.4323 95.0554 83.0854C98.3352 83.7385 101.735 83.4042 104.825 82.1249C107.915 80.8455 110.556 78.6785 112.414 75.8981C114.272 73.1176 115.264 69.8485 115.264 66.5043C115.264 62.0219 113.484 57.7231 110.315 54.5527C107.146 51.3824 102.849 49.6001 98.3662 49.5977Z" fill="#F4F7FA" stroke="#BAC1CA" stroke-width="0.90847" stroke-linecap="round" stroke-linejoin="round"/>
<path d="M110.394 78.7656L114.9 83.2716" stroke="#BAC1CA" stroke-width="0.90847" stroke-linecap="round" stroke-linejoin="round"/>
<path d="M114.391 81.0814L112.991 82.5458C112.363 83.2022 112.387 84.2431 113.043 84.8706L125.192 96.4842C125.848 97.1117 126.889 97.0883 127.517 96.4318L128.917 94.9674C129.544 94.311 129.521 93.2701 128.864 92.6426L116.716 81.029C116.059 80.4015 115.018 80.4249 114.391 81.0814Z" fill="#BAC1CA"/>
<path d="M30.2076 128V119.06H31.1916L36.3276 126.284L35.8836 126.332V119.06H37.0716V128H36.0876L30.9756 120.728L31.3836 120.68V128H30.2076ZM42.127 128.144C41.503 128.144 40.939 128 40.435 127.712C39.931 127.416 39.531 127.012 39.235 126.5C38.939 125.988 38.791 125.408 38.791 124.76C38.791 124.112 38.935 123.536 39.223 123.032C39.519 122.528 39.919 122.128 40.423 121.832C40.927 121.536 41.495 121.388 42.127 121.388C42.751 121.388 43.315 121.536 43.819 121.832C44.323 122.12 44.719 122.516 45.007 123.02C45.303 123.524 45.451 124.104 45.451 124.76C45.451 125.416 45.299 126 44.995 126.512C44.691 127.016 44.287 127.416 43.783 127.712C43.287 128 42.735 128.144 42.127 128.144ZM42.127 127.064C42.527 127.064 42.887 126.964 43.207 126.764C43.535 126.564 43.791 126.288 43.975 125.936C44.167 125.584 44.263 125.192 44.263 124.76C44.263 124.32 44.167 123.932 43.975 123.596C43.791 123.252 43.535 122.98 43.207 122.78C42.887 122.572 42.527 122.468 42.127 122.468C41.719 122.468 41.351 122.572 41.023 122.78C40.703 122.98 40.447 123.252 40.255 123.596C40.063 123.932 39.967 124.32 39.967 124.76C39.967 125.192 40.063 125.584 40.255 125.936C40.447 126.288 40.703 126.564 41.023 126.764C41.351 126.964 41.719 127.064 42.127 127.064ZM49.9048 128V122.6H48.6688V121.532H49.9048V121.076C49.9048 120.612 50.0048 120.22 50.2048 119.9C50.4128 119.58 50.6848 119.336 51.0208 119.168C51.3648 119 51.7448 118.916 52.1608 118.916C52.2488 118.916 52.3448 118.924 52.4488 118.94C52.5608 118.948 52.6528 118.96 52.7248 118.976V119.972C52.6608 119.956 52.5848 119.948 52.4968 119.948C52.4088 119.94 52.3408 119.936 52.2928 119.936C51.9248 119.936 51.6208 120.024 51.3808 120.2C51.1488 120.376 51.0328 120.668 51.0328 121.076V121.532H54.3928V122.6H51.0328V128H49.9048ZM53.6968 128V121.532H54.8248V128H53.6968ZM56.4892 128V118.916H57.6052V128H56.4892ZM62.4328 128.144C61.8088 128.144 61.2528 127.996 60.7648 127.7C60.2768 127.404 59.8928 127 59.6128 126.488C59.3328 125.968 59.1928 125.388 59.1928 124.748C59.1928 124.1 59.3288 123.524 59.6008 123.02C59.8808 122.516 60.2568 122.12 60.7288 121.832C61.2088 121.536 61.7448 121.388 62.3368 121.388C62.8168 121.388 63.2408 121.476 63.6088 121.652C63.9848 121.82 64.3008 122.052 64.5568 122.348C64.8208 122.636 65.0208 122.968 65.1568 123.344C65.3008 123.712 65.3728 124.096 65.3728 124.496C65.3728 124.584 65.3648 124.684 65.3488 124.796C65.3408 124.9 65.3288 125 65.3128 125.096H60.0088V124.136H64.6648L64.1368 124.568C64.2088 124.152 64.1688 123.78 64.0168 123.452C63.8648 123.124 63.6408 122.864 63.3448 122.672C63.0488 122.48 62.7128 122.384 62.3368 122.384C61.9608 122.384 61.6168 122.48 61.3048 122.672C60.9928 122.864 60.7488 123.14 60.5728 123.5C60.4048 123.852 60.3368 124.272 60.3688 124.76C60.3368 125.232 60.4088 125.648 60.5848 126.008C60.7688 126.36 61.0248 126.636 61.3528 126.836C61.6888 127.028 62.0528 127.124 62.4448 127.124C62.8768 127.124 63.2408 127.024 63.5368 126.824C63.8328 126.624 64.0728 126.368 64.2568 126.056L65.1928 126.536C65.0648 126.832 64.8648 127.104 64.5928 127.352C64.3288 127.592 64.0128 127.784 63.6448 127.928C63.2848 128.072 62.8808 128.144 62.4328 128.144ZM69.2639 128.144C68.6159 128.144 68.0519 127.984 67.5719 127.664C67.0919 127.344 66.7519 126.912 66.5519 126.368L67.4399 125.936C67.6239 126.32 67.8759 126.624 68.1959 126.848C68.5159 127.072 68.8719 127.184 69.2639 127.184C69.6159 127.184 69.9079 127.1 70.1399 126.932C70.3719 126.764 70.4879 126.544 70.4879 126.272C70.4879 126.08 70.4319 125.928 70.3199 125.816C70.2159 125.696 70.0879 125.604 69.9359 125.54C69.7839 125.468 69.6439 125.416 69.5159 125.384L68.5439 125.108C67.9599 124.94 67.5319 124.7 67.2599 124.388C66.9959 124.076 66.8639 123.712 66.8639 123.296C66.8639 122.912 66.9599 122.58 67.1519 122.3C67.3519 122.012 67.6199 121.788 67.9559 121.628C68.2999 121.468 68.6839 121.388 69.1079 121.388C69.6759 121.388 70.1839 121.532 70.6319 121.82C71.0879 122.108 71.4119 122.512 71.6039 123.032L70.6919 123.452C70.5479 123.116 70.3319 122.852 70.0439 122.66C69.7559 122.46 69.4319 122.36 69.0719 122.36C68.7439 122.36 68.4839 122.444 68.2919 122.612C68.0999 122.772 68.0039 122.976 68.0039 123.224C68.0039 123.408 68.0519 123.56 68.1479 123.68C68.2439 123.792 68.3599 123.88 68.4959 123.944C68.6319 124 68.7639 124.048 68.8919 124.088L69.9479 124.4C70.4759 124.552 70.8839 124.788 71.1719 125.108C71.4679 125.428 71.6159 125.812 71.6159 126.26C71.6159 126.62 71.5159 126.944 71.3159 127.232C71.1159 127.52 70.8399 127.744 70.4879 127.904C70.1359 128.064 69.7279 128.144 69.2639 128.144ZM77.6831 128.144C77.2191 128.144 76.7991 128.036 76.4231 127.82C76.0551 127.604 75.7671 127.304 75.5591 126.92C75.3591 126.528 75.2591 126.08 75.2591 125.576V121.532H76.3751V125.456C76.3751 125.776 76.4391 126.056 76.5671 126.296C76.7031 126.536 76.8871 126.724 77.1191 126.86C77.3591 126.996 77.6311 127.064 77.9351 127.064C78.2391 127.064 78.5071 126.996 78.7391 126.86C78.9791 126.724 79.1631 126.528 79.2911 126.272C79.4271 126.016 79.4951 125.712 79.4951 125.36V121.532H80.6231V128H79.5311V126.74L79.7111 126.848C79.5591 127.256 79.2991 127.576 78.9311 127.808C78.5711 128.032 78.1551 128.144 77.6831 128.144ZM82.472 130.4V121.532H83.564V122.924L83.42 122.648C83.66 122.264 83.988 121.96 84.404 121.736C84.82 121.504 85.296 121.388 85.832 121.388C86.44 121.388 86.984 121.536 87.464 121.832C87.952 122.128 88.336 122.532 88.616 123.044C88.896 123.548 89.036 124.124 89.036 124.772C89.036 125.404 88.896 125.976 88.616 126.488C88.336 127 87.952 127.404 87.464 127.7C86.984 127.996 86.436 128.144 85.82 128.144C85.3 128.144 84.824 128.028 84.392 127.796C83.968 127.564 83.64 127.236 83.408 126.812L83.588 126.62V130.4H82.472ZM85.736 127.064C86.144 127.064 86.508 126.964 86.828 126.764C87.148 126.564 87.396 126.292 87.572 125.948C87.756 125.596 87.848 125.204 87.848 124.772C87.848 124.324 87.756 123.932 87.572 123.596C87.396 123.252 87.148 122.98 86.828 122.78C86.508 122.572 86.144 122.468 85.736 122.468C85.328 122.468 84.96 122.568 84.632 122.768C84.312 122.968 84.056 123.244 83.864 123.596C83.68 123.94 83.588 124.332 83.588 124.772C83.588 125.204 83.68 125.596 83.864 125.948C84.056 126.292 84.312 126.564 84.632 126.764C84.96 126.964 85.328 127.064 85.736 127.064ZM90.6193 128V118.916H91.7353V128H90.6193ZM96.659 128.144C96.035 128.144 95.471 128 94.967 127.712C94.463 127.416 94.063 127.012 93.767 126.5C93.471 125.988 93.323 125.408 93.323 124.76C93.323 124.112 93.467 123.536 93.755 123.032C94.051 122.528 94.451 122.128 94.955 121.832C95.459 121.536 96.027 121.388 96.659 121.388C97.283 121.388 97.847 121.536 98.351 121.832C98.855 122.12 99.251 122.516 99.539 123.02C99.835 123.524 99.983 124.104 99.983 124.76C99.983 125.416 99.831 126 99.527 126.512C99.223 127.016 98.819 127.416 98.315 127.712C97.819 128 97.267 128.144 96.659 128.144ZM96.659 127.064C97.059 127.064 97.419 126.964 97.739 126.764C98.067 126.564 98.323 126.288 98.507 125.936C98.699 125.584 98.795 125.192 98.795 124.76C98.795 124.32 98.699 123.932 98.507 123.596C98.323 123.252 98.067 122.98 97.739 122.78C97.419 122.572 97.059 122.468 96.659 122.468C96.251 122.468 95.883 122.572 95.555 122.78C95.235 122.98 94.979 123.252 94.787 123.596C94.595 123.932 94.499 124.32 94.499 124.76C94.499 125.192 94.595 125.584 94.787 125.936C94.979 126.288 95.235 126.564 95.555 126.764C95.883 126.964 96.251 127.064 96.659 127.064ZM103.455 128.144C103.031 128.144 102.655 128.068 102.327 127.916C102.007 127.756 101.755 127.54 101.571 127.268C101.387 126.988 101.295 126.668 101.295 126.308C101.295 125.964 101.367 125.656 101.511 125.384C101.663 125.104 101.895 124.868 102.207 124.676C102.527 124.484 102.927 124.348 103.407 124.268L105.807 123.872V124.808L103.659 125.168C103.243 125.24 102.939 125.372 102.747 125.564C102.563 125.756 102.471 125.992 102.471 126.272C102.471 126.536 102.575 126.756 102.783 126.932C102.999 127.108 103.267 127.196 103.587 127.196C103.995 127.196 104.347 127.112 104.643 126.944C104.947 126.768 105.183 126.532 105.351 126.236C105.527 125.94 105.615 125.612 105.615 125.252V123.608C105.615 123.256 105.483 122.972 105.219 122.756C104.963 122.532 104.623 122.42 104.199 122.42C103.831 122.42 103.503 122.516 103.215 122.708C102.935 122.892 102.727 123.14 102.591 123.452L101.619 122.948C101.739 122.652 101.931 122.388 102.195 122.156C102.459 121.916 102.767 121.728 103.119 121.592C103.471 121.456 103.839 121.388 104.223 121.388C104.719 121.388 105.155 121.484 105.531 121.676C105.907 121.86 106.199 122.12 106.407 122.456C106.623 122.784 106.731 123.168 106.731 123.608V128H105.639V126.776L105.843 126.848C105.707 127.104 105.523 127.328 105.291 127.52C105.059 127.712 104.787 127.864 104.475 127.976C104.163 128.088 103.823 128.144 103.455 128.144ZM111.521 128.144C110.913 128.144 110.365 127.996 109.877 127.7C109.397 127.404 109.017 127 108.737 126.488C108.457 125.976 108.317 125.404 108.317 124.772C108.317 124.124 108.457 123.548 108.737 123.044C109.017 122.532 109.397 122.128 109.877 121.832C110.365 121.536 110.913 121.388 111.521 121.388C112.057 121.388 112.533 121.504 112.949 121.736C113.365 121.96 113.693 122.264 113.933 122.648L113.753 122.924V118.916H114.881V128H113.789V126.62L113.933 126.812C113.709 127.236 113.381 127.564 112.949 127.796C112.525 128.028 112.049 128.144 111.521 128.144ZM111.617 127.064C112.025 127.064 112.389 126.964 112.709 126.764C113.029 126.564 113.281 126.292 113.465 125.948C113.657 125.596 113.753 125.204 113.753 124.772C113.753 124.332 113.657 123.94 113.465 123.596C113.281 123.244 113.029 122.968 112.709 122.768C112.389 122.568 112.025 122.468 111.617 122.468C111.217 122.468 110.853 122.572 110.525 122.78C110.205 122.98 109.953 123.252 109.769 123.596C109.585 123.932 109.493 124.324 109.493 124.772C109.493 125.204 109.585 125.596 109.769 125.948C109.953 126.292 110.205 126.564 110.525 126.764C110.845 126.964 111.209 127.064 111.617 127.064ZM119.704 128.144C119.08 128.144 118.524 127.996 118.036 127.7C117.548 127.404 117.164 127 116.884 126.488C116.604 125.968 116.464 125.388 116.464 124.748C116.464 124.1 116.6 123.524 116.872 123.02C117.152 122.516 117.528 122.12 118 121.832C118.48 121.536 119.016 121.388 119.608 121.388C120.088 121.388 120.512 121.476 120.88 121.652C121.256 121.82 121.572 122.052 121.828 122.348C122.092 122.636 122.292 122.968 122.428 123.344C122.572 123.712 122.644 124.096 122.644 124.496C122.644 124.584 122.636 124.684 122.62 124.796C122.612 124.9 122.6 125 122.584 125.096H117.28V124.136H121.936L121.408 124.568C121.48 124.152 121.44 123.78 121.288 123.452C121.136 123.124 120.912 122.864 120.616 122.672C120.32 122.48 119.984 122.384 119.608 122.384C119.232 122.384 118.888 122.48 118.576 122.672C118.264 122.864 118.02 123.14 117.844 123.5C117.676 123.852 117.608 124.272 117.64 124.76C117.608 125.232 117.68 125.648 117.856 126.008C118.04 126.36 118.296 126.636 118.624 126.836C118.96 127.028 119.324 127.124 119.716 127.124C120.148 127.124 120.512 127.024 120.808 126.824C121.104 126.624 121.344 126.368 121.528 126.056L122.464 126.536C122.336 126.832 122.136 127.104 121.864 127.352C121.6 127.592 121.284 127.784 120.916 127.928C120.556 128.072 120.152 128.144 119.704 128.144ZM127.159 128.144C126.551 128.144 126.003 127.996 125.515 127.7C125.035 127.404 124.655 127 124.375 126.488C124.095 125.976 123.955 125.404 123.955 124.772C123.955 124.124 124.095 123.548 124.375 123.044C124.655 122.532 125.035 122.128 125.515 121.832C126.003 121.536 126.551 121.388 127.159 121.388C127.695 121.388 128.171 121.504 128.587 121.736C129.003 121.96 129.331 122.264 129.571 122.648L129.391 122.924V118.916H130.519V128H129.427V126.62L129.571 126.812C129.347 127.236 129.019 127.564 128.587 127.796C128.163 128.028 127.687 128.144 127.159 128.144ZM127.255 127.064C127.663 127.064 128.027 126.964 128.347 126.764C128.667 126.564 128.919 126.292 129.103 125.948C129.295 125.596 129.391 125.204 129.391 124.772C129.391 124.332 129.295 123.94 129.103 123.596C128.919 123.244 128.667 122.968 128.347 122.768C128.027 122.568 127.663 122.468 127.255 122.468C126.855 122.468 126.491 122.572 126.163 122.78C125.843 122.98 125.591 123.252 125.407 123.596C125.223 123.932 125.131 124.324 125.131 124.772C125.131 125.204 125.223 125.596 125.407 125.948C125.591 126.292 125.843 126.564 126.163 126.764C126.483 126.964 126.847 127.064 127.255 127.064Z" fill="#9299A2"/>
</svg>
