<svg width="16" height="17" viewBox="0 0 16 17" fill="none" xmlns="http://www.w3.org/2000/svg">
<g clip-path="url(#clip0_3458_44726)">
<path d="M7.73055 3.84063C6.96024 3.07003 6.43299 1.72438 6.17133 0.5C5.90927 1.72462 5.38258 3.07056 4.61198 3.84116C3.84167 4.61122 2.49561 5.13847 1.27148 5.40066C2.49611 5.66231 3.84192 6.18925 4.61223 6.95988C5.38255 7.73019 5.9098 9.07613 6.17186 10.3005C6.43352 9.07588 6.96061 7.72994 7.7308 6.95934C8.50111 6.18903 9.84717 5.66203 11.0713 5.39984C9.84695 5.13819 8.50114 4.61097 7.73055 3.84063Z" fill="white"/>
<path d="M12.7337 10.0104C12.2739 9.55037 11.9584 8.74602 11.8021 8.01465C11.6455 8.74602 11.3311 9.55034 10.8707 10.0106C10.4104 10.4705 9.60625 10.7857 8.875 10.9423C9.6065 11.0988 10.4104 11.4136 10.8707 11.8739C11.3311 12.3339 11.6461 13.1382 11.8026 13.8696C11.9589 13.138 12.2739 12.3339 12.7339 11.8736C13.194 11.4136 13.9983 11.0986 14.7294 10.9417C13.9983 10.7854 13.194 10.4705 12.7337 10.0104Z" fill="white"/>
<path d="M4.57444 11.5845C4.44297 12.1985 4.17897 12.8739 3.79259 13.2603C3.40628 13.6463 2.73109 13.9109 2.11719 14.0424C2.73109 14.1741 3.40628 14.4379 3.79259 14.8245C4.17897 15.2108 4.4435 15.8857 4.57497 16.5C4.70631 15.8857 4.97044 15.2108 5.35694 14.8242C5.743 14.4379 6.41831 14.1736 7.03209 14.0419C6.41834 13.9106 5.743 13.6464 5.35669 13.26C4.97044 12.874 4.70578 12.1985 4.57444 11.5845Z" fill="white"/>
</g>
<defs>
<clipPath id="clip0_3458_44726">
<rect width="16" height="16" fill="white" transform="translate(0 0.5)"/>
</clipPath>
</defs>
</svg>
