<svg width="14" height="14" viewBox="0 0 14 14" fill="none" xmlns="http://www.w3.org/2000/svg">
<path d="M11.0408 2.55172C10.5175 2.0231 9.89499 1.6029 9.20901 1.31518C8.52304 1.02747 7.78705 0.877884 7.04318 0.875H6.99998C5.49156 0.875 4.04492 1.47422 2.97831 2.54083C1.91169 3.60744 1.31248 5.05408 1.31248 6.5625V9.625C1.31248 9.9731 1.45076 10.3069 1.6969 10.5531C1.94304 10.7992 2.27688 10.9375 2.62498 10.9375H3.49998C3.84807 10.9375 4.18191 10.7992 4.42806 10.5531C4.6742 10.3069 4.81248 9.9731 4.81248 9.625V7.4375C4.81248 7.0894 4.6742 6.75556 4.42806 6.50942C4.18191 6.26328 3.84807 6.125 3.49998 6.125H2.20716C2.29154 5.21278 2.63418 4.3435 3.19494 3.61906C3.7557 2.89461 4.51134 2.34502 5.3733 2.03468C6.23525 1.72435 7.1678 1.66614 8.06166 1.86687C8.95552 2.0676 9.77364 2.51896 10.4201 3.16805C11.2103 3.96227 11.6963 5.00886 11.7933 6.125H10.5C10.1519 6.125 9.81804 6.26328 9.5719 6.50942C9.32576 6.75556 9.18748 7.0894 9.18748 7.4375V9.625C9.18748 9.9731 9.32576 10.3069 9.5719 10.5531C9.81804 10.7992 10.1519 10.9375 10.5 10.9375H11.8125C11.8125 11.2856 11.6742 11.6194 11.4281 11.8656C11.1819 12.1117 10.8481 12.25 10.5 12.25H7.43748C7.32145 12.25 7.21017 12.2961 7.12812 12.3781C7.04607 12.4602 6.99998 12.5715 6.99998 12.6875C6.99998 12.8035 7.04607 12.9148 7.12812 12.9969C7.21017 13.0789 7.32145 13.125 7.43748 13.125H10.5C11.0801 13.125 11.6365 12.8945 12.0468 12.4843C12.457 12.0741 12.6875 11.5177 12.6875 10.9375V6.5625C12.6903 5.81852 12.5463 5.08128 12.2638 4.39304C11.9812 3.7048 11.5656 3.07907 11.0408 2.55172ZM3.49998 7C3.61601 7 3.72729 7.04609 3.80934 7.12814C3.89138 7.21019 3.93748 7.32147 3.93748 7.4375V9.625C3.93748 9.74103 3.89138 9.85231 3.80934 9.93436C3.72729 10.0164 3.61601 10.0625 3.49998 10.0625H2.62498C2.50895 10.0625 2.39767 10.0164 2.31562 9.93436C2.23357 9.85231 2.18748 9.74103 2.18748 9.625V7H3.49998ZM10.5 10.0625C10.3839 10.0625 10.2727 10.0164 10.1906 9.93436C10.1086 9.85231 10.0625 9.74103 10.0625 9.625V7.4375C10.0625 7.32147 10.1086 7.21019 10.1906 7.12814C10.2727 7.04609 10.3839 7 10.5 7H11.8125V10.0625H10.5Z" fill="#283B52"/>
</svg>
