<svg width="95" height="75" viewBox="0 0 95 75" fill="none" xmlns="http://www.w3.org/2000/svg">
<path d="M42.8465 62.4196C47.0426 68.2861 53.3935 72.2496 60.507 73.4414C67.6206 74.6333 74.9164 72.9562 80.7955 68.7778C81.5221 68.2622 82.2224 67.7104 82.8937 67.1247L93.7298 70.4036L89.5789 58.2778C91.6509 53.9403 92.5387 49.1319 92.1521 44.3406C91.7656 39.5492 90.1184 34.9453 87.3778 30.9962C84.6371 27.047 80.9006 23.8931 76.5474 21.8545C72.1941 19.8159 67.379 18.9652 62.5908 19.3887C57.8025 19.8121 53.2115 21.4947 49.2835 24.2656C45.3556 27.0366 42.2306 30.7973 40.2256 35.1661C38.2205 39.5349 37.4069 44.3564 37.8672 49.1413C38.3275 53.9261 40.0454 58.5041 42.8465 62.4105V62.4196Z" fill="#F4F7FA" stroke="#BAC1CA" stroke-width="0.908306" stroke-linecap="round" stroke-linejoin="round"/>
<path d="M75.7726 46.6163C75.7726 47.3587 75.1707 47.9606 74.4283 47.9606C73.6859 47.9606 73.084 47.3587 73.084 46.6163C73.084 45.8739 73.6859 45.272 74.4283 45.272C75.1707 45.272 75.7726 45.8739 75.7726 46.6163Z" fill="#BAC1CA" stroke="#BAC1CA" stroke-width="0.908306"/>
<path d="M67.0983 46.6163C67.0983 47.3587 66.4964 47.9606 65.754 47.9606C65.0116 47.9606 64.4097 47.3587 64.4097 46.6163C64.4097 45.8739 65.0116 45.272 65.754 45.272C66.4964 45.272 67.0983 45.8739 67.0983 46.6163Z" fill="#BAC1CA" stroke="#BAC1CA" stroke-width="0.908306"/>
<path d="M58.433 46.6163C58.433 47.3587 57.8312 47.9606 57.0887 47.9606C56.3463 47.9606 55.7445 47.3587 55.7445 46.6163C55.7445 45.8739 56.3463 45.272 57.0887 45.272C57.8312 45.272 58.433 45.8739 58.433 46.6163Z" fill="#BAC1CA" stroke="#BAC1CA" stroke-width="0.908306"/>
<path d="M51.7297 43.8817C47.5336 49.7482 41.1828 53.7117 34.0692 54.9035C26.9557 56.0954 19.6598 54.4183 13.7807 50.2399C13.052 49.7271 12.3516 49.1753 11.6825 48.5868L0.846405 51.8839L4.99736 39.7489C2.92531 35.4115 2.03753 30.6031 2.4241 25.8117C2.81068 21.0204 4.45784 16.4165 7.19846 12.4674C9.93907 8.51821 13.6756 5.36431 18.0289 3.32572C22.3821 1.28713 27.1972 0.436399 31.9855 0.859851C36.7737 1.2833 41.3648 2.96587 45.2927 5.73681C49.2206 8.50775 52.3457 12.2684 54.3507 16.6373C56.3557 21.0061 57.1693 25.8276 56.709 30.6124C56.2487 35.3973 54.5308 39.9753 51.7297 43.8817Z" fill="#F4F7FA" stroke="#BAC1CA" stroke-width="0.908306" stroke-linecap="round" stroke-linejoin="round"/>
<path d="M21.8283 33.355C22.6343 31.9936 23.778 30.8632 25.1489 30.0733C26.5197 29.2834 28.0712 28.8607 29.6532 28.8461C31.2353 28.8315 32.7944 29.2255 34.1795 29.9899C35.5647 30.7543 36.7292 31.8634 37.5602 33.2097" stroke="#BAC1CA" stroke-width="0.908306" stroke-linecap="round" stroke-linejoin="round"/>
<path d="M40.7029 24.0932C40.7029 24.5497 40.3328 24.9198 39.8764 24.9198C39.4199 24.9198 39.0498 24.5497 39.0498 24.0932C39.0498 23.6367 39.4199 23.2667 39.8764 23.2667C40.3328 23.2667 40.7029 23.6367 40.7029 24.0932Z" fill="#BAC1CA" stroke="#BAC1CA" stroke-width="0.908306"/>
<path d="M20.4114 24.0932C20.4114 24.5497 20.0413 24.9198 19.5848 24.9198C19.1283 24.9198 18.7583 24.5497 18.7583 24.0932C18.7583 23.6367 19.1283 23.2667 19.5848 23.2667C20.0413 23.2667 20.4114 23.6367 20.4114 24.0932Z" fill="#BAC1CA" stroke="#BAC1CA" stroke-width="0.908306"/>
</svg>
