<svg width="74" height="60" viewBox="0 0 74 60" fill="none" xmlns="http://www.w3.org/2000/svg">
<path d="M63.9971 39.6279L65.2155 49.2661C65.3417 50.2715 65.0642 51.2858 64.4438 52.0869C63.8234 52.8879 62.9107 53.4104 61.9058 53.5397L20.0796 58.9043C19.0743 59.0305 18.06 58.753 17.2589 58.1326C16.4578 57.5122 15.9354 56.5995 15.8061 55.5946L14.5695 45.9564C14.4696 45.1296 14.5694 44.2908 14.8605 43.5105L22.6347 22.9611L21.9436 17.5056C21.9181 17.3162 21.9305 17.1236 21.9799 16.939C22.0293 16.7543 22.1148 16.5814 22.2315 16.43C22.3482 16.2786 22.4937 16.1519 22.6597 16.0572C22.8256 15.9624 23.0088 15.9015 23.1984 15.878L26.1172 15.487C26.5003 15.4406 26.8862 15.5474 27.191 15.7841C27.4958 16.0207 27.6948 16.3682 27.7447 16.7509L28.4449 22.2065L44.4479 20.1515L43.7478 14.6959C43.7236 14.506 43.7371 14.3132 43.7876 14.1286C43.838 13.9439 43.9245 13.771 44.0419 13.6198C44.1593 13.4686 44.3054 13.3421 44.4718 13.2474C44.6382 13.1528 44.8217 13.092 45.0116 13.0684L47.9213 12.6865C48.3054 12.64 48.6924 12.7464 48.9987 12.9829C49.3049 13.2194 49.5058 13.5669 49.558 13.9503L50.249 19.4059H50.3763L63.106 37.3275C63.5848 38.0109 63.8906 38.8003 63.9971 39.6279Z" fill="#F4F7FA" stroke="#BAC1CA" stroke-width="0.909263" stroke-linecap="round" stroke-linejoin="round"/>
<path d="M0.603195 23.7774C7.44085 25.1868 13.4147 23.4865 18.9067 19.6948C20.4524 24.5321 18.9067 28.2601 14.2967 30.115C11.9357 31.0298 9.44263 31.5579 6.91348 31.6789C2.52174 31.8517 0.748677 29.5421 0.603195 23.7774Z" fill="#BAC1CA"/>
<path d="M73.0442 14.4976C66.7885 17.5891 60.5782 17.4436 54.3043 15.1613C54.0224 20.235 56.4502 23.4629 61.3965 24.0812C63.9082 24.3758 66.4511 24.2591 68.9252 23.7357C73.2352 22.8355 74.3626 20.1077 73.0442 14.4976Z" fill="#BAC1CA"/>
<path d="M73.1169 14.4136C66.7521 17.7961 60.9146 17.5142 55.0226 15.2684C54.6134 15.1138 54.0406 14.7774 53.9769 14.4409C53.3132 11.1221 50.0034 10.1674 47.0392 10.031C39.4656 9.72047 31.894 10.6919 24.6441 12.9043C21.8072 13.8135 18.843 15.5411 19.043 18.9145C19.043 19.26 18.5975 19.7237 18.2338 19.9783C13.1055 23.6154 7.53176 25.3794 0.512253 23.7154C1.57609 19.7419 2.55809 15.8867 3.70376 12.0677C3.89471 11.4676 4.78579 10.9584 5.46774 10.6311C14.1599 6.34343 23.4933 3.50256 33.1002 2.22043C34.1186 2.06585 35.137 1.93856 36.1554 1.82944C45.7809 0.649822 55.5342 1.0429 65.0336 2.9933C65.761 3.14787 66.7612 3.41156 67.0885 3.94803C69.1616 7.34867 71.0893 10.8402 73.1169 14.4136Z" fill="#F4F7FA" stroke="#BAC1CA" stroke-width="0.909263" stroke-linecap="round" stroke-linejoin="round"/>
<path d="M31.764 29.6724L27.2095 30.2559L27.7929 34.8104L32.3475 34.227L31.764 29.6724Z" fill="#BAC1CA"/>
<path d="M39.7701 28.6451L35.2155 29.2285L35.799 33.7831L40.3536 33.1996L39.7701 28.6451Z" fill="#BAC1CA"/>
<path d="M47.7943 27.6138L43.2398 28.1973L43.8232 32.7518L48.3778 32.1684L47.7943 27.6138Z" fill="#BAC1CA"/>
<path d="M32.7438 37.3804L28.1892 37.9639L28.7727 42.5184L33.3272 41.935L32.7438 37.3804Z" fill="#BAC1CA"/>
<path d="M40.7588 36.3492L36.2043 36.9326L36.7877 41.4872L41.3423 40.9037L40.7588 36.3492Z" fill="#BAC1CA"/>
<path d="M48.7741 35.3218L44.2195 35.9053L44.803 40.4598L49.3575 39.8764L48.7741 35.3218Z" fill="#BAC1CA"/>
</svg>
