<svg width="107" height="101" viewBox="0 0 107 101" fill="none" xmlns="http://www.w3.org/2000/svg">
<path d="M71.8758 39.0428C64.3088 39.0428 56.6061 38.7354 49.4007 36.7284C42.3309 34.7665 35.8397 30.9604 30.0537 26.5576C26.2656 23.6917 22.8211 21.4135 17.903 21.757C13.0875 22.0206 8.48477 23.8275 4.77593 26.9102C-1.48021 32.3346 -0.539982 42.4873 1.96428 49.6204C5.7252 60.3607 17.1707 67.8012 26.8985 72.665C38.136 78.2793 50.4856 81.5339 62.8623 83.4144C73.7111 85.0598 87.6518 86.2622 97.0541 79.1743C105.688 72.665 108.057 57.8022 105.941 47.767C105.428 44.7998 103.85 42.1218 101.502 40.2362C95.4358 35.8062 86.3861 38.7625 79.5694 38.9162C77.038 38.9705 74.4614 39.0337 71.8758 39.0428Z" fill="#F4F7FA"/>
<path d="M53.3605 101C71.6899 101 86.5488 100.073 86.5488 98.9297C86.5488 97.7863 71.6899 96.8594 53.3605 96.8594C35.0311 96.8594 20.1722 97.7863 20.1722 98.9297C20.1722 100.073 35.0311 101 53.3605 101Z" fill="#E3E7EE"/>
<path d="M87.272 27.9961V31.8926" stroke="#BAC1CA" stroke-width="0.904067" stroke-linecap="round" stroke-linejoin="round"/>
<path d="M85.3283 29.9492H89.2158" stroke="#BAC1CA" stroke-width="0.904067" stroke-linecap="round" stroke-linejoin="round"/>
<path d="M21.9803 60.7422V64.6297" stroke="#BAC1CA" stroke-width="0.904067" stroke-linecap="round" stroke-linejoin="round"/>
<path d="M20.0275 62.6875H23.9241" stroke="#BAC1CA" stroke-width="0.904067" stroke-linecap="round" stroke-linejoin="round"/>
<path d="M16.5288 11.7969V15.6844" stroke="#BAC1CA" stroke-width="0.904067" stroke-linecap="round" stroke-linejoin="round"/>
<path d="M14.576 13.7383H18.4725" stroke="#BAC1CA" stroke-width="0.904067" stroke-linecap="round" stroke-linejoin="round"/>
<path d="M58.8934 2.77197C59.3827 2.77197 59.7794 2.3753 59.7794 1.88599C59.7794 1.39667 59.3827 1 58.8934 1C58.4041 1 58.0074 1.39667 58.0074 1.88599C58.0074 2.3753 58.4041 2.77197 58.8934 2.77197Z" fill="#CFCFCF"/>
<path d="M56.7779 89.2017C57.2672 89.2017 57.6639 88.805 57.6639 88.3157C57.6639 87.8264 57.2672 87.4297 56.7779 87.4297C56.2886 87.4297 55.8919 87.8264 55.8919 88.3157C55.8919 88.805 56.2886 89.2017 56.7779 89.2017Z" fill="#CFCFCF"/>
<path d="M75.8044 7.00108L24.2426 12.3568C23.0656 12.479 22.2105 13.5323 22.3328 14.7093L29.3846 82.6011C29.5069 83.7781 30.5601 84.6332 31.7372 84.5109L83.299 79.1552C84.476 79.033 85.331 77.9797 85.2088 76.8027L78.1569 8.91089C78.0347 7.73388 76.9814 6.87882 75.8044 7.00108Z" fill="#E3E7EE"/>
<path d="M73.5856 10.1365L27.0505 14.97C25.8735 15.0923 25.0184 16.1456 25.1407 17.3226L31.5182 78.722C31.6404 79.899 32.6937 80.754 33.8707 80.6318L80.4058 75.7982C81.5829 75.676 82.4379 74.6227 82.3156 73.4457L75.9381 12.0463C75.8159 10.8693 74.7626 10.0142 73.5856 10.1365Z" fill="#F4F7FA" stroke="#BAC1CA" stroke-width="0.904067" stroke-linecap="round" stroke-linejoin="round"/>
<path d="M65.5564 13.1428L64.8331 6.18145C64.7969 5.89251 64.6487 5.62932 64.4205 5.44844C64.1923 5.26756 63.9022 5.18342 63.6126 5.21409L55.0059 6.11816C54.9359 5.42363 54.7297 4.74969 54.3992 4.13483C54.0687 3.51997 53.6203 2.97623 53.0797 2.53465C52.539 2.09307 51.9167 1.7623 51.2482 1.56123C50.5798 1.36016 49.8782 1.29272 49.1837 1.36277C48.4892 1.43281 47.8152 1.63897 47.2004 1.96948C46.5855 2.29998 46.0418 2.74835 45.6002 3.28899C44.7084 4.38086 44.2868 5.78229 44.4283 7.18496L35.7945 8.08903C35.649 8.10371 35.5078 8.14695 35.379 8.21627C35.2503 8.28558 35.1364 8.37962 35.0441 8.49299C34.9517 8.60636 34.8826 8.73683 34.8407 8.87694C34.7988 9.01706 34.785 9.16405 34.8 9.30952L35.5232 16.2708C35.5379 16.4163 35.5812 16.5575 35.6505 16.6863C35.7198 16.815 35.8138 16.9289 35.9272 17.0212C36.0406 17.1136 36.1711 17.1827 36.3112 17.2246C36.4513 17.2665 36.5983 17.2803 36.7437 17.2653L64.5709 14.3723C64.7169 14.3577 64.8586 14.3141 64.9875 14.2441C65.1165 14.1741 65.2302 14.0791 65.322 13.9646C65.4138 13.8501 65.4818 13.7184 65.522 13.5773C65.5622 13.4362 65.5739 13.2885 65.5564 13.1428Z" fill="#F4F7FA" stroke="#BAC1CA" stroke-width="0.904067" stroke-linecap="round" stroke-linejoin="round"/>
<path d="M43.1807 55.5785C43.4768 52.8957 44.6824 50.3952 46.597 48.4928C48.5116 46.5904 51.0198 45.4008 53.7044 45.1219C56.389 44.843 59.0882 45.4915 61.353 46.9597C63.6178 48.4279 65.3117 50.6272 66.153 53.1917" stroke="#BAC1CA" stroke-width="0.904067" stroke-linecap="round" stroke-linejoin="round"/>
<path d="M44.5006 34.875L40.1702 40.209" stroke="#BAC1CA" stroke-width="0.904067" stroke-linecap="round" stroke-linejoin="round"/>
<path d="M39.6729 35.3828L44.9979 39.7043" stroke="#BAC1CA" stroke-width="0.904067" stroke-linecap="round" stroke-linejoin="round"/>
<path d="M65.4388 32.707L61.1083 38.032" stroke="#BAC1CA" stroke-width="0.904067" stroke-linecap="round" stroke-linejoin="round"/>
<path d="M60.6111 33.2031L65.9361 37.5336" stroke="#BAC1CA" stroke-width="0.904067" stroke-linecap="round" stroke-linejoin="round"/>
</svg>
