<svg width="137" height="105" viewBox="0 0 137 105" fill="none" xmlns="http://www.w3.org/2000/svg">
<path d="M106.333 26.6562V32.0203" stroke="#5599D9" stroke-width="0.594583" stroke-miterlimit="10" stroke-linecap="round"/>
<path d="M103.65 29.3438H109.014" stroke="#5599D9" stroke-width="0.594583" stroke-miterlimit="10" stroke-linecap="round"/>
<path d="M38.1172 1V5.73796" stroke="#5599D9" stroke-width="0.594583" stroke-miterlimit="10" stroke-linecap="round"/>
<path d="M35.7485 3.375H40.4865" stroke="#5599D9" stroke-width="0.594583" stroke-miterlimit="10" stroke-linecap="round"/>
<path d="M125.796 5.30755C125.796 5.93082 125.611 6.5401 125.265 7.05833C124.919 7.57655 124.427 7.98047 123.851 8.21898C123.275 8.45749 122.641 8.5199 122.03 8.39831C121.419 8.27671 120.857 7.97658 120.417 7.53586C119.976 7.09514 119.676 6.53364 119.554 5.92234C119.433 5.31105 119.495 4.67743 119.734 4.1016C119.972 3.52578 120.376 3.03361 120.894 2.68734C121.412 2.34107 122.022 2.15625 122.645 2.15625C123.481 2.15625 124.282 2.48826 124.873 3.07925C125.464 3.67023 125.796 4.47178 125.796 5.30755Z" stroke="#5599D9" stroke-width="0.594583" stroke-miterlimit="10"/>
<path d="M14.5853 72.0029C14.5853 72.6261 14.4005 73.2354 14.0542 73.7536C13.7079 74.2719 13.2158 74.6758 12.6399 74.9143C12.0641 75.1528 11.4305 75.2152 10.8192 75.0936C10.2079 74.972 9.64642 74.6719 9.20571 74.2312C8.76499 73.7904 8.46486 73.2289 8.34327 72.6176C8.22167 72.0064 8.28408 71.3727 8.52259 70.7969C8.76111 70.2211 9.16501 69.7289 9.68324 69.3826C10.2015 69.0364 10.8107 68.8516 11.434 68.8516C12.2698 68.8516 13.0713 69.1836 13.6623 69.7746C14.2533 70.3655 14.5853 71.1671 14.5853 72.0029Z" stroke="#5599D9" stroke-width="0.594583" stroke-miterlimit="10"/>
<path d="M25.6154 59.2682C25.6153 59.5699 25.5258 59.8649 25.3581 60.1157C25.1904 60.3666 24.9522 60.5621 24.6734 60.6775C24.3946 60.793 24.0879 60.8232 23.7919 60.7643C23.496 60.7054 23.2242 60.5601 23.0108 60.3467C22.7975 60.1334 22.6522 59.8615 22.5933 59.5656C22.5344 59.2697 22.5646 58.9629 22.68 58.6842C22.7955 58.4054 22.991 58.1671 23.2418 57.9994C23.4927 57.8318 23.7876 57.7422 24.0894 57.7422C24.4941 57.7422 24.8822 57.903 25.1684 58.1891C25.4546 58.4753 25.6154 58.8635 25.6154 59.2682Z" stroke="#5599D9" stroke-width="0.594583" stroke-miterlimit="10"/>
<path d="M129.554 60.5485C129.561 61.1253 129.454 61.6978 129.238 62.2327C129.022 62.7677 128.703 63.2545 128.297 63.6649C127.892 64.0752 127.409 64.401 126.877 64.6233C126.345 64.8456 125.774 64.96 125.197 64.9598H94.0797C94.5317 65.7863 94.7039 66.737 94.5703 67.6695C94.4368 68.6021 94.0047 69.4663 93.3388 70.1327C93.0846 70.3858 92.801 70.6074 92.4939 70.793H98.2421C99.4018 70.7818 100.52 71.2259 101.355 72.0299C102.191 72.8339 102.679 73.9337 102.712 75.093C102.72 75.6698 102.612 76.2423 102.396 76.7773C102.181 77.3123 101.861 77.7992 101.456 78.2097C101.051 78.6202 100.568 78.9463 100.036 79.1689C99.5035 79.3915 98.9325 79.5063 98.3556 79.5066H69.783C68.8294 79.5065 67.9022 79.1935 67.1436 78.6157C66.3849 78.0379 65.8368 77.2272 65.5832 76.3079C65.3297 75.3886 65.3847 74.4115 65.7398 73.5265C66.0949 72.6415 66.7305 71.8974 67.5492 71.4084H50.4321C49.2724 71.4195 48.1545 70.9754 47.3187 70.1714C46.4828 69.3674 45.9956 68.2676 45.9618 67.1083C45.9519 66.3307 46.1504 65.5647 46.5366 64.8898C46.9227 64.2148 47.4825 63.6555 48.1578 63.27C47.4498 62.9028 46.8563 62.3482 46.4421 61.6666C46.0279 60.985 45.809 60.2027 45.8092 59.4052V54.0687C45.8085 53.3875 45.9679 52.7156 46.2746 52.1072C46.5812 51.4988 47.0265 50.971 47.5746 50.5663H16.8169C15.6585 50.5772 14.5419 50.1339 13.7063 49.3315C12.8707 48.5291 12.3826 47.4313 12.3465 46.2734C12.3379 45.6959 12.4443 45.1224 12.6594 44.5864C12.8745 44.0503 13.1941 43.5624 13.5995 43.151C14.0049 42.7396 14.4881 42.413 15.021 42.1901C15.5539 41.9672 16.1257 41.8525 16.7033 41.8527H18.878C19.7704 41.8524 20.6261 41.4977 21.2571 40.8667C21.8881 40.2357 22.2427 39.38 22.243 38.4876V38.4852C22.2427 37.5929 21.8881 36.7371 21.2571 36.1061C20.6261 35.4751 19.7704 35.1205 18.878 35.1202H4.40649C3.83026 35.1269 3.25843 35.0192 2.72411 34.8034C2.1898 34.5875 1.70363 34.2678 1.29377 33.8627C0.883914 33.4576 0.558519 32.9752 0.336436 32.4434C0.114354 31.9117 0 31.3411 0 30.7649C0 30.1886 0.114354 29.618 0.336436 29.0863C0.558519 28.5545 0.883914 28.0721 1.29377 27.667C1.70363 27.2619 2.1898 26.9422 2.72411 26.7263C3.25843 26.5105 3.83026 26.4028 4.40649 26.4095H25.3286C25.9007 26.4097 26.4672 26.2971 26.9958 26.0784C27.5244 25.8596 28.0047 25.5388 28.4094 25.1344C28.814 24.73 29.135 24.2498 29.3541 23.7213C29.5731 23.1929 29.686 22.6264 29.6861 22.0543C29.6863 21.4822 29.5738 20.9157 29.355 20.3871C29.1362 19.8585 28.8154 19.3782 28.411 18.9735C28.0066 18.5689 27.5265 18.2479 26.998 18.0288C26.4695 17.8097 25.9031 17.6969 25.331 17.6967H19.3554C18.1943 17.7072 17.0755 17.2613 16.2399 16.4551C15.4042 15.6489 14.9186 14.5468 14.8875 13.386C14.8814 12.8101 14.9896 12.2386 15.2058 11.7048C15.4221 11.1709 15.742 10.6853 16.1472 10.276C16.5524 9.86661 17.0348 9.5417 17.5664 9.32004C18.098 9.09837 18.6683 8.98435 19.2443 8.98458H58.9849C60.1172 8.9736 61.2107 9.39666 62.0407 10.1669C62.8708 10.9371 63.3744 11.9959 63.4481 13.1259C63.4864 13.8981 63.319 14.6666 62.9629 15.3529H114.214C114.79 15.3462 115.362 15.4538 115.896 15.6697C116.431 15.8856 116.917 16.2053 117.327 16.6104C117.737 17.0155 118.062 17.4979 118.284 18.0297C118.506 18.5614 118.62 19.132 118.62 19.7082C118.62 20.2845 118.506 20.8551 118.284 21.3868C118.062 21.9186 117.737 22.401 117.327 22.8061C116.917 23.2112 116.431 23.5309 115.896 23.7468C115.362 23.9626 114.79 24.0703 114.214 24.0636H95.2299C95.2294 25.0012 94.8568 25.9003 94.1938 26.5633C93.5309 27.2263 92.6318 27.599 91.6942 27.5996H70.2965C70.9308 28.1982 71.3708 28.9735 71.5594 29.8251C71.748 30.6767 71.6765 31.5653 71.3542 32.3758C71.0318 33.1863 70.4735 33.8813 69.7516 34.3708C69.0297 34.8603 68.1773 35.1217 67.3051 35.1211H61.3227C61.0873 35.1208 60.8541 35.167 60.6365 35.2569C60.4189 35.3468 60.2212 35.4788 60.0546 35.6451C59.888 35.8115 59.7559 36.0091 59.6657 36.2265C59.5754 36.444 59.529 36.6771 59.5289 36.9126V36.9149C59.529 37.1504 59.5754 37.3835 59.6657 37.601C59.7559 37.8184 59.888 38.016 60.0546 38.1824C60.2212 38.3488 60.4189 38.4807 60.6365 38.5706C60.8541 38.6605 61.0873 38.7067 61.3227 38.7064H109.89C110.466 38.6997 111.038 38.8074 111.573 39.0232C112.107 39.2391 112.593 39.5588 113.003 39.9639C113.413 40.369 113.738 40.8514 113.96 41.3832C114.182 41.915 114.297 42.4855 114.297 43.0618C114.297 43.6381 114.182 44.2086 113.96 44.7403C113.738 45.2721 113.413 45.7545 113.003 46.1596C112.593 46.5647 112.107 46.8845 111.573 47.1003C111.038 47.3162 110.466 47.4239 109.89 47.4171H97.3291C97.966 47.8068 98.4922 48.3535 98.8572 49.0049C99.2223 49.6563 99.414 50.3905 99.414 51.1371V52.3795C99.4144 53.1787 99.1946 53.9626 98.7789 54.6451C98.3631 55.3277 97.7674 55.8825 97.0571 56.2488H125.084C126.243 56.2376 127.361 56.6818 128.197 57.4858C129.033 58.2898 129.52 59.3895 129.554 60.5488" fill="#F4F7FA"/>
<path d="M96.8344 101.858C96.8344 101.87 96.823 101.922 96.7007 102.004C96.5852 102.082 96.4038 102.164 96.1513 102.248C95.6484 102.416 94.8992 102.58 93.9242 102.738C91.9766 103.053 89.1539 103.336 85.6608 103.575C78.676 104.052 69.024 104.348 58.3612 104.348C47.6983 104.348 38.0463 104.052 31.0615 103.575C27.5684 103.336 24.7457 103.053 22.7981 102.738C21.8232 102.58 21.0739 102.416 20.571 102.248C20.3185 102.164 20.1371 102.082 20.0216 102.004C19.8993 101.922 19.8879 101.87 19.8879 101.858C19.8879 101.845 19.8993 101.793 20.0216 101.711C20.1371 101.633 20.3185 101.551 20.571 101.467C21.0739 101.299 21.8232 101.135 22.7981 100.977C24.7457 100.663 27.5684 100.379 31.0615 100.14C38.0463 99.6627 47.6983 99.3674 58.3612 99.3674C69.024 99.3674 78.676 99.6627 85.6608 100.14C89.1539 100.379 91.9766 100.663 93.9242 100.977C94.8992 101.135 95.6484 101.299 96.1513 101.467C96.4038 101.551 96.5852 101.633 96.7007 101.711C96.823 101.793 96.8344 101.845 96.8344 101.858Z" fill="#E6F0FF" stroke="#5599D9" stroke-width="0.297292"/>
<path d="M95.9369 20.1057L95.9368 20.1057L50.0408 6.15757C50.0408 6.15757 50.0408 6.15757 50.0408 6.15757C49.6395 6.03559 49.303 5.75917 49.1055 5.38912C48.908 5.01908 48.8655 4.58572 48.9875 4.18438C49.1095 3.78304 49.3859 3.44659 49.756 3.24906C50.126 3.05152 50.5594 3.00908 50.9607 3.13106L50.9607 3.13107L96.8567 17.0791C96.8567 17.0791 96.8567 17.0792 96.8567 17.0792C97.2194 17.1895 97.5304 17.4264 97.7331 17.7468C97.9358 18.0672 98.0166 18.4497 97.961 18.8247C97.9054 19.1997 97.7169 19.5423 97.4299 19.79C97.1429 20.0378 96.7765 20.1742 96.3974 20.1744C96.2413 20.1744 96.0862 20.1512 95.9369 20.1057Z" fill="#A2C7EB" stroke="#5599D9" stroke-width="0.297292"/>
<path d="M50.4983 2.80469C50.0549 2.80469 49.6264 2.96398 49.2907 3.25354C48.955 3.54309 48.7345 3.94363 48.6694 4.38216C48.6044 4.82068 48.699 5.26799 48.9362 5.64255C49.1733 6.01712 49.5371 6.294 49.9614 6.42274L95.8592 20.3729C96.3283 20.5155 96.8348 20.4658 97.2674 20.2349C97.6999 20.004 98.023 19.6107 98.1655 19.1415C98.3081 18.6724 98.2584 18.1658 98.0275 17.7333C97.7966 17.3008 97.4033 16.9777 96.9342 16.8351L51.0367 2.88644C50.8623 2.83309 50.6809 2.80593 50.4986 2.80588M50.4986 3.04252C50.6576 3.0427 50.8158 3.06634 50.968 3.11268L96.8652 17.0608C97.0695 17.1208 97.2599 17.2207 97.4254 17.3547C97.5909 17.4887 97.7282 17.6542 97.8293 17.8416C97.9305 18.029 97.9935 18.2345 98.0148 18.4464C98.0361 18.6583 98.0151 18.8723 97.9532 19.0761C97.8913 19.2798 97.7896 19.4693 97.654 19.6335C97.5185 19.7977 97.3517 19.9335 97.1634 20.0329C96.9751 20.1323 96.7689 20.1934 96.5568 20.2127C96.3448 20.2319 96.131 20.209 95.9278 20.1452L50.0303 6.19739C49.6605 6.08508 49.3433 5.84364 49.1366 5.51707C48.9299 5.1905 48.8473 4.80052 48.9041 4.4182C48.9608 4.03587 49.1529 3.68664 49.4456 3.43414C49.7382 3.18163 50.1121 3.04265 50.4986 3.04252Z" stroke="#5599D9" stroke-width="0.594583"/>
<path d="M53.2141 7.47451L92.5487 19.4284L89.1297 30.6797L89.1295 30.6801C87.8466 34.9482 85.1997 38.678 81.5944 41.298L81.5943 41.2981C78.0705 43.862 73.8281 45.2496 69.4704 45.2638L69.4523 45.2638L69.4514 45.264C66.247 45.2591 63.0879 44.5056 60.2261 43.0635C57.3588 41.6187 54.8694 39.5229 52.9572 36.9436C51.045 34.3644 49.7631 31.3734 49.214 28.2099C48.6648 25.0465 48.8638 21.7984 49.7948 18.7256L53.2141 7.47451Z" fill="white" stroke="#5599D9" stroke-width="0.297292"/>
<path d="M55.7512 39.7827C58.2506 42.1894 61.7466 44.4166 64.8262 44.7362L55.7512 39.7827ZM55.7512 39.7827C53.6852 37.7719 51.8976 35.4944 50.4354 33.0108L50.506 33.0226C50.7554 33.064 51.121 33.125 51.5862 33.2032C52.5165 33.3596 53.8449 33.5846 55.4372 33.8593C58.6219 34.4085 62.8619 35.156 67.0836 35.9491C71.3058 36.7423 75.5076 37.5807 78.6169 38.3119C80.1723 38.6777 81.4502 39.0157 82.3196 39.3068C82.7557 39.4529 83.0812 39.5846 83.2865 39.6991C83.3905 39.7571 83.4524 39.8046 83.4832 39.8393C83.488 39.8447 83.4915 39.8491 83.494 39.8525C83.43 39.9994 83.2826 40.1813 83.0497 40.392C82.8108 40.6081 82.4954 40.8429 82.1239 41.0885C81.3812 41.5796 80.4271 42.106 79.4431 42.605C77.4749 43.6031 75.4027 44.4839 74.6989 44.7447C73.3155 45.2573 72.1922 45.4979 64.8263 44.7362L55.7512 39.7827ZM83.4996 39.8618C83.4995 39.8618 83.4992 39.8612 83.4988 39.86C83.4995 39.8613 83.4997 39.8619 83.4996 39.8618Z" fill="#E6F0FF" stroke="#5599D9" stroke-width="0.297292"/>
<path d="M83.2896 39.871C83.2867 39.8849 83.275 39.9115 83.2251 39.9464C83.1744 39.9819 83.0949 40.0182 82.9805 40.0511C82.7519 40.1168 82.4164 40.1603 81.9788 40.179C81.1061 40.2163 79.8611 40.1538 78.3314 39.9989C75.2738 39.6894 71.0988 39.0128 66.532 38.0421C61.9653 37.0714 57.876 35.9913 54.9569 35.0305C53.4964 34.5498 52.3337 34.1005 51.5515 33.7114C51.1594 33.5163 50.8706 33.3401 50.6885 33.1872C50.5974 33.1105 50.5395 33.0451 50.5076 32.9921C50.4763 32.9398 50.4764 32.9108 50.4793 32.8969C50.4823 32.8831 50.494 32.8565 50.5439 32.8215C50.5946 32.786 50.674 32.7498 50.7885 32.7169C51.0171 32.6512 51.3525 32.6077 51.7901 32.589C52.6629 32.5517 53.9078 32.6141 55.4376 32.769C58.4952 33.0786 62.6702 33.7551 67.2369 34.7259C71.8037 35.6966 75.8929 36.7766 78.8121 37.7375C80.2726 38.2182 81.4353 38.6675 82.2174 39.0565C82.6096 39.2516 82.8983 39.4278 83.0804 39.5808C83.1716 39.6574 83.2295 39.7228 83.2613 39.7759C83.2927 39.8281 83.2926 39.8572 83.2896 39.871Z" fill="#A2C7EB" stroke="#5599D9" stroke-width="0.297292"/>
<path d="M53.1946 7.43584L92.5871 19.4072L89.1593 30.6874C87.8744 34.962 85.2236 38.6974 81.6129 41.3216C79.0374 43.2089 76.0573 44.4697 72.9093 45.0038C69.7612 45.5378 66.5321 45.3305 63.4782 44.3983C60.8916 43.6122 58.4852 42.3244 56.3964 40.6084C54.3075 38.8924 52.5772 36.7817 51.304 34.3969C50.0309 32.0121 49.2399 29.3999 48.9763 26.7094C48.7127 24.0189 48.9817 21.3029 49.7677 18.7163L53.1946 7.43584ZM53.037 7.14062L49.5403 18.6459C47.9346 23.9297 48.4936 29.635 51.0944 34.5067C53.6951 39.3784 58.1247 43.0174 63.4085 44.6232C68.6923 46.2289 74.3976 45.6699 79.2692 43.0691C84.1409 40.4683 87.7798 36.0387 89.3856 30.7549L92.8826 19.2497L53.037 7.14062Z" stroke="#5599D9" stroke-width="0.594583"/>
<path d="M78.1458 85.7101C77.9923 85.71 77.8395 85.6894 77.6915 85.6489L31.3951 73.0023C30.9899 72.8899 30.6391 72.6348 30.4071 72.2841C30.1751 71.9334 30.0777 71.5107 30.1327 71.0938C30.1877 70.677 30.3915 70.294 30.7065 70.0155C31.0215 69.737 31.4265 69.5817 31.8469 69.5781C32.0004 69.5782 32.1532 69.5988 32.3012 69.6394L78.5977 82.2865C79.0028 82.399 79.3537 82.6541 79.5856 83.0048C79.8176 83.3555 79.9151 83.7782 79.86 84.195C79.805 84.6119 79.6013 84.9948 79.2863 85.2734C78.9713 85.5519 78.5662 85.7072 78.1458 85.7107" fill="#A2C7EB"/>
<path d="M78.1458 85.7101C77.9923 85.71 77.8395 85.6894 77.6915 85.6489L31.3951 73.0023C30.9899 72.8899 30.6391 72.6348 30.4071 72.2841C30.1751 71.9334 30.0777 71.5107 30.1327 71.0938C30.1877 70.677 30.3915 70.294 30.7065 70.0155C31.0215 69.737 31.4265 69.5817 31.8469 69.5781C32.0004 69.5782 32.1532 69.5988 32.3012 69.6394L78.5977 82.2865C79.0028 82.399 79.3537 82.6541 79.5856 83.0048C79.8176 83.3555 79.9151 83.7782 79.86 84.195C79.805 84.6119 79.6013 84.9948 79.2863 85.2734C78.9713 85.5519 78.5662 85.7072 78.1458 85.7107" stroke="#5599D9" stroke-width="0.594583"/>
<path d="M78.4055 69.8761L75.3255 81.2263L35.6506 70.4636L38.7282 59.1134L38.7283 59.1132C39.4306 56.5031 40.6408 54.0571 42.2896 51.9154C43.9383 49.7736 45.9933 47.978 48.3369 46.6314C50.6804 45.2848 53.2666 44.4136 55.9472 44.0677C58.6279 43.7218 61.3505 43.9079 63.9591 44.6155C66.5677 45.3231 69.0112 46.5383 71.1496 48.1914C73.2881 49.8445 75.0795 51.9031 76.4213 54.2494C77.7632 56.5957 78.6291 59.1836 78.9696 61.865C79.3101 64.5464 79.1184 67.2686 78.4055 69.8758L78.4055 69.8761Z" fill="white" stroke="#5599D9" stroke-width="0.297292"/>
<path d="M78.8916 65.6795C78.9007 65.6991 78.9039 65.7118 78.9049 65.7171L78.9048 65.7192L78.9057 65.7306C79.0789 67.7744 78.7789 69.8306 78.029 71.7398L78.0287 71.7405C77.3924 73.3865 76.6885 75.8074 76.1445 77.8122C75.8723 78.8156 75.6397 79.7164 75.4752 80.3664C75.3929 80.6914 75.3277 80.9537 75.2829 81.1349C75.2704 81.1855 75.2595 81.2299 75.2503 81.2674L48.629 73.9912L48.6285 73.991L35.5242 70.361L38.5495 59.9713L38.5517 59.9638L38.5531 59.9562L38.4068 59.9297L38.5531 59.9562L38.5531 59.956L38.5532 59.9553L38.5538 59.9521L38.5562 59.9392L38.566 59.8876C38.5748 59.8422 38.5881 59.7751 38.606 59.6888C38.6419 59.5161 38.6962 59.2668 38.7701 58.9612C38.9178 58.3496 39.1432 57.5136 39.454 56.615C39.765 55.716 40.1604 54.7574 40.6474 53.8995C41.1351 53.0402 41.7096 52.291 42.3749 51.8011C43.757 50.7832 44.4365 50.1198 44.7717 49.7044C44.78 49.6941 44.7881 49.6839 44.796 49.6739C44.7998 50.0629 44.8251 50.6155 44.9106 51.2779C45.0823 52.6093 45.4976 54.3879 46.473 56.1721C48.4303 59.7522 52.6239 63.3197 61.5194 63.3849C70.3646 63.4497 74.7318 64.0702 76.8835 64.6689C77.9601 64.9685 78.4689 65.2593 78.7064 65.4616C78.8241 65.5618 78.8721 65.6378 78.8916 65.6795Z" fill="#E6F0FF" stroke="#5599D9" stroke-width="0.297292"/>
<path d="M61.7241 44.2039L66.0077 45.8491L57.4241 58.4656C57.3155 58.5061 57.1987 58.4632 57.0781 58.3675C57.0157 58.318 56.9625 58.2616 56.9245 58.2167C56.9199 58.2112 56.9156 58.206 56.9115 58.201L61.7241 44.2039Z" fill="#E6F0FF" stroke="#5599D9" stroke-width="0.297448"/>
<path d="M58.5539 43.6719V43.9097C61.7193 43.9049 64.8431 44.6306 67.6822 46.0304C70.5213 47.4301 72.9991 49.4662 74.9228 51.98C76.8464 54.4938 78.1641 57.4176 78.7731 60.5239C79.3822 63.6302 79.2663 66.8351 78.4343 69.8892L75.3467 81.2687L35.6132 70.4889L38.6988 59.1094C39.8814 54.7478 42.4661 50.8965 46.0542 48.1494C49.6424 45.4022 54.0346 43.9119 58.5536 43.9082L58.5539 43.6719ZM58.5539 43.6719C53.9819 43.6712 49.537 45.177 45.9068 47.9563C42.2765 50.7357 39.6631 54.6337 38.4708 59.0476L35.3228 70.6554L75.5129 81.558L78.6641 69.9502C79.4991 66.8613 79.6116 63.6216 78.9928 60.4822C78.3741 57.3428 77.0408 54.3881 75.0962 51.847C73.1517 49.3059 70.6481 47.2467 67.7796 45.829C64.911 44.4113 61.7546 43.6732 58.5548 43.6719" stroke="#5599D9" stroke-width="0.594583"/>
<path d="M57.4397 60.3717C57.3842 60.8978 56.9127 61.2792 56.3867 61.2237C55.8606 61.1682 55.4792 60.6967 55.5347 60.1707C55.5902 59.6446 56.0617 59.2632 56.5877 59.3187C57.1138 59.3742 57.4952 59.8457 57.4397 60.3717Z" fill="#E6F0FF" stroke="#5599D9" stroke-width="0.297448"/>
<path d="M89.1318 90.4486H65.3464C65.0775 90.4486 64.8381 90.3106 64.7033 90.078C64.5685 89.8454 64.5679 89.569 64.7016 89.3357L76.5943 68.5925C76.7287 68.358 76.9688 68.219 77.2391 68.219C77.5094 68.219 77.7494 68.358 77.8838 68.5925L89.7765 89.3357C89.9102 89.569 89.9096 89.8454 89.7748 90.078C89.6401 90.3106 89.4006 90.4486 89.1318 90.4486Z" fill="#E6F0FF" stroke="#5599D9" stroke-width="0.297292"/>
<path d="M77.2394 68.2272C77.1139 68.2272 76.7883 68.2629 76.5946 68.6008L64.7019 89.344L64.8309 89.4179L64.7019 89.344C64.5092 89.6801 64.641 89.9782 64.7036 90.0862C64.7662 90.1943 64.9592 90.4569 65.3467 90.4569H89.1321C89.5195 90.4569 89.7125 90.1942 89.7751 90.0862C89.8377 89.9781 89.9695 89.6801 89.7768 89.344L77.8841 68.6008C77.6904 68.2629 77.3648 68.2272 77.2394 68.2272ZM77.2394 67.9299C77.5918 67.9299 77.9421 68.1041 78.142 68.4529L90.0347 89.1961C90.4324 89.8897 89.9316 90.7542 89.1321 90.7542C89.1321 90.7542 89.1321 90.7542 89.1321 90.7542H89.132H65.3467C64.5471 90.7542 64.0463 89.8898 64.444 89.1961L76.3367 68.4529C76.5367 68.1041 76.8869 67.9299 77.2394 67.9299Z" fill="#5599D9" stroke="#5599D9" stroke-width="0.297292"/>
<path d="M77.4153 87.0159C77.4153 87.2921 77.1915 87.5159 76.9153 87.5159C76.6391 87.5159 76.4152 87.2921 76.4152 87.0159C76.4152 86.7397 76.6391 86.5158 76.9153 86.5158C77.1915 86.5158 77.4153 86.7397 77.4153 87.0159Z" fill="#5599D9" stroke="#5599D9" stroke-width="0.297292"/>
<path d="M76.9153 76.4611C77.1915 76.4611 77.4153 76.685 77.4153 76.9612V84.4203C77.4153 84.6964 77.1915 84.9203 76.9153 84.9203C76.6391 84.9203 76.4152 84.6964 76.4152 84.4203V76.9612C76.4152 76.685 76.6391 76.4611 76.9153 76.4611Z" fill="#5599D9" stroke="#5599D9" stroke-width="0.297292"/>
</svg>
