<svg width="16" height="16" viewBox="0 0 16 16" fill="none" xmlns="http://www.w3.org/2000/svg">
<path d="M12.6181 3.41643C12.02 2.81229 11.3086 2.33207 10.5246 2.00325C9.74066 1.67443 8.89952 1.50348 8.04939 1.50018H8.00002C6.27611 1.50018 4.62281 2.185 3.40382 3.40399C2.18483 4.62298 1.50002 6.27628 1.50002 8.00018V11.5002C1.50002 11.898 1.65805 12.2795 1.93936 12.5608C2.22066 12.8421 2.60219 13.0002 3.00002 13.0002H4.00002C4.39784 13.0002 4.77937 12.8421 5.06068 12.5608C5.34198 12.2795 5.50002 11.898 5.50002 11.5002V9.00018C5.50002 8.60236 5.34198 8.22083 5.06068 7.93952C4.77937 7.65822 4.39784 7.50018 4.00002 7.50018H2.52252C2.64726 6.13369 3.2783 4.86317 4.29174 3.93807C5.30519 3.01297 6.62784 2.50011 8.00002 2.50018H8.04189C9.40836 2.50596 10.7234 3.02187 11.7293 3.9468C12.7351 4.87174 13.3593 6.13899 13.4794 7.50018H12C11.6022 7.50018 11.2207 7.65822 10.9394 7.93952C10.6581 8.22083 10.5 8.60236 10.5 9.00018V11.5002C10.5 11.898 10.6581 12.2795 10.9394 12.5608C11.2207 12.8421 11.6022 13.0002 12 13.0002H13C13.3978 13.0002 13.7794 12.8421 14.0607 12.5608C14.342 12.2795 14.5 11.898 14.5 11.5002V8.00018C14.5033 7.14992 14.3387 6.30736 14.0158 5.5208C13.6929 4.73424 13.2179 4.01912 12.6181 3.41643ZM4.00002 8.50018C4.13262 8.50018 4.2598 8.55286 4.35357 8.64663C4.44734 8.7404 4.50002 8.86757 4.50002 9.00018V11.5002C4.50002 11.6328 4.44734 11.76 4.35357 11.8537C4.2598 11.9475 4.13262 12.0002 4.00002 12.0002H3.00002C2.86741 12.0002 2.74023 11.9475 2.64646 11.8537C2.55269 11.76 2.50002 11.6328 2.50002 11.5002V8.50018H4.00002ZM13.5 11.5002C13.5 11.6328 13.4473 11.76 13.3536 11.8537C13.2598 11.9475 13.1326 12.0002 13 12.0002H12C11.8674 12.0002 11.7402 11.9475 11.6465 11.8537C11.5527 11.76 11.5 11.6328 11.5 11.5002V9.00018C11.5 8.86757 11.5527 8.7404 11.6465 8.64663C11.7402 8.55286 11.8674 8.50018 12 8.50018H13.5V11.5002Z" fill="#283B52"/>
</svg>
