<svg width="21" height="21" viewBox="0 0 21 21" fill="none" xmlns="http://www.w3.org/2000/svg">
<path fill-rule="evenodd" clip-rule="evenodd" d="M12.416 5.26585L2.57171 5.26585L4.78728 7.53117C5.10317 7.85393 5.10315 8.37066 4.78811 8.69428L4.72985 8.75351C4.40624 9.08571 3.87327 9.08915 3.54537 8.7621C2.4449 7.66335 1.54788 6.77319 0.504933 5.73453C-0.167192 5.06412 -0.168869 3.97225 0.503256 3.30098C1.54964 2.25631 2.50149 1.30864 3.5659 0.244225C3.88609 -0.0750981 4.4028 -0.0828277 4.72985 0.22877L4.73069 0.229636C5.07233 0.554968 5.07599 1.09833 4.73949 1.42795L2.57171 3.54906L12.416 3.54906C17.1569 3.54906 21 7.3921 21 12.133C21 16.874 17.1569 20.717 12.416 20.717C11.9537 20.717 11.579 20.3422 11.579 19.88V19.8372C11.579 19.375 11.9537 19.0002 12.416 19.0002C16.2084 19.0002 19.2832 15.9254 19.2832 12.133C19.2832 8.34063 16.2084 5.26585 12.416 5.26585Z" fill="black"/>
</svg>
