<svg width="13" height="16" viewBox="0 0 13 16" fill="none" xmlns="http://www.w3.org/2000/svg">
<path d="M10.2827 11.5276L8.62311 3.63722C8.60164 3.53404 8.56 3.43611 8.50058 3.34907C8.44115 3.26203 8.36512 3.18759 8.27684 3.13002C8.18856 3.07245 8.08977 3.03289 7.98616 3.01362C7.88254 2.99434 7.77614 2.99573 7.67307 3.0177L5.33246 3.52072C5.12543 3.56605 4.94467 3.69129 4.82949 3.86921C4.71432 4.04712 4.67405 4.26331 4.71744 4.47076L6.37701 12.3611C6.41399 12.5411 6.51183 12.7029 6.65406 12.8193C6.7963 12.9357 6.97427 12.9995 7.15804 13.0001C7.21485 13 7.2715 12.994 7.32705 12.9821L9.66765 12.4791C9.87493 12.4337 10.0559 12.3082 10.1711 12.13C10.2863 11.9517 10.3264 11.7352 10.2827 11.5276ZM5.49997 4.30725C5.49997 4.30425 5.49997 4.30275 5.49997 4.30275L7.84007 3.80273L8.00658 4.59626L5.66648 5.09979L5.49997 4.30725ZM5.83099 5.88082L8.17209 5.3783L8.33909 6.17333L5.99999 6.67635L5.83099 5.88082ZM6.163 7.45939L8.5041 6.95636L9.16913 10.1185L6.82803 10.6215L6.163 7.45939ZM9.50014 11.6971L7.16004 12.1971L6.99354 11.4036L9.33364 10.9L9.50014 11.6926C9.50014 11.6956 9.50014 11.6971 9.50014 11.6971ZM3.8999 3.39971H1.4998C1.28762 3.39971 1.08413 3.484 0.934093 3.63404C0.784057 3.78407 0.699768 3.98757 0.699768 4.19975V12.2001C0.699768 12.4123 0.784057 12.6158 0.934093 12.7658C1.08413 12.9158 1.28762 13.0001 1.4998 13.0001H3.8999C4.11209 13.0001 4.31558 12.9158 4.46561 12.7658C4.61565 12.6158 4.69994 12.4123 4.69994 12.2001V4.19975C4.69994 3.98757 4.61565 3.78407 4.46561 3.63404C4.31558 3.484 4.11209 3.39971 3.8999 3.39971ZM1.4998 4.19975H3.8999V4.99978H1.4998V4.19975ZM1.4998 5.79982H3.8999V10.6H1.4998V5.79982ZM3.8999 12.2001H1.4998V11.4001H3.8999V12.2001Z" fill="#6A7487"/>
</svg>
