<svg width="12" height="15" viewBox="0 0 12 15" fill="none" xmlns="http://www.w3.org/2000/svg">
<path d="M10.7253 6.17683L4.53198 12.3702C4.49604 12.4062 4.45334 12.4347 4.40635 12.4542C4.35936 12.4737 4.30899 12.4837 4.25812 12.4837C4.20725 12.4837 4.15688 12.4737 4.10989 12.4542C4.0629 12.4347 4.02021 12.4062 3.98426 12.3702L1.27468 9.66058C1.20205 9.58795 1.16124 9.48944 1.16124 9.38672C1.16124 9.284 1.20205 9.18549 1.27468 9.11286C1.34731 9.04022 1.44582 8.99942 1.54854 8.99942C1.65126 8.99942 1.74977 9.04022 1.8224 9.11286L4.25812 11.5491L10.1776 5.62911C10.2502 5.55648 10.3487 5.51567 10.4515 5.51567C10.5542 5.51567 10.6527 5.55648 10.7253 5.62911C10.7979 5.70174 10.8388 5.80025 10.8388 5.90297C10.8388 6.00569 10.7979 6.1042 10.7253 6.17683Z" fill="#283B52"/>
</svg>
