<svg width="32" height="32" viewBox="0 0 32 32" fill="none" xmlns="http://www.w3.org/2000/svg">
<path d="M28.8986 10.3468C28.7675 10.2766 28.6198 10.2432 28.4712 10.2502C28.3226 10.2573 28.1787 10.3045 28.0548 10.3869L24.4 12.8186V10.2441C24.4 9.80792 24.2268 9.38965 23.9184 9.08126C23.61 8.77286 23.1917 8.59961 22.7556 8.59961H6.31113C5.875 8.59961 5.45673 8.77286 5.14833 9.08126C4.83994 9.38965 4.66669 9.80792 4.66669 10.2441V21.7552C4.66669 22.1913 4.83994 22.6096 5.14833 22.918C5.45673 23.2264 5.875 23.3996 6.31113 23.3996H22.7556C23.1917 23.3996 23.61 23.2264 23.9184 22.918C24.2268 22.6096 24.4 22.1913 24.4 21.7552V19.1857L28.0548 21.6226C28.1905 21.7107 28.3493 21.7568 28.5111 21.7552C28.7292 21.7552 28.9383 21.6685 29.0925 21.5143C29.2467 21.3601 29.3334 21.151 29.3334 20.9329V11.0663C29.3323 10.9183 29.2914 10.7734 29.2149 10.6468C29.1383 10.5202 29.0291 10.4165 28.8986 10.3468ZM22.7556 21.7552H6.31113V10.2441H22.7556V21.7552ZM27.6889 19.3964L24.4 17.2042V14.7951L27.6889 12.6079V19.3964Z" fill="#0056D6"/>
</svg>
