<svg width="20" height="15" viewBox="0 0 20 15" fill="none" xmlns="http://www.w3.org/2000/svg">
<path d="M6.82073 12.1855L6.82074 12.1855L10.318 8.68862L6.82074 5.19179L6.82074 5.19178C6.70876 5.0798 6.64585 4.92793 6.64585 4.76957C6.64585 4.6112 6.70876 4.45933 6.82073 4.34735C6.93271 4.23537 7.08459 4.17246 7.24295 4.17246C7.40132 4.17246 7.55319 4.23537 7.66517 4.34735L11.5842 8.26633L11.5842 8.26641L11.4393 8.41135L6.82073 12.1855ZM6.82073 12.1855C6.76529 12.2409 6.72131 12.3067 6.6913 12.3792C6.66129 12.4516 6.64585 12.5293 6.64585 12.6077C6.64585 12.6861 6.66129 12.7637 6.6913 12.8362C6.72131 12.9086 6.76529 12.9745 6.82073 13.0299L6.82073 12.1855ZM11.5842 9.11084L11.4393 8.9659L6.82074 13.0299C6.87618 13.0854 6.94201 13.1293 7.01445 13.1593C7.08689 13.1893 7.16454 13.2048 7.24295 13.2048C7.32137 13.2048 7.39901 13.1893 7.47146 13.1593C7.5439 13.1293 7.60973 13.0853 7.66517 13.0299L11.5842 9.11092L11.5842 9.11084Z" fill="white" stroke="white" stroke-width="0.409967"/>
</svg>
