<svg width="32" height="32" viewBox="0 0 32 32" fill="none" xmlns="http://www.w3.org/2000/svg">
<path d="M22.455 18.4616L19.09 16.9537L19.0808 16.9494C18.9061 16.8747 18.7155 16.8447 18.5263 16.8622C18.3371 16.8796 18.1553 16.944 17.9972 17.0494C17.9786 17.0617 17.9607 17.0751 17.9436 17.0894L16.205 18.5716C15.1036 18.0366 13.9665 16.908 13.4315 15.8208L14.9158 14.0558C14.93 14.038 14.9436 14.0201 14.9565 14.0008C15.0596 13.8432 15.1222 13.6625 15.1387 13.4748C15.1551 13.2872 15.1249 13.0983 15.0508 12.9251V12.9166L13.5386 9.54585C13.4406 9.31961 13.272 9.13115 13.058 9.00859C12.8441 8.88604 12.5962 8.83596 12.3515 8.86585C11.3836 8.99321 10.4952 9.46854 9.85214 10.2031C9.2091 10.9376 8.85543 11.8811 8.85718 12.8573C8.85718 18.5287 13.4715 23.143 19.1429 23.143C20.1191 23.1447 21.0626 22.7911 21.7971 22.148C22.5316 21.505 23.007 20.6166 23.1343 19.6487C23.1643 19.404 23.1143 19.1562 22.9919 18.9423C22.8695 18.7284 22.6811 18.5597 22.455 18.4616ZM19.1429 22.0001C16.7189 21.9975 14.3949 21.0334 12.6808 19.3193C10.9668 17.6053 10.0027 15.2813 10 12.8573C9.99735 12.1598 10.2486 11.4851 10.707 10.9594C11.1653 10.4336 11.7994 10.0926 12.4908 10.0001C12.4905 10.003 12.4905 10.0059 12.4908 10.0087L13.9908 13.3658L12.5143 15.133C12.4993 15.1502 12.4857 15.1686 12.4736 15.188C12.3661 15.3529 12.3031 15.5428 12.2906 15.7393C12.278 15.9358 12.3165 16.1322 12.4022 16.3094C13.0493 17.633 14.3829 18.9566 15.7208 19.603C15.8993 19.6879 16.0968 19.725 16.294 19.7107C16.4912 19.6965 16.6813 19.6313 16.8458 19.5216C16.8641 19.5092 16.8817 19.4959 16.8986 19.4816L18.635 18.0001L21.9922 19.5037C21.9922 19.5037 21.9979 19.5037 22 19.5037C21.9087 20.196 21.5682 20.8314 21.0424 21.2909C20.5165 21.7503 19.8412 22.0025 19.1429 22.0001Z" fill="#6A7487"/>
</svg>
