<svg width="20" height="20" viewBox="0 0 20 20" fill="none" xmlns="http://www.w3.org/2000/svg">
<path d="M19.9516 19.6139C19.8887 19.7668 19.7668 19.8884 19.6134 19.9517C19.5374 19.9837 19.4563 20 19.3752 20H15.0002C14.6544 20 14.3747 19.7204 14.3747 19.3751C14.3747 19.0297 14.6544 18.7502 15.0002 18.7502L17.8628 18.747L12.0583 12.9416C11.8138 12.6978 11.8138 12.3022 12.0583 12.0578C12.3022 11.814 12.6976 11.814 12.9421 12.0578L18.8063 17.9228V14.985C18.8063 14.6396 19.0295 14.3751 19.3752 14.3751C19.7203 14.3751 20 14.6546 20 15V19.3751C20 19.4566 19.9837 19.5374 19.9516 19.6139ZM19.3752 5.62492C19.0295 5.62492 18.8063 5.30149 18.8063 4.95612V2.07722L12.9421 7.94158C12.8196 8.06381 12.6599 8.12524 12.5002 8.12524C12.3399 8.12524 12.1803 8.06381 12.0583 7.94158C11.8138 7.69776 11.8138 7.30224 12.0583 7.05779L17.9206 1.19531H15.0347C14.689 1.19531 14.3747 0.969663 14.3747 0.624922C14.3747 0.279554 14.6544 0 15.0002 0H19.3752C19.4563 0 19.5374 0.0162969 19.6134 0.0482638C19.7668 0.111571 19.8887 0.23317 19.9516 0.38611C19.9837 0.46258 20 0.543437 20 0.624922V5C20 5.34474 19.7203 5.62492 19.3752 5.62492ZM2.13659 18.747L4.99984 18.7502C5.34557 18.7502 5.62467 19.0297 5.62467 19.3751C5.62467 19.7204 5.34557 20 4.99984 20H0.624823C0.543735 20 0.462646 19.9837 0.385957 19.9517C0.233209 19.8884 0.111261 19.7668 0.0477732 19.6139C0.0163435 19.5374 0 19.4566 0 19.3751V15C0 14.6546 0.279725 14.3751 0.624823 14.3751C0.97055 14.3751 1.20564 14.6396 1.20564 14.985V17.9102L7.05786 12.0578C7.30239 11.814 7.69777 11.814 7.94167 12.0578C8.18619 12.3022 8.18619 12.6978 7.94167 12.9416L2.13659 18.747ZM7.49976 8.12524C7.3401 8.12524 7.17981 8.06381 7.05786 7.94158L1.20564 2.08913V4.95612C1.20564 5.30149 0.97055 5.62492 0.624823 5.62492C0.279725 5.62492 0 5.34474 0 5V0.624922C0 0.543437 0.0163435 0.46258 0.0477732 0.38611C0.111261 0.23317 0.233209 0.111571 0.385957 0.0482638C0.462017 0.0162969 0.543106 0 0.623566 0C0.624195 0 0.624195 0 0.624823 0H4.99984C5.34557 0 5.62467 0.279554 5.62467 0.624922C5.62467 0.969663 5.32294 1.19531 4.97721 1.19531H2.07939L7.94167 7.05779C8.18619 7.30224 8.18619 7.69776 7.94167 7.94158C7.81972 8.06381 7.66006 8.12524 7.49976 8.12524Z" fill="white"/>
</svg>
