<svg width="56" height="56" viewBox="0 0 56 56" fill="none" xmlns="http://www.w3.org/2000/svg">
<rect width="56" height="56" rx="24" fill="#F45F5F"/>
<path d="M16.9665 34.442L22.9963 32.1439L23.0131 32.1377C23.3217 32.014 23.5947 31.8153 23.8072 31.5596C24.0197 31.3038 24.1651 30.9992 24.2302 30.6731C24.238 30.6349 24.2437 30.5962 24.247 30.5573L24.5643 26.5719C26.5893 25.871 29.393 25.8604 31.4003 26.5436L31.7477 30.5644C31.7521 30.6042 31.7574 30.643 31.7653 30.6828C31.8327 31.0056 31.9789 31.3066 32.1908 31.5592C32.4027 31.8118 32.6737 32.0081 32.9798 32.1306L32.9904 32.1412L39.0326 34.4411C39.4339 34.5997 39.8757 34.6243 40.2921 34.5112C40.7085 34.3981 41.0772 34.1534 41.3431 33.8135C42.3832 32.4582 42.8944 30.7707 42.7811 29.0661C42.6679 27.3614 41.9381 25.7563 40.7279 24.5504C33.7099 17.5324 22.2901 17.5324 15.2721 24.5504C14.0619 25.7563 13.332 27.3614 13.2188 29.0661C13.1056 30.7707 13.6168 32.4582 14.6569 33.8135C14.9226 34.1533 15.2911 34.3981 15.7073 34.5114C16.1235 34.6247 16.5652 34.6003 16.9665 34.442ZM16.6863 25.9647C19.6891 22.9684 23.7579 21.2856 28 21.2856C32.242 21.2856 36.3108 22.9684 39.3137 25.9647C40.1801 26.8244 40.704 27.9702 40.7874 29.188C40.8709 30.4058 40.5082 31.6123 39.7671 32.5823C39.764 32.5784 39.7604 32.5749 39.7565 32.5717L33.7461 30.2736L33.3864 26.2599C33.3836 26.22 33.3777 26.1804 33.3687 26.1414C33.2976 25.8043 33.1406 25.4913 32.913 25.2327C32.6854 24.9741 32.3948 24.7786 32.0694 24.6653C29.6308 23.8283 26.3427 23.8407 23.8873 24.6963C23.5613 24.8122 23.2709 25.0106 23.0446 25.2723C22.8183 25.534 22.6637 25.8499 22.5959 26.1892C22.5885 26.2271 22.5832 26.2655 22.58 26.3041L22.2645 30.286L16.2496 32.5796C16.2496 32.5796 16.2426 32.5867 16.2399 32.5894C15.4962 31.6196 15.1313 30.4121 15.2135 29.1928C15.2957 27.9735 15.8192 26.8259 16.6863 25.9647Z" fill="white"/>
</svg>
