<svg width="28" height="28" viewBox="0 0 28 28" fill="none" xmlns="http://www.w3.org/2000/svg">
<path d="M15.8592 2.51087C15.4303 2.33325 14.8868 2.33325 13.7996 2.33325C12.7124 2.33325 12.1688 2.33325 11.7399 2.51087C11.1682 2.74769 10.714 3.20193 10.4772 3.77365C10.3691 4.03465 10.3268 4.33817 10.3102 4.78091C10.2859 5.43155 9.95221 6.03379 9.38834 6.35934C8.82449 6.68487 8.1361 6.67272 7.56047 6.36847C7.16877 6.16144 6.88476 6.04631 6.60467 6.00944C5.99112 5.92866 5.37062 6.09492 4.87966 6.47165C4.51144 6.7542 4.23964 7.22497 3.69605 8.1665C3.15245 9.10805 2.88065 9.57881 2.82007 10.039C2.7393 10.6525 2.90556 11.273 3.28229 11.764C3.45423 11.9881 3.69589 12.1764 4.07097 12.4121C4.62234 12.7586 4.97712 13.3488 4.97708 13.9999C4.97705 14.651 4.62229 15.2411 4.07095 15.5875C3.69584 15.8233 3.45414 16.0117 3.28217 16.2358C2.90544 16.7268 2.73918 17.3472 2.81996 17.9608C2.88053 18.4209 3.15233 18.8918 3.69593 19.8333C4.23954 20.7748 4.51134 21.2456 4.87955 21.5281C5.3705 21.9048 5.99101 22.071 6.60456 21.9903C6.88462 21.9534 7.16862 21.8383 7.56029 21.6313C8.13596 21.3271 8.8244 21.3149 9.38829 21.6404C9.95219 21.966 10.2859 22.5683 10.3102 23.219C10.3268 23.6617 10.3691 23.9652 10.4772 24.2262C10.714 24.7979 11.1682 25.2522 11.7399 25.489C12.1688 25.6666 12.7124 25.6666 13.7996 25.6666C14.8868 25.6666 15.4303 25.6666 15.8592 25.489C16.4309 25.2522 16.8852 24.7979 17.1219 24.2262C17.23 23.9652 17.2724 23.6617 17.289 23.2189C17.3132 22.5683 17.6469 21.966 18.2107 21.6404C18.7746 21.3148 19.463 21.3271 20.0388 21.6313C20.4304 21.8383 20.7144 21.9533 20.9944 21.9902C21.608 22.071 22.2285 21.9048 22.7194 21.5281C23.0876 21.2455 23.3595 20.7748 23.903 19.8331C24.4467 18.8916 24.7185 18.4209 24.7791 17.9608C24.8598 17.3472 24.6936 16.7267 24.3168 16.2357C24.1449 16.0116 23.9031 15.8232 23.5281 15.5875C22.9768 15.2411 22.622 14.6509 22.622 13.9998C22.622 13.3487 22.9768 12.7587 23.5281 12.4123C23.9033 12.1765 24.145 11.9882 24.317 11.764C24.6937 11.2731 24.8599 10.6526 24.7792 10.0391C24.7186 9.57889 24.4468 9.10812 23.9031 8.16659C23.3596 7.22505 23.0878 6.75428 22.7196 6.47173C22.2286 6.09501 21.6081 5.92874 20.9945 6.00952C20.7145 6.04639 20.4306 6.16151 20.0388 6.36852C19.4632 6.67277 18.7747 6.68494 18.2109 6.35937C17.6469 6.03381 17.3132 5.43152 17.289 4.78085C17.2724 4.33815 17.23 4.03464 17.1219 3.77365C16.8852 3.20193 16.4309 2.74769 15.8592 2.51087Z" stroke="white" stroke-width="1.25"/>
<path d="M14 17.5C15.933 17.5 17.5 15.933 17.5 14C17.5 12.067 15.933 10.5 14 10.5C12.067 10.5 10.5 12.067 10.5 14C10.5 15.933 12.067 17.5 14 17.5Z" stroke="white" stroke-width="1.25"/>
</svg>
