<svg width="16" height="18" viewBox="0 0 16 18" fill="none" xmlns="http://www.w3.org/2000/svg">
<path d="M8 3.5C6.71443 3.5 5.45772 3.88122 4.3888 4.59545C3.31988 5.30968 2.48676 6.32484 1.99479 7.51256C1.50282 8.70028 1.37409 10.0072 1.6249 11.2681C1.8757 12.529 2.49477 13.6872 3.40381 14.5962C4.31285 15.5052 5.47104 16.1243 6.73192 16.3751C7.99279 16.6259 9.29973 16.4972 10.4874 16.0052C11.6752 15.5132 12.6903 14.6801 13.4046 13.6112C14.1188 12.5423 14.5 11.2856 14.5 10C14.4982 8.27665 13.8128 6.62441 12.5942 5.40582C11.3756 4.18722 9.72335 3.50182 8 3.5ZM8 15.5C6.91221 15.5 5.84884 15.1774 4.94437 14.5731C4.0399 13.9687 3.33495 13.1098 2.91867 12.1048C2.50238 11.0998 2.39347 9.9939 2.60568 8.927C2.8179 7.86011 3.34173 6.8801 4.11092 6.11091C4.8801 5.34172 5.86011 4.8179 6.92701 4.60568C7.9939 4.39346 9.09977 4.50238 10.1048 4.91866C11.1098 5.33494 11.9687 6.03989 12.5731 6.94436C13.1774 7.84883 13.5 8.9122 13.5 10C13.4984 11.4582 12.9184 12.8562 11.8873 13.8873C10.8562 14.9184 9.45819 15.4983 8 15.5ZM12 10C12 10.1326 11.9473 10.2598 11.8536 10.3536C11.7598 10.4473 11.6326 10.5 11.5 10.5H8C7.8674 10.5 7.74022 10.4473 7.64645 10.3536C7.55268 10.2598 7.5 10.1326 7.5 10V6.5C7.5 6.36739 7.55268 6.24022 7.64645 6.14645C7.74022 6.05268 7.8674 6 8 6C8.13261 6 8.25979 6.05268 8.35356 6.14645C8.44733 6.24022 8.5 6.36739 8.5 6.5V9.5H11.5C11.6326 9.5 11.7598 9.55268 11.8536 9.64645C11.9473 9.74022 12 9.86739 12 10Z" fill="black"/>
</svg>
