<svg width="20" height="20" viewBox="0 0 20 20" fill="none" xmlns="http://www.w3.org/2000/svg">
<path d="M17.8488 17.0359L13.8347 13.0218C14.9794 11.7055 15.5682 9.99607 15.4771 8.254C15.3861 6.51193 14.6221 4.87328 13.3464 3.68347C12.0707 2.49366 10.3828 1.84564 8.63866 1.87602C6.89447 1.9064 5.23021 2.6128 3.9967 3.84631C2.76319 5.07982 2.05679 6.74408 2.02641 8.48827C1.99603 10.2325 2.64405 11.9203 3.83386 13.196C5.02367 14.4717 6.66232 15.2357 8.40439 15.3268C10.1465 15.4179 11.8559 14.829 13.1722 13.6843L17.1863 17.6984C17.2752 17.7812 17.3927 17.8263 17.5141 17.8241C17.6356 17.822 17.7514 17.7728 17.8373 17.6869C17.9232 17.601 17.9724 17.4852 17.9745 17.3637C17.9767 17.2423 17.9316 17.1248 17.8488 17.0359ZM2.98629 8.61715C2.98629 7.47373 3.32536 6.35598 3.96061 5.40526C4.59586 4.45454 5.49877 3.71354 6.55515 3.27597C7.61154 2.8384 8.77395 2.72391 9.89541 2.94699C11.0169 3.17006 12.047 3.72067 12.8555 4.52919C13.664 5.33771 14.2146 6.36783 14.4377 7.48928C14.6608 8.61074 14.5463 9.77315 14.1087 10.8295C13.6712 11.8859 12.9302 12.7888 11.9794 13.4241C11.0287 14.0593 9.91096 14.3984 8.76754 14.3984C7.23483 14.3965 5.76543 13.7868 4.68164 12.7031C3.59784 11.6193 2.98815 10.1499 2.98629 8.61715Z" fill="#7E8BA2"/>
</svg>
