<svg width="10" height="24" viewBox="0 0 10 24" fill="none" xmlns="http://www.w3.org/2000/svg">
<g opacity="0.8">
<path d="M6.98538 16.11L2.86721 11.9913L6.98855 7.86943L6.98868 7.86957L6.99589 7.86183C7.10951 7.73989 7.17137 7.57861 7.16843 7.41197C7.16549 7.24533 7.09798 7.08633 6.98013 6.96848C6.86227 6.85063 6.70328 6.78312 6.53663 6.78018C6.36999 6.77724 6.20871 6.83909 6.08677 6.95272L6.08665 6.95258L6.07916 6.96007L1.5026 11.5366L1.50247 11.5368C1.38201 11.6574 1.31435 11.8209 1.31435 11.9913C1.31435 12.1618 1.38201 12.3253 1.50247 12.4459L1.5026 12.446L6.07601 17.0194C6.13406 17.0805 6.20358 17.1297 6.28061 17.164L6.40271 16.89L6.28062 17.164C6.35952 17.1992 6.44469 17.2181 6.53106 17.2196C6.61743 17.2211 6.70322 17.2052 6.78332 17.1729C6.86341 17.1405 6.93617 17.0924 6.99725 17.0313C7.05833 16.9702 7.10648 16.8974 7.13884 16.8173C7.17119 16.7372 7.18707 16.6515 7.18555 16.5651C7.18403 16.4787 7.16512 16.3935 7.12997 16.3146L6.85594 16.4367L7.12997 16.3146C7.09564 16.2376 7.04651 16.1681 6.98538 16.11Z" fill="white" stroke="white" stroke-width="0.6"/>
</g>
</svg>
