<svg width="16" height="16" viewBox="0 0 16 16" fill="none" xmlns="http://www.w3.org/2000/svg">
<path d="M9.00001 10.3546C9.78382 9.86639 10.3873 9.1362 10.7192 8.27449C11.051 7.41278 11.0932 6.46643 10.8394 5.5786C10.5855 4.69078 10.0494 3.9098 9.31209 3.35381C8.57483 2.79782 7.67654 2.49707 6.75313 2.49707C5.82973 2.49707 4.93144 2.79782 4.19418 3.35381C3.45691 3.9098 2.92079 4.69078 2.66691 5.5786C2.41304 6.46643 2.45523 7.41278 2.78709 8.27449C3.11896 9.1362 3.72245 9.86639 4.50626 10.3546C3.21563 10.7771 2.05438 11.5664 1.12063 12.6777C1.03527 12.7792 0.993729 12.9105 1.00516 13.0427C1.01658 13.1748 1.08004 13.297 1.18157 13.3824C1.2831 13.4678 1.41438 13.5093 1.54654 13.4979C1.67869 13.4864 1.80089 13.423 1.88626 13.3214C3.14063 11.8239 4.86938 10.9996 6.75001 10.9996C8.63063 10.9996 10.3594 11.8239 11.6175 13.3214C11.7029 13.423 11.8251 13.4864 11.9572 13.4979C12.0894 13.5093 12.2207 13.4678 12.3222 13.3824C12.4237 13.297 12.4872 13.1748 12.4986 13.0427C12.51 12.9105 12.4685 12.7792 12.3831 12.6777C11.4488 11.5664 10.2875 10.7771 9.00001 10.3546ZM3.50001 6.74957C3.50001 6.10678 3.69062 5.47843 4.04773 4.94397C4.40485 4.40951 4.91243 3.99295 5.50629 3.74696C6.10015 3.50098 6.75361 3.43662 7.38405 3.56202C8.01449 3.68742 8.59358 3.99695 9.04811 4.45147C9.50263 4.90599 9.81216 5.48509 9.93756 6.11553C10.063 6.74597 9.9986 7.39943 9.75262 7.99329C9.50663 8.58715 9.09007 9.09473 8.55561 9.45185C8.02115 9.80896 7.3928 9.99957 6.75001 9.99957C5.88836 9.99858 5.06229 9.65585 4.45301 9.04657C3.84373 8.43729 3.501 7.61122 3.50001 6.74957ZM12.96 4.09957C13.3163 4.93762 13.5 5.83892 13.5 6.74957C13.5 7.66022 13.3163 8.56152 12.96 9.39957C12.9215 9.48971 12.8574 9.56656 12.7756 9.62056C12.6939 9.67457 12.598 9.70334 12.5 9.70332C12.4172 9.70339 12.3358 9.6829 12.2629 9.64371C12.19 9.60452 12.1279 9.54784 12.0823 9.47877C12.0367 9.40969 12.009 9.33038 12.0016 9.24794C11.9942 9.16551 12.0074 9.08253 12.04 9.00645C12.3436 8.29275 12.5 7.52514 12.5 6.74957C12.5 5.974 12.3436 5.2064 12.04 4.4927C11.9879 4.3707 11.9863 4.23298 12.0357 4.10985C12.0852 3.98672 12.1814 3.88826 12.3034 3.83613C12.4254 3.784 12.5632 3.78247 12.6863 3.83187C12.8094 3.88128 12.9079 3.97757 12.96 4.09957ZM15.5 6.74957C15.5024 7.93463 15.2622 9.10764 14.7944 10.1964C14.7397 10.3144 14.6411 10.4065 14.5197 10.453C14.3982 10.4995 14.2634 10.4969 14.1438 10.4457C14.0243 10.3944 13.9294 10.2986 13.8793 10.1786C13.8292 10.0585 13.8279 9.9237 13.8756 9.8027C14.2876 8.83754 14.5 7.79898 14.5 6.74957C14.5 5.70016 14.2876 4.6616 13.8756 3.69645C13.8475 3.63576 13.8318 3.57004 13.8295 3.50319C13.8272 3.43633 13.8384 3.3697 13.8623 3.30723C13.8863 3.24476 13.9225 3.18773 13.9688 3.13951C14.0152 3.0913 14.0708 3.05288 14.1323 3.02653C14.1938 3.00017 14.2599 2.98643 14.3268 2.9861C14.3937 2.98578 14.46 2.99888 14.5217 3.02463C14.5835 3.05038 14.6394 3.08826 14.6862 3.13602C14.7331 3.18379 14.7698 3.24046 14.7944 3.30269C15.2622 4.3915 15.5024 5.56451 15.5 6.74957Z" fill="#283B52"/>
</svg>
