<svg width="32" height="32" viewBox="0 0 32 32" fill="none" xmlns="http://www.w3.org/2000/svg">
<rect x="0.285714" y="0.285714" width="31.4286" height="31.4286" rx="14" fill="#F4F7FA"/>
<rect x="0.285714" y="0.285714" width="31.4286" height="31.4286" rx="14" stroke="#F3F6F9" stroke-width="0.571429"/>
<path d="M23.3704 12.7699C23.2954 12.7297 23.211 12.7107 23.1261 12.7147C23.0412 12.7187 22.959 12.7457 22.8882 12.7928L20.7998 14.1824V12.7112C20.7998 12.4619 20.7007 12.2229 20.5245 12.0467C20.3483 11.8705 20.1093 11.7715 19.8601 11.7715H10.4632C10.214 11.7715 9.97501 11.8705 9.79879 12.0467C9.62256 12.2229 9.52356 12.4619 9.52356 12.7112V19.2889C9.52356 19.5382 9.62256 19.7772 9.79879 19.9534C9.97501 20.1296 10.214 20.2286 10.4632 20.2286H19.8601C20.1093 20.2286 20.3483 20.1296 20.5245 19.9534C20.7007 19.7772 20.7998 19.5382 20.7998 19.2889V17.8207L22.8882 19.2132C22.9658 19.2636 23.0565 19.2899 23.149 19.2889C23.2736 19.2889 23.3931 19.2394 23.4812 19.1513C23.5693 19.0632 23.6188 18.9437 23.6188 18.8191V13.181C23.6182 13.0965 23.5948 13.0137 23.5511 12.9413C23.5074 12.869 23.4449 12.8097 23.3704 12.7699ZM19.8601 19.2889H10.4632V12.7112H19.8601V19.2889ZM22.6791 17.9411L20.7998 16.6884V15.3117L22.6791 14.062V17.9411Z" fill="#283B52"/>
</svg>
