<svg width="16" height="16" viewBox="0 0 16 16" fill="none" xmlns="http://www.w3.org/2000/svg">
<path d="M14.0357 2.42877H9.85714C9.49675 2.42877 9.14131 2.51268 8.81897 2.67385C8.49662 2.83502 8.21623 3.06903 8 3.35734C7.78377 3.06903 7.50337 2.83502 7.18103 2.67385C6.85869 2.51268 6.50325 2.42877 6.14286 2.42877H1.96429C1.84115 2.42877 1.72306 2.47769 1.63599 2.56476C1.54892 2.65183 1.5 2.76992 1.5 2.89306V11.2502C1.5 11.3733 1.54892 11.4914 1.63599 11.5785C1.72306 11.6656 1.84115 11.7145 1.96429 11.7145H6.14286C6.51227 11.7145 6.86654 11.8612 7.12776 12.1224C7.38897 12.3837 7.53571 12.7379 7.53571 13.1073C7.53571 13.2305 7.58463 13.3486 7.6717 13.4356C7.75877 13.5227 7.87686 13.5716 8 13.5716C8.12314 13.5716 8.24123 13.5227 8.3283 13.4356C8.41537 13.3486 8.46429 13.2305 8.46429 13.1073C8.46429 12.7379 8.61103 12.3837 8.87224 12.1224C9.13346 11.8612 9.48773 11.7145 9.85714 11.7145H14.0357C14.1588 11.7145 14.2769 11.6656 14.364 11.5785C14.4511 11.4914 14.5 11.3733 14.5 11.2502V2.89306C14.5 2.76992 14.4511 2.65183 14.364 2.56476C14.2769 2.47769 14.1588 2.42877 14.0357 2.42877ZM6.14286 10.7859H2.42857V3.35734H6.14286C6.51227 3.35734 6.86654 3.50409 7.12776 3.7653C7.38897 4.02651 7.53571 4.38079 7.53571 4.7502V11.2502C7.13426 10.9481 6.64527 10.7851 6.14286 10.7859ZM13.5714 10.7859H9.85714C9.35473 10.7851 8.86574 10.9481 8.46429 11.2502V4.7502C8.46429 4.38079 8.61103 4.02651 8.87224 3.7653C9.13346 3.50409 9.48773 3.35734 9.85714 3.35734H13.5714V10.7859Z" fill="#283B52"/>
</svg>
