<svg width="24" height="24" viewBox="0 0 24 24" fill="none" xmlns="http://www.w3.org/2000/svg">
<path d="M20.1786 18.2235L20.1786 18.2235L20.176 18.2238L19.866 18.2638L19.8635 18.2641C18.1692 18.4914 15.8162 19.1863 13.9274 19.9783C13.616 20.107 13.25 19.8727 13.25 19.5097V5.59969C13.25 5.42196 13.3517 5.24589 13.5288 5.14899C15.3004 4.19077 17.9898 3.33782 19.7916 3.17969H19.83C20.7539 3.17969 21.5 3.92583 21.5 4.84969V16.7397C21.5 17.455 20.9004 18.1342 20.1786 18.2235Z" fill="#1863D3" stroke="#1863D3"/>
<path d="M3.81139 18.2235L3.81399 18.2238L4.12399 18.2638L4.12648 18.2641C5.82083 18.4914 8.17373 19.1862 10.0625 19.9782M3.81139 18.2235L4.23001 3.17969H4.20844M3.81139 18.2235C3.08961 18.1342 2.49001 17.455 2.49001 16.7397V4.84969C2.49001 3.92583 3.23615 3.17969 4.16001 3.17969H4.20844M3.81139 18.2235L4.20844 3.17969M10.0625 19.9782C10.0628 19.9784 10.0631 19.9785 10.0634 19.9786L9.87006 20.4396L10.0618 19.9779C10.062 19.978 10.0623 19.9781 10.0625 19.9782ZM10.0625 19.9782C10.374 20.107 10.74 19.8728 10.74 19.5097V5.59969C10.74 5.40559 10.6426 5.2427 10.4712 5.14897M10.4712 5.14897C10.4715 5.14913 10.4718 5.1493 10.4721 5.14946L10.71 4.70969L10.4706 5.14864C10.4708 5.14875 10.471 5.14886 10.4712 5.14897ZM10.4712 5.14897C8.69956 4.19075 6.01016 3.33782 4.20844 3.17969M7.25001 7.23969H5.00001C4.31386 7.23969 3.75001 7.80354 3.75001 8.48969C3.75001 9.19016 4.31822 9.73969 5.00001 9.73969H7.25001C7.93179 9.73969 8.50001 9.19016 8.50001 8.48969C8.50001 7.80354 7.93615 7.23969 7.25001 7.23969ZM5.00001 12.7397H8.00001C8.68179 12.7397 9.25001 12.1902 9.25001 11.4897C9.25001 10.8035 8.68615 10.2397 8.00001 10.2397H5.00001C4.31386 10.2397 3.75001 10.8035 3.75001 11.4897C3.75001 12.1902 4.31822 12.7397 5.00001 12.7397Z" fill="#1863D3" stroke="#1863D3"/>
</svg>
