<svg width="18" height="18" viewBox="0 0 18 18" fill="none" xmlns="http://www.w3.org/2000/svg">
<path d="M15.023 4.66453L12.2105 1.85203C12.1582 1.79981 12.0961 1.7584 12.0279 1.73017C11.9596 1.70194 11.8864 1.68744 11.8125 1.6875H6.1875C5.88913 1.6875 5.60298 1.80603 5.392 2.017C5.18103 2.22798 5.0625 2.51413 5.0625 2.8125V3.9375H3.9375C3.63913 3.9375 3.35298 4.05603 3.142 4.267C2.93103 4.47798 2.8125 4.76413 2.8125 5.0625V15.1875C2.8125 15.4859 2.93103 15.772 3.142 15.983C3.35298 16.194 3.63913 16.3125 3.9375 16.3125H11.8125C12.1109 16.3125 12.397 16.194 12.608 15.983C12.819 15.772 12.9375 15.4859 12.9375 15.1875V14.0625H14.0625C14.3609 14.0625 14.647 13.944 14.858 13.733C15.069 13.522 15.1875 13.2359 15.1875 12.9375V5.0625C15.1876 4.98861 15.1731 4.91543 15.1448 4.84715C15.1166 4.77886 15.0752 4.71681 15.023 4.66453ZM11.8125 15.1875H3.9375V5.0625H9.32977L11.8125 7.54523V13.4887C11.8125 13.493 11.8125 13.4965 11.8125 13.5C11.8125 13.5035 11.8125 13.507 11.8125 13.5113V15.1875ZM14.0625 12.9375H12.9375V7.3125C12.9376 7.23861 12.9231 7.16543 12.8948 7.09715C12.8666 7.02886 12.8252 6.96681 12.773 6.91453L9.96047 4.10203C9.90819 4.04981 9.84614 4.0084 9.77785 3.98017C9.70957 3.95194 9.63639 3.93744 9.5625 3.9375H6.1875V2.8125H11.5798L14.0625 5.29523V12.9375ZM10.125 10.6875C10.125 10.8367 10.0657 10.9798 9.96025 11.0852C9.85476 11.1907 9.71168 11.25 9.5625 11.25H6.1875C6.03832 11.25 5.89524 11.1907 5.78975 11.0852C5.68426 10.9798 5.625 10.8367 5.625 10.6875C5.625 10.5383 5.68426 10.3952 5.78975 10.2898C5.89524 10.1843 6.03832 10.125 6.1875 10.125H9.5625C9.71168 10.125 9.85476 10.1843 9.96025 10.2898C10.0657 10.3952 10.125 10.5383 10.125 10.6875ZM10.125 12.9375C10.125 13.0867 10.0657 13.2298 9.96025 13.3352C9.85476 13.4407 9.71168 13.5 9.5625 13.5H6.1875C6.03832 13.5 5.89524 13.4407 5.78975 13.3352C5.68426 13.2298 5.625 13.0867 5.625 12.9375C5.625 12.7883 5.68426 12.6452 5.78975 12.5398C5.89524 12.4343 6.03832 12.375 6.1875 12.375H9.5625C9.71168 12.375 9.85476 12.4343 9.96025 12.5398C10.0657 12.6452 10.125 12.7883 10.125 12.9375Z" fill="#BAC1CA"/>
</svg>
