<svg width="24" height="24" viewBox="0 0 24 24" fill="none" xmlns="http://www.w3.org/2000/svg">
<path d="M15.8972 6.80549C15.2184 5.21639 14.0118 3.91041 12.4812 3.10835C10.9506 2.30628 9.19006 2.05733 7.49712 2.40359C5.80418 2.74986 4.28274 3.67008 3.19001 5.0087C2.09727 6.34731 1.5003 8.02219 1.5 9.75018V15.7502C1.5 16.148 1.65804 16.5295 1.93934 16.8108C2.22064 17.0921 2.60218 17.2502 3 17.2502H8.12531C8.71058 18.5867 9.67231 19.724 10.8931 20.5231C12.1139 21.3222 13.5409 21.7486 15 21.7502H21C21.3978 21.7502 21.7794 21.5921 22.0607 21.3108C22.342 21.0295 22.5 20.648 22.5 20.2502V14.2502C22.4996 12.4167 21.8277 10.6468 20.6111 9.2751C19.3945 7.90338 17.7175 7.02483 15.8972 6.80549ZM21 20.2502H15C13.939 20.249 12.8973 19.9671 11.9805 19.4331C11.0637 18.8991 10.3045 18.1321 9.78 17.2099C10.8072 17.1033 11.8013 16.7855 12.6999 16.2765C13.5985 15.7674 14.3822 15.0782 15.0018 14.2519C15.6213 13.4256 16.0634 12.4802 16.3003 11.475C16.5371 10.4698 16.5636 9.42645 16.3781 8.41049C17.6937 8.72096 18.8659 9.46656 19.7048 10.5265C20.5436 11.5864 21 12.8985 21 14.2502V20.2502Z" fill="#1863D3"/>
</svg>
