<svg width="12" height="12" viewBox="0 0 12 12" fill="none" xmlns="http://www.w3.org/2000/svg">
<path d="M6.00005 1.075H6C5.02593 1.075 4.07373 1.36385 3.26382 1.90501C2.45391 2.44618 1.82266 3.21536 1.4499 4.11528C1.07713 5.01521 0.979602 6.00546 1.16963 6.96082C1.35967 7.91618 1.82873 8.79373 2.5175 9.4825C3.20627 10.1713 4.08383 10.6403 5.03918 10.8304C5.99454 11.0204 6.98479 10.9229 7.88472 10.5501C8.78464 10.1773 9.55382 9.5461 10.095 8.73618C10.6362 7.92627 10.925 6.97407 10.925 6V5.99995C10.9236 4.69419 10.4043 3.44231 9.481 2.51901C8.55769 1.5957 7.30581 1.07638 6.00005 1.075ZM5.99995 10.075C5.19401 10.075 4.40617 9.83599 3.73605 9.38824C3.06592 8.94047 2.54362 8.30404 2.23519 7.55944C1.92677 6.81483 1.84607 5.99548 2.0033 5.20501C2.16054 4.41453 2.54864 3.68844 3.11854 3.11854C3.68844 2.54864 4.41454 2.16053 5.20501 2.0033C5.99548 1.84607 6.81483 1.92676 7.55944 2.23519C8.30405 2.54362 8.94047 3.06592 9.38824 3.73605C9.836 4.40617 10.075 5.194 10.075 5.99994C10.0738 7.08034 9.64405 8.11613 8.88009 8.88009C8.11614 9.64405 7.08034 10.0738 5.99995 10.075ZM8.92552 6.30052C9.00523 6.22082 9.05 6.11272 9.05 6C9.05 5.88728 9.00523 5.77918 8.92552 5.69948C8.84582 5.61978 8.73772 5.575 8.625 5.575H6.425V3.375C6.425 3.26228 6.38023 3.15418 6.30052 3.07448C6.22082 2.99478 6.11272 2.95 6 2.95C5.88729 2.95 5.77918 2.99478 5.69948 3.07448C5.61978 3.15418 5.575 3.26228 5.575 3.375V6C5.575 6.11272 5.61978 6.22082 5.69948 6.30052C5.77918 6.38022 5.88729 6.425 6 6.425H8.625C8.73772 6.425 8.84582 6.38022 8.92552 6.30052Z" fill="#BAC1CA" stroke="#BAC1CA" stroke-width="0.1"/>
</svg>
