<svg width="25" height="26" viewBox="0 0 25 26" fill="none" xmlns="http://www.w3.org/2000/svg">
<g clip-path="url(#clip0_649_2163)">
<path d="M22.3754 3.66456C22.1279 3.41886 21.8175 3.24612 21.4783 3.16535C21.1391 3.08458 20.7841 3.09889 20.4525 3.20672L1.31469 9.59035C0.95976 9.7028 0.646125 9.91794 0.413384 10.2086C0.180644 10.4992 0.0392489 10.8522 0.00705609 11.2232C-0.0251367 11.5941 0.0533111 11.9662 0.232497 12.2926C0.411697 12.619 0.683576 12.8849 1.01382 13.0569L8.95411 16.9813L12.8785 24.9477C13.0362 25.2594 13.2776 25.5213 13.5756 25.7038C13.8736 25.8863 14.2165 25.9823 14.5659 25.9811H14.6968C15.071 25.9535 15.4283 25.8141 15.7222 25.5807C16.0161 25.3475 16.2331 25.0312 16.345 24.673L22.8202 5.5875C22.9358 5.25776 22.9554 4.90197 22.8767 4.56153C22.7979 4.2211 22.6241 3.91005 22.3754 3.66456ZM2.12573 11.3956L18.8304 5.82296L9.55584 15.0976L2.12573 11.3956ZM14.6575 23.9143L10.9425 16.4842L20.217 7.20957L14.6575 23.9143Z" fill="white"/>
</g>
<defs>
<clipPath id="clip0_649_2163">
<rect width="24.0865" height="25.0318" fill="white" transform="scale(1.03792)"/>
</clipPath>
</defs>
</svg>
