<svg width="296" height="56" viewBox="0 0 296 56" fill="none" xmlns="http://www.w3.org/2000/svg">
<rect x="0.5" y="0.5" width="55" height="55" rx="23.5" fill="#424242"/>
<rect x="0.5" y="0.5" width="55" height="55" rx="23.5" stroke="#59595A"/>
<path d="M40.8985 22.3468C40.7674 22.2766 40.6197 22.2432 40.4711 22.2502C40.3225 22.2573 40.1786 22.3045 40.0547 22.3869L36.4 24.8186V22.2441C36.4 21.8079 36.2267 21.3896 35.9183 21.0813C35.6099 20.7729 35.1916 20.5996 34.7555 20.5996H18.3111C17.8749 20.5996 17.4567 20.7729 17.1483 21.0813C16.8399 21.3896 16.6666 21.8079 16.6666 22.2441V33.7552C16.6666 34.1913 16.8399 34.6096 17.1483 34.918C17.4567 35.2264 17.8749 35.3996 18.3111 35.3996H34.7555C35.1916 35.3996 35.6099 35.2264 35.9183 34.918C36.2267 34.6096 36.4 34.1913 36.4 33.7552V31.1857L40.0547 33.6226C40.1905 33.7107 40.3492 33.7568 40.5111 33.7552C40.7291 33.7552 40.9383 33.6685 41.0925 33.5143C41.2467 33.3601 41.3333 33.151 41.3333 32.9329V23.0663C41.3323 22.9183 41.2913 22.7734 41.2148 22.6468C41.1383 22.5202 41.029 22.4165 40.8985 22.3468ZM34.7555 33.7552H18.3111V22.2441H34.7555V33.7552ZM39.6888 31.3964L36.4 29.2042V26.7951L39.6888 24.6079V31.3964Z" fill="#EDEDED"/>
<rect x="80.5" y="0.5" width="55" height="55" rx="23.5" fill="#424242"/>
<rect x="80.5" y="0.5" width="55" height="55" rx="23.5" stroke="#59595A"/>
<path d="M115.826 20.8478H113.114L111.781 18.8483C111.71 18.7412 111.613 18.6534 111.499 18.5926C111.386 18.5319 111.259 18.5001 111.13 18.5H104.87C104.741 18.5001 104.614 18.5319 104.501 18.5926C104.387 18.6534 104.29 18.7412 104.219 18.8483L102.885 20.8478H100.174C99.5512 20.8478 98.954 21.0952 98.5137 21.5355C98.0734 21.9758 97.826 22.573 97.826 23.1957V34.1522C97.826 34.7749 98.0734 35.372 98.5137 35.8123C98.954 36.2526 99.5512 36.5 100.174 36.5H115.826C116.449 36.5 117.046 36.2526 117.486 35.8123C117.927 35.372 118.174 34.7749 118.174 34.1522V23.1957C118.174 22.573 117.927 21.9758 117.486 21.5355C117.046 21.0952 116.449 20.8478 115.826 20.8478ZM116.609 34.1522C116.609 34.3597 116.526 34.5588 116.379 34.7056C116.233 34.8523 116.034 34.9348 115.826 34.9348H100.174C99.9663 34.9348 99.7673 34.8523 99.6205 34.7056C99.4737 34.5588 99.3913 34.3597 99.3913 34.1522V23.1957C99.3913 22.9881 99.4737 22.789 99.6205 22.6423C99.7673 22.4955 99.9663 22.413 100.174 22.413H103.304C103.433 22.4131 103.56 22.3814 103.674 22.3206C103.787 22.2599 103.884 22.172 103.956 22.0648L105.288 20.0652H110.711L112.044 22.0648C112.116 22.172 112.213 22.2599 112.326 22.3206C112.44 22.3814 112.567 22.4131 112.696 22.413H115.826C116.034 22.413 116.233 22.4955 116.379 22.6423C116.526 22.789 116.609 22.9881 116.609 23.1957V34.1522ZM112.696 24.7609V27.1087C112.696 27.3163 112.613 27.5153 112.466 27.6621C112.32 27.8089 112.121 27.8913 111.913 27.8913H109.565C109.358 27.8913 109.159 27.8089 109.012 27.6621C108.865 27.5153 108.783 27.3163 108.783 27.1087C108.783 26.9011 108.865 26.7021 109.012 26.5553C109.159 26.4085 109.358 26.3261 109.565 26.3261H110.069C109.528 25.8525 108.842 25.5785 108.124 25.5498C107.406 25.5212 106.699 25.7396 106.123 26.1686C105.957 26.2934 105.748 26.3472 105.542 26.3181C105.337 26.289 105.151 26.1795 105.027 26.0135C104.902 25.8476 104.848 25.6389 104.877 25.4333C104.906 25.2278 105.016 25.0422 105.182 24.9174C106.052 24.2697 107.118 23.9417 108.202 23.9885C109.285 24.0354 110.32 24.4543 111.13 25.1747V24.7609C111.13 24.5533 111.213 24.3542 111.36 24.2075C111.506 24.0607 111.705 23.9783 111.913 23.9783C112.121 23.9783 112.32 24.0607 112.466 24.2075C112.613 24.3542 112.696 24.5533 112.696 24.7609ZM110.973 30.5522C111.098 30.718 111.151 30.9265 111.122 31.132C111.093 31.3375 110.984 31.523 110.818 31.6478C109.948 32.2955 108.882 32.6235 107.798 32.5767C106.715 32.5298 105.68 32.1109 104.87 31.3905V31.8043C104.87 32.0119 104.787 32.211 104.64 32.3577C104.494 32.5045 104.294 32.587 104.087 32.587C103.879 32.587 103.68 32.5045 103.534 32.3577C103.387 32.211 103.304 32.0119 103.304 31.8043V29.4565C103.304 29.249 103.387 29.0499 103.534 28.9031C103.68 28.7564 103.879 28.6739 104.087 28.6739H106.435C106.642 28.6739 106.841 28.7564 106.988 28.9031C107.135 29.0499 107.217 29.249 107.217 29.4565C107.217 29.6641 107.135 29.8631 106.988 30.0099C106.841 30.1567 106.642 30.2391 106.435 30.2391H105.931C106.472 30.7127 107.158 30.9867 107.876 31.0154C108.594 31.044 109.301 30.8257 109.877 30.3966C110.043 30.272 110.252 30.2184 110.457 30.2475C110.663 30.2767 110.848 30.3863 110.973 30.5522Z" fill="#EDEDED"/>
<rect x="160.5" y="0.5" width="55" height="55" rx="23.5" fill="#424242"/>
<rect x="160.5" y="0.5" width="55" height="55" rx="23.5" stroke="#59595A"/>
<g clip-path="url(#clip0_321_4846)">
<path d="M188 31.5744C189.097 31.5732 190.149 31.1369 190.925 30.3611C191.701 29.5854 192.137 28.5335 192.138 27.4364V21.9192C192.138 20.8217 191.702 19.7692 190.926 18.9932C190.15 18.2172 189.098 17.7812 188 17.7812C186.903 17.7812 185.85 18.2172 185.074 18.9932C184.298 19.7692 183.862 20.8217 183.862 21.9192V27.4364C183.863 28.5335 184.3 29.5854 185.075 30.3611C185.851 31.1369 186.903 31.5732 188 31.5744ZM185.241 21.9192C185.241 21.1875 185.532 20.4859 186.049 19.9685C186.567 19.4512 187.268 19.1606 188 19.1606C188.732 19.1606 189.433 19.4512 189.951 19.9685C190.468 20.4859 190.759 21.1875 190.759 21.9192V27.4364C190.759 28.1681 190.468 28.8697 189.951 29.3871C189.433 29.9044 188.732 30.195 188 30.195C187.268 30.195 186.567 29.9044 186.049 29.3871C185.532 28.8697 185.241 28.1681 185.241 27.4364V21.9192ZM188.69 34.2985V37.0916C188.69 37.2745 188.617 37.4499 188.488 37.5793C188.358 37.7086 188.183 37.7812 188 37.7812C187.817 37.7812 187.642 37.7086 187.512 37.5793C187.383 37.4499 187.31 37.2745 187.31 37.0916V34.2985C185.61 34.1255 184.034 33.3281 182.888 32.0606C181.741 30.7931 181.106 29.1455 181.104 27.4364C181.104 27.2535 181.176 27.0781 181.306 26.9488C181.435 26.8194 181.61 26.7468 181.793 26.7468C181.976 26.7468 182.151 26.8194 182.281 26.9488C182.41 27.0781 182.483 27.2535 182.483 27.4364C182.483 28.8997 183.064 30.303 184.099 31.3377C185.133 32.3724 186.537 32.9537 188 32.9537C189.463 32.9537 190.867 32.3724 191.901 31.3377C192.936 30.303 193.517 28.8997 193.517 27.4364C193.517 27.2535 193.59 27.0781 193.719 26.9488C193.849 26.8194 194.024 26.7468 194.207 26.7468C194.39 26.7468 194.565 26.8194 194.695 26.9488C194.824 27.0781 194.897 27.2535 194.897 27.4364C194.895 29.1455 194.259 30.7931 193.112 32.0606C191.966 33.3281 190.39 34.1255 188.69 34.2985Z" fill="#EDEDED"/>
</g>
<rect x="240" width="56" height="56" rx="24" fill="#F45F5F"/>
<path d="M256.966 34.442L262.996 32.1439L263.013 32.1377C263.322 32.014 263.595 31.8153 263.807 31.5596C264.02 31.3038 264.165 30.9992 264.23 30.6731C264.238 30.6349 264.244 30.5962 264.247 30.5573L264.564 26.5719C266.589 25.871 269.393 25.8604 271.4 26.5436L271.748 30.5644C271.752 30.6042 271.757 30.643 271.765 30.6828C271.833 31.0056 271.979 31.3066 272.191 31.5592C272.403 31.8118 272.674 32.0081 272.98 32.1306L272.99 32.1412L279.033 34.4411C279.434 34.5997 279.876 34.6243 280.292 34.5112C280.709 34.3981 281.077 34.1534 281.343 33.8135C282.383 32.4582 282.894 30.7707 282.781 29.0661C282.668 27.3614 281.938 25.7563 280.728 24.5504C273.71 17.5324 262.29 17.5324 255.272 24.5504C254.062 25.7563 253.332 27.3614 253.219 29.0661C253.106 30.7707 253.617 32.4582 254.657 33.8135C254.923 34.1533 255.291 34.3981 255.707 34.5114C256.124 34.6247 256.565 34.6003 256.966 34.442ZM256.686 25.9647C259.689 22.9684 263.758 21.2856 268 21.2856C272.242 21.2856 276.311 22.9684 279.314 25.9647C280.18 26.8244 280.704 27.9702 280.787 29.188C280.871 30.4058 280.508 31.6123 279.767 32.5823C279.764 32.5784 279.76 32.5749 279.757 32.5717L273.746 30.2736L273.386 26.2599C273.384 26.22 273.378 26.1804 273.369 26.1414C273.298 25.8043 273.141 25.4913 272.913 25.2327C272.685 24.9741 272.395 24.7786 272.069 24.6653C269.631 23.8283 266.343 23.8407 263.887 24.6963C263.561 24.8122 263.271 25.0106 263.045 25.2723C262.818 25.534 262.664 25.8499 262.596 26.1892C262.589 26.2271 262.583 26.2655 262.58 26.3041L262.264 30.286L256.25 32.5796C256.25 32.5796 256.243 32.5867 256.24 32.5894C255.496 31.6196 255.131 30.4121 255.214 29.1928C255.296 27.9735 255.819 26.8259 256.686 25.9647Z" fill="white"/>
<defs>
<clipPath id="clip0_321_4846">
<rect width="18" height="20" fill="white" transform="translate(179 18)"/>
</clipPath>
</defs>
</svg>
