<svg width="322" height="60" viewBox="0 0 322 60" fill="none" xmlns="http://www.w3.org/2000/svg">
<path d="M21.735 20.9036C22.2645 20.5254 23 20.9039 23 21.5546V38.4454C23 39.0961 22.2645 39.4746 21.735 39.0964L9.91138 30.651C9.4647 30.3319 9.4647 29.6681 9.91138 29.349L21.735 20.9036ZM5.8 40C5.35817 40 5 39.6418 5 39.2V20.8C5 20.3582 5.35817 20 5.8 20H8.2C8.64183 20 9 20.3582 9 20.8V39.2C9 39.6418 8.64183 40 8.2 40H5.8Z" fill="white"/>
<g clip-path="url(#clip0_348_1265)">
<path d="M83.4814 34.1124C84.9478 39.585 90.573 42.8327 96.0456 41.3663C101.518 39.8999 104.766 34.2747 103.3 28.8021C101.833 23.3295 96.208 20.0818 90.7353 21.5482C88.9362 22.0303 87.3776 22.9618 86.1478 24.1895M86.1478 24.1895L86.4571 19.5708M86.1478 24.1895L86.1188 24.6233L91.1711 24.9615" stroke="white" stroke-width="2.41379" stroke-linecap="round" stroke-linejoin="round"/>
</g>
<circle cx="161" cy="30" r="30" fill="white" fill-opacity="0.4"/>
<path d="M152.256 22.1175V38.9061C152.256 39.3784 152.646 39.768 153.118 39.768H159.011C159.455 39.768 159.816 39.3784 159.816 38.9061V22.1175C159.816 21.6452 159.455 21.2556 159.011 21.2556H153.118C152.646 21.2556 152.256 21.6452 152.256 22.1175ZM163.18 22.1175V38.9061C163.18 39.3784 163.569 39.768 164.014 39.768H169.907C170.379 39.768 170.768 39.3784 170.768 38.9061V22.1175C170.768 21.6452 170.379 21.2556 169.907 21.2556H164.014C163.569 21.2556 163.18 21.6452 163.18 22.1175Z" fill="white"/>
<g clip-path="url(#clip1_348_1265)">
<path d="M238.519 34.1124C237.052 39.585 231.427 42.8327 225.954 41.3663C220.482 39.8999 217.234 34.2747 218.7 28.8021C220.167 23.3295 225.792 20.0818 231.265 21.5482C233.064 22.0303 234.622 22.9618 235.852 24.1895M235.852 24.1895L235.543 19.5708M235.852 24.1895L235.881 24.6233L230.829 24.9615" stroke="white" stroke-width="2.41379" stroke-linecap="round" stroke-linejoin="round"/>
</g>
<path d="M300.265 20.9036C299.735 20.5254 299 20.9039 299 21.5546V38.4454C299 39.0961 299.735 39.4746 300.265 39.0964L312.089 30.651C312.535 30.3319 312.535 29.6681 312.089 29.349L300.265 20.9036ZM316.2 40C316.642 40 317 39.6418 317 39.2V20.8C317 20.3582 316.642 20 316.2 20H313.8C313.358 20 313 20.3582 313 20.8V39.2C313 39.6418 313.358 40 313.8 40H316.2Z" fill="white"/>
<defs>
<clipPath id="clip0_348_1265">
<rect width="28" height="28" fill="white" transform="matrix(-1 0 0 1 107 16)"/>
</clipPath>
<clipPath id="clip1_348_1265">
<rect width="28" height="28" fill="white" transform="translate(215 16)"/>
</clipPath>
</defs>
</svg>
