<svg width="146" height="143" viewBox="0 0 146 143" fill="none" xmlns="http://www.w3.org/2000/svg">
<rect width="146" height="143" rx="71.5" fill="white" fill-opacity="0.05"/>
<path d="M96.8189 83.6336C93.7837 80.3935 90.1005 77.8077 86.0011 76.0391C81.9018 74.2705 77.4751 73.3574 73 73.3574C68.5249 73.3574 64.0983 74.2705 59.9989 76.0391C55.8995 77.8077 52.2163 80.3935 49.1811 83.6336C48.7125 84.1442 48.4504 84.8064 48.4445 85.4948V96.6614C48.4544 97.3953 48.7573 98.0959 49.2876 98.6114C49.8178 99.1269 50.5328 99.4159 51.2778 99.4159H94.7222C95.4737 99.4159 96.1943 99.1217 96.7257 98.5982C97.2571 98.0747 97.5556 97.3646 97.5556 96.6242V85.4575C97.5405 84.7821 97.279 84.1346 96.8189 83.6336Z" fill="white"/>
<path d="M73 69.6395C80.3024 69.6395 86.2222 63.8068 86.2222 56.6118C86.2222 49.4167 80.3024 43.584 73 43.584C65.6976 43.584 59.7778 49.4167 59.7778 56.6118C59.7778 63.8068 65.6976 69.6395 73 69.6395Z" fill="white"/>
</svg>
