<svg width="16" height="16" viewBox="0 0 16 16" fill="none" xmlns="http://www.w3.org/2000/svg">
<path d="M13.8753 5.83172C14.0163 5.94304 14.1211 6.09359 14.1767 6.26442C14.2328 6.43618 14.2367 6.62073 14.1878 6.7947C14.139 6.96866 14.0396 7.12422 13.9023 7.24165L11.4022 9.39889L12.1667 12.625C12.2084 12.7999 12.1974 12.9833 12.1352 13.1519C12.0729 13.3206 11.9621 13.4671 11.8168 13.573C11.6714 13.6788 11.498 13.7393 11.3184 13.7468C11.1387 13.7543 10.9609 13.7084 10.8072 13.615L7.99997 11.8884L5.19438 13.615C5.04078 13.7096 4.86257 13.7563 4.68236 13.7493C4.50216 13.7424 4.32808 13.682 4.18224 13.5759C4.03639 13.4698 3.92536 13.3228 3.86322 13.1535C3.80109 12.9842 3.79066 12.8003 3.83326 12.625L4.59493 9.39945L2.09491 7.2422C1.95867 7.12458 1.86018 6.96936 1.81177 6.796C1.76336 6.62265 1.76719 6.43886 1.82277 6.26767C1.87835 6.09648 1.98321 5.94549 2.12422 5.83364C2.26523 5.72178 2.43612 5.65402 2.61547 5.63885L5.89495 5.37385L7.1594 2.31382C7.22785 2.14705 7.34433 2.0044 7.49406 1.904C7.64378 1.80361 7.81998 1.75 8.00025 1.75C8.18051 1.75 8.35671 1.80361 8.50643 1.904C8.65616 2.0044 8.77265 2.14705 8.84109 2.31382L10.1067 5.37441L13.3845 5.63885C13.5635 5.65329 13.7343 5.7204 13.8753 5.83172Z" fill="#FFC025"/>
</svg>
