<svg width="13" height="16" viewBox="0 0 13 16" fill="none" xmlns="http://www.w3.org/2000/svg">
<path d="M5.00003 2.69803C4.01113 2.69803 3.04443 2.99127 2.22218 3.54068C1.39994 4.09009 0.759073 4.87098 0.380635 5.78461C0.00219694 6.69824 -0.0968197 7.70357 0.0961064 8.67348C0.289032 9.64338 0.765236 10.5343 1.4645 11.2336C2.16376 11.9328 3.05468 12.409 4.02458 12.602C4.99449 12.7949 5.99982 12.6959 6.91345 12.3174C7.82708 11.939 8.60797 11.2981 9.15738 10.4759C9.70679 9.65363 10 8.68693 10 7.69803C9.99863 6.37238 9.4714 5.10142 8.53402 4.16404C7.59664 3.22666 6.32568 2.69943 5.00003 2.69803ZM5.00003 11.9288C4.16326 11.9288 3.34529 11.6807 2.64954 11.2158C1.9538 10.7509 1.41153 10.0901 1.09131 9.31707C0.771095 8.544 0.687311 7.69333 0.850556 6.87265C1.0138 6.05196 1.41674 5.29811 2.00843 4.70642C2.60011 4.11474 3.35396 3.7118 4.17465 3.54855C4.99534 3.38531 5.846 3.46909 6.61908 3.78931C7.39215 4.10952 8.0529 4.65179 8.51779 5.34754C8.98267 6.04328 9.2308 6.86126 9.2308 7.69803C9.22953 8.81971 8.78338 9.89508 7.99023 10.6882C7.19708 11.4814 6.12171 11.9275 5.00003 11.9288ZM8.07695 7.69803C8.07695 7.80003 8.03643 7.89786 7.9643 7.96999C7.89217 8.04212 7.79434 8.08264 7.69234 8.08264H5.00003C4.89803 8.08264 4.8002 8.04212 4.72807 7.96999C4.65594 7.89786 4.61542 7.80003 4.61542 7.69803V5.00572C4.61542 4.90371 4.65594 4.80589 4.72807 4.73376C4.8002 4.66163 4.89803 4.62111 5.00003 4.62111C5.10204 4.62111 5.19987 4.66163 5.272 4.73376C5.34413 4.80589 5.38465 4.90371 5.38465 5.00572V7.31341H7.69234C7.79434 7.31341 7.89217 7.35393 7.9643 7.42606C8.03643 7.49819 8.07695 7.59602 8.07695 7.69803Z" fill="#6A7487"/>
</svg>
