<svg width="10" height="10" viewBox="0 0 10 10" fill="none" xmlns="http://www.w3.org/2000/svg">
<g clip-path="url(#clip0_195_1002)">
<path d="M9.26865 3.97879C9.23517 3.8729 9.17064 3.77952 9.08343 3.71077C8.99622 3.64202 8.89036 3.60107 8.77958 3.59324L6.42607 3.403L5.51904 1.20769C5.47672 1.10479 5.40478 1.01679 5.31234 0.954858C5.21991 0.892928 5.11116 0.859863 4.9999 0.859863C4.88864 0.859863 4.77988 0.892928 4.68745 0.954858C4.59502 1.01679 4.52307 1.10479 4.48076 1.20769L3.57372 3.40222L1.22021 3.59324C1.10934 3.60113 1.00341 3.64219 0.916187 3.71109C0.828967 3.77999 0.764492 3.87354 0.731146 3.97957C0.696385 4.08531 0.693712 4.19899 0.723466 4.30625C0.753219 4.41352 0.814065 4.50957 0.898333 4.5823L2.69521 6.12957L2.14833 8.44402C2.12267 8.55233 2.12972 8.66582 2.16859 8.77012C2.20746 8.87443 2.27641 8.96485 2.36669 9.02996C2.45586 9.09602 2.56291 9.13361 2.67381 9.13779C2.78471 9.14197 2.89428 9.11255 2.98818 9.05339L4.9999 7.81668L7.01474 9.05535C7.10863 9.11451 7.21821 9.14392 7.32911 9.13974C7.44001 9.13556 7.54705 9.09797 7.63623 9.03191C7.72651 8.96681 7.79546 8.87638 7.83433 8.77208C7.8732 8.66778 7.88025 8.55428 7.85459 8.44597L7.30771 6.13152L9.10146 4.5823C9.18588 4.50951 9.24682 4.41332 9.27658 4.3059C9.30634 4.19847 9.30358 4.08464 9.26865 3.97879Z" fill="#FEB500"/>
</g>
<defs>
<clipPath id="clip0_195_1002">
<rect width="10" height="10" fill="white"/>
</clipPath>
</defs>
</svg>
