<svg width="16" height="16" viewBox="0 0 16 16" fill="none" xmlns="http://www.w3.org/2000/svg">
<path d="M14.2075 4.58541L11.4144 1.79291C11.3215 1.70003 11.2113 1.62635 11.0899 1.57608C10.9686 1.52581 10.8385 1.49994 10.7072 1.49994C10.5759 1.49994 10.4458 1.52581 10.3245 1.57608C10.2031 1.62635 10.0929 1.70003 10 1.79291L2.29313 9.49979C2.19987 9.59231 2.12593 9.70245 2.0756 9.8238C2.02528 9.94515 1.99959 10.0753 2.00001 10.2067V12.9998C2.00001 13.265 2.10536 13.5194 2.2929 13.7069C2.48043 13.8944 2.73479 13.9998 3 13.9998H5.79313C5.9245 14.0002 6.05464 13.9745 6.17599 13.9242C6.29735 13.8739 6.40748 13.7999 6.5 13.7067L11.7294 8.47791L11.9469 9.34666L9.64688 11.646C9.55306 11.7398 9.50032 11.8669 9.50026 11.9996C9.5002 12.1322 9.55283 12.2594 9.64657 12.3532C9.7403 12.447 9.86747 12.4998 10.0001 12.4998C10.1327 12.4999 10.2599 12.4473 10.3538 12.3535L12.8538 9.85354C12.9149 9.7925 12.9592 9.71667 12.9823 9.63342C13.0054 9.55017 13.0066 9.46236 12.9856 9.37854L12.5544 7.65291L14.2075 5.99979C14.3004 5.90693 14.3741 5.79668 14.4243 5.67534C14.4746 5.554 14.5005 5.42394 14.5005 5.2926C14.5005 5.16126 14.4746 5.0312 14.4243 4.90986C14.3741 4.78852 14.3004 4.67827 14.2075 4.58541ZM3 11.2067L4.79313 12.9998H3V11.2067ZM6 12.7929L3.20688 9.99979L8.5 4.70666L11.2931 7.49979L6 12.7929ZM12 6.79291L9.20751 3.99979L10.7075 2.49979L13.5 5.29291L12 6.79291Z" fill="#283B52"/>
</svg>
