<svg width="26" height="26" viewBox="0 0 26 26" fill="none" xmlns="http://www.w3.org/2000/svg">
<path d="M18.625 10.6094H16.2344V8.78125C16.2344 7.92344 15.8936 7.10076 15.287 6.4942C14.6805 5.88764 13.8578 5.54688 13 5.54688C12.1422 5.54688 11.3195 5.88764 10.713 6.4942C10.1064 7.10076 9.76562 7.92344 9.76562 8.78125V10.6094H7.375C7.11393 10.6094 6.86355 10.7131 6.67894 10.8977C6.49434 11.0823 6.39062 11.3327 6.39062 11.5938V19.4688C6.39062 19.7298 6.49434 19.9802 6.67894 20.1648C6.86355 20.3494 7.11393 20.4531 7.375 20.4531H18.625C18.8861 20.4531 19.1365 20.3494 19.3211 20.1648C19.5057 19.9802 19.6094 19.7298 19.6094 19.4688V11.5938C19.6094 11.3327 19.5057 11.0823 19.3211 10.8977C19.1365 10.7131 18.8861 10.6094 18.625 10.6094ZM10.6094 8.78125C10.6094 8.14722 10.8612 7.53915 11.3096 7.09082C11.7579 6.64249 12.366 6.39062 13 6.39062C13.634 6.39062 14.2421 6.64249 14.6904 7.09082C15.1388 7.53915 15.3906 8.14722 15.3906 8.78125V10.6094H10.6094V8.78125ZM18.7656 19.4688C18.7656 19.506 18.7508 19.5418 18.7244 19.5682C18.6981 19.5946 18.6623 19.6094 18.625 19.6094H7.375C7.3377 19.6094 7.30194 19.5946 7.27556 19.5682C7.24919 19.5418 7.23438 19.506 7.23438 19.4688V11.5938C7.23438 11.5565 7.24919 11.5207 7.27556 11.4943C7.30194 11.4679 7.3377 11.4531 7.375 11.4531H18.625C18.6623 11.4531 18.6981 11.4679 18.7244 11.4943C18.7508 11.5207 18.7656 11.5565 18.7656 11.5938V19.4688ZM13 12.8594C12.5524 12.86 12.1205 13.0248 11.7863 13.3226C11.452 13.6204 11.2387 14.0305 11.1867 14.4751C11.1347 14.9197 11.2476 15.368 11.5041 15.7349C11.7605 16.1018 12.1427 16.3618 12.5781 16.4657V17.7812C12.5781 17.8931 12.6226 18.0004 12.7017 18.0796C12.7808 18.1587 12.8881 18.2031 13 18.2031C13.1119 18.2031 13.2192 18.1587 13.2983 18.0796C13.3774 18.0004 13.4219 17.8931 13.4219 17.7812V16.4657C13.8573 16.3618 14.2395 16.1018 14.4959 15.7349C14.7524 15.368 14.8653 14.9197 14.8133 14.4751C14.7613 14.0305 14.548 13.6204 14.2137 13.3226C13.8795 13.0248 13.4476 12.86 13 12.8594ZM13 15.6719C12.8053 15.6719 12.615 15.6141 12.4531 15.506C12.2912 15.3978 12.1651 15.2441 12.0906 15.0642C12.0161 14.8843 11.9966 14.6864 12.0345 14.4955C12.0725 14.3045 12.1663 14.1291 12.3039 13.9914C12.4416 13.8538 12.617 13.76 12.808 13.722C12.9989 13.6841 13.1968 13.7036 13.3767 13.7781C13.5566 13.8526 13.7103 13.9787 13.8185 14.1406C13.9266 14.3025 13.9844 14.4928 13.9844 14.6875C13.9844 14.9486 13.8807 15.199 13.6961 15.3836C13.5115 15.5682 13.2611 15.6719 13 15.6719Z" fill="#1A7AE8"/>
</svg>
