<svg width="14" height="14" viewBox="0 0 14 14" fill="none" xmlns="http://www.w3.org/2000/svg">
<g clip-path="url(#clip0_610_3583)">
<path d="M13.0574 6.09086L3.35995 0.158505C3.19646 0.0583894 3.0092 0.00373429 2.81752 0.000184652C2.62584 -0.00336499 2.43669 0.0443195 2.2696 0.138313C2.1041 0.230847 1.96623 0.365794 1.87018 0.529275C1.77412 0.692756 1.72335 0.878872 1.72307 1.06848V12.9318C1.72432 13.2163 1.83846 13.4886 2.0404 13.6889C2.24233 13.8892 2.51554 14.0011 2.79997 14C2.99849 13.9999 3.19316 13.9452 3.36265 13.8418L13.0574 7.90947C13.2132 7.81449 13.342 7.68102 13.4314 7.5219C13.5208 7.36277 13.5677 7.18334 13.5677 7.00084C13.5677 6.81834 13.5208 6.6389 13.4314 6.47978C13.342 6.32066 13.2132 6.18719 13.0574 6.09221V6.09086Z" fill="white"/>
</g>
<defs>
<clipPath id="clip0_610_3583">
<rect width="13.0545" height="13.4705" fill="white" transform="scale(1.03931)"/>
</clipPath>
</defs>
</svg>
