<svg width="24" height="24" viewBox="0 0 24 24" fill="none" xmlns="http://www.w3.org/2000/svg">
<path d="M8.53788 12.4105L8.53799 12.4107L13.1119 16.9845C13.1655 17.0411 13.2298 17.0866 13.301 17.1183L13.4027 16.89L13.301 17.1183C13.3738 17.1507 13.4523 17.1682 13.532 17.1696C13.6116 17.171 13.6907 17.1563 13.7646 17.1265C13.8385 17.0967 13.9056 17.0523 13.9619 16.9959C14.0183 16.9396 14.0627 16.8725 14.0925 16.7986C14.1223 16.7247 14.137 16.6456 14.1356 16.566C14.1342 16.4863 14.1167 16.4078 14.0843 16.335L13.856 16.4367L14.0843 16.335C14.0526 16.2638 14.0071 16.1995 13.9505 16.1459L9.79654 11.9913L13.9532 7.83408L13.9533 7.83419L13.9593 7.82775C14.0641 7.71529 14.1212 7.56654 14.1185 7.41285C14.1158 7.25916 14.0535 7.11253 13.9448 7.00383C13.8361 6.89514 13.6895 6.83288 13.5358 6.83017C13.3821 6.82746 13.2333 6.88451 13.1209 6.9893L13.1208 6.98918L13.1145 6.99542L8.53799 11.572L8.53788 11.5721C8.42678 11.6833 8.36438 11.8341 8.36438 11.9913C8.36438 12.1485 8.42678 12.2993 8.53788 12.4105Z" fill="white" stroke="white" stroke-width="0.5"/>
</svg>
