<svg width="240" height="56" viewBox="0 0 240 56" fill="none" xmlns="http://www.w3.org/2000/svg">
<rect x="0.5" y="0.5" width="55" height="55" rx="24.5" fill="white"/>
<rect x="0.5" y="0.5" width="55" height="55" rx="24.5" stroke="#F3F6F9"/>
<path d="M28.5 18.5C26.1139 18.5026 23.8262 19.4517 22.1389 21.1389C20.4517 22.8262 19.5026 25.1139 19.5 27.5V35.06C19.5 35.4419 19.6517 35.8082 19.9218 36.0782C20.1918 36.3483 20.5581 36.5 20.94 36.5H28.5C30.8869 36.5 33.1761 35.5518 34.864 33.864C36.5518 32.1761 37.5 29.8869 37.5 27.5C37.5 25.1131 36.5518 22.8239 34.864 21.136C33.1761 19.4482 30.8869 18.5 28.5 18.5ZM28.5 35.06H20.94V27.5C20.94 26.0048 21.3834 24.5431 22.2141 23.2999C23.0448 22.0567 24.2255 21.0877 25.6069 20.5155C26.9883 19.9433 28.5084 19.7936 29.9749 20.0853C31.4414 20.377 32.7884 21.097 33.8457 22.1543C34.903 23.2116 35.623 24.5586 35.9147 26.0251C36.2064 27.4916 36.0567 29.0117 35.4845 30.3931C34.9123 31.7745 33.9433 32.9552 32.7001 33.7859C31.4569 34.6166 29.9952 35.06 28.5 35.06ZM29.58 27.86C29.58 28.0736 29.5167 28.2824 29.398 28.46C29.2793 28.6376 29.1106 28.776 28.9133 28.8578C28.716 28.9395 28.4988 28.9609 28.2893 28.9192C28.0798 28.8776 27.8874 28.7747 27.7363 28.6237C27.5853 28.4726 27.4824 28.2802 27.4408 28.0707C27.3991 27.8612 27.4205 27.644 27.5022 27.4467C27.584 27.2494 27.7224 27.0807 27.9 26.962C28.0776 26.8433 28.2864 26.78 28.5 26.78C28.7864 26.78 29.0611 26.8938 29.2637 27.0963C29.4662 27.2989 29.58 27.5736 29.58 27.86ZM25.62 27.86C25.62 28.0736 25.5567 28.2824 25.438 28.46C25.3193 28.6376 25.1506 28.776 24.9533 28.8578C24.756 28.9395 24.5388 28.9609 24.3293 28.9192C24.1198 28.8776 23.9274 28.7747 23.7763 28.6237C23.6253 28.4726 23.5224 28.2802 23.4808 28.0707C23.4391 27.8612 23.4605 27.644 23.5422 27.4467C23.624 27.2494 23.7624 27.0807 23.94 26.962C24.1176 26.8433 24.3264 26.78 24.54 26.78C24.8264 26.78 25.1011 26.8938 25.3037 27.0963C25.5062 27.2989 25.62 27.5736 25.62 27.86ZM33.54 27.86C33.54 28.0736 33.4767 28.2824 33.358 28.46C33.2393 28.6376 33.0706 28.776 32.8733 28.8578C32.676 28.9395 32.4588 28.9609 32.2493 28.9192C32.0398 28.8776 31.8474 28.7747 31.6963 28.6237C31.5453 28.4726 31.4424 28.2802 31.4008 28.0707C31.3591 27.8612 31.3805 27.644 31.4622 27.4467C31.544 27.2494 31.6824 27.0807 31.86 26.962C32.0376 26.8433 32.2464 26.78 32.46 26.78C32.7464 26.78 33.0211 26.8938 33.2237 27.0963C33.4262 27.2989 33.54 27.5736 33.54 27.86Z" fill="black"/>
<rect x="92.5" y="0.5" width="55" height="55" rx="24.5" fill="#F4F7FA"/>
<rect x="92.5" y="0.5" width="55" height="55" rx="24.5" stroke="#F3F6F9"/>
<g clip-path="url(#clip0_321_4585)">
<path d="M120 31.5744C121.097 31.5732 122.149 31.1369 122.925 30.3611C123.7 29.5854 124.137 28.5335 124.138 27.4364V21.9192C124.138 20.8217 123.702 19.7692 122.926 18.9932C122.15 18.2172 121.097 17.7812 120 17.7812C118.903 17.7812 117.85 18.2172 117.074 18.9932C116.298 19.7692 115.862 20.8217 115.862 21.9192V27.4364C115.863 28.5335 116.3 29.5854 117.075 30.3611C117.851 31.1369 118.903 31.5732 120 31.5744ZM117.241 21.9192C117.241 21.1875 117.532 20.4859 118.049 19.9685C118.567 19.4512 119.268 19.1606 120 19.1606C120.732 19.1606 121.433 19.4512 121.951 19.9685C122.468 20.4859 122.759 21.1875 122.759 21.9192V27.4364C122.759 28.1681 122.468 28.8697 121.951 29.3871C121.433 29.9044 120.732 30.195 120 30.195C119.268 30.195 118.567 29.9044 118.049 29.3871C117.532 28.8697 117.241 28.1681 117.241 27.4364V21.9192ZM120.69 34.2985V37.0916C120.69 37.2745 120.617 37.4499 120.488 37.5793C120.358 37.7086 120.183 37.7812 120 37.7812C119.817 37.7812 119.642 37.7086 119.512 37.5793C119.383 37.4499 119.31 37.2745 119.31 37.0916V34.2985C117.61 34.1255 116.034 33.3281 114.888 32.0606C113.741 30.7931 113.106 29.1455 113.103 27.4364C113.103 27.2535 113.176 27.0781 113.305 26.9488C113.435 26.8194 113.61 26.7468 113.793 26.7468C113.976 26.7468 114.151 26.8194 114.281 26.9488C114.41 27.0781 114.483 27.2535 114.483 27.4364C114.483 28.8997 115.064 30.303 116.099 31.3377C117.133 32.3724 118.537 32.9537 120 32.9537C121.463 32.9537 122.867 32.3724 123.901 31.3377C124.936 30.303 125.517 28.8997 125.517 27.4364C125.517 27.2535 125.59 27.0781 125.719 26.9488C125.849 26.8194 126.024 26.7468 126.207 26.7468C126.39 26.7468 126.565 26.8194 126.695 26.9488C126.824 27.0781 126.897 27.2535 126.897 27.4364C126.894 29.1455 126.259 30.7931 125.112 32.0606C123.966 33.3281 122.39 34.1255 120.69 34.2985Z" fill="#0056D6"/>
</g>
<rect x="184.5" y="0.5" width="55" height="55" rx="24.5" fill="#F4F7FA"/>
<rect x="184.5" y="0.5" width="55" height="55" rx="24.5" stroke="#F3F6F9"/>
<path d="M224.899 22.3468C224.767 22.2766 224.62 22.2432 224.471 22.2502C224.323 22.2573 224.179 22.3045 224.055 22.3869L220.4 24.8186V22.2441C220.4 21.8079 220.227 21.3896 219.918 21.0813C219.61 20.7729 219.192 20.5996 218.756 20.5996H202.311C201.875 20.5996 201.457 20.7729 201.148 21.0813C200.84 21.3896 200.667 21.8079 200.667 22.2441V33.7552C200.667 34.1913 200.84 34.6096 201.148 34.918C201.457 35.2264 201.875 35.3996 202.311 35.3996H218.756C219.192 35.3996 219.61 35.2264 219.918 34.918C220.227 34.6096 220.4 34.1913 220.4 33.7552V31.1857L224.055 33.6226C224.19 33.7107 224.349 33.7568 224.511 33.7552C224.729 33.7552 224.938 33.6685 225.092 33.5143C225.247 33.3601 225.333 33.151 225.333 32.9329V23.0663C225.332 22.9183 225.291 22.7734 225.215 22.6468C225.138 22.5202 225.029 22.4165 224.899 22.3468ZM218.756 33.7552H202.311V22.2441H218.756V33.7552ZM223.689 31.3964L220.4 29.2042V26.7951L223.689 24.6079V31.3964Z" fill="#0056D6"/>
<defs>
<clipPath id="clip0_321_4585">
<rect width="18" height="20" fill="white" transform="translate(111 18)"/>
</clipPath>
</defs>
</svg>
