<svg width="24" height="24" viewBox="0 0 24 24" fill="none" xmlns="http://www.w3.org/2000/svg">
<path d="M6.84352 9.53912H8.87086C8.95155 9.93648 9.16714 10.2937 9.48109 10.5503C9.79504 10.8069 10.188 10.9471 10.5935 10.9471C10.999 10.9471 11.392 10.8069 11.706 10.5503C12.0199 10.2937 12.2355 9.93648 12.3162 9.53912H17.156C17.2493 9.53912 17.3387 9.50208 17.4046 9.43615C17.4705 9.37021 17.5076 9.28079 17.5076 9.18755C17.5076 9.09431 17.4705 9.00489 17.4046 8.93896C17.3387 8.87303 17.2493 8.83599 17.156 8.83599H12.3162C12.2355 8.43862 12.0199 8.08137 11.706 7.82476C11.392 7.56816 10.999 7.42798 10.5935 7.42798C10.188 7.42798 9.79504 7.56816 9.48109 7.82476C9.16714 8.08137 8.95155 8.43862 8.87086 8.83599H6.84352C6.75028 8.83599 6.66086 8.87303 6.59493 8.93896C6.529 9.00489 6.49196 9.09431 6.49196 9.18755C6.49196 9.28079 6.529 9.37021 6.59493 9.43615C6.66086 9.50208 6.75028 9.53912 6.84352 9.53912ZM10.5935 8.13287C10.8021 8.13287 11.006 8.19472 11.1795 8.31061C11.3529 8.4265 11.4881 8.59122 11.5679 8.78394C11.6478 8.97666 11.6686 9.18872 11.6279 9.39331C11.5872 9.5979 11.4868 9.78583 11.3393 9.93333C11.1918 10.0808 11.0039 10.1813 10.7993 10.222C10.5947 10.2627 10.3826 10.2418 10.1899 10.162C9.99719 10.0821 9.83247 9.94695 9.71658 9.77351C9.60069 9.60006 9.53883 9.39615 9.53883 9.18755C9.53883 8.90783 9.64995 8.63957 9.84774 8.44178C10.0455 8.24398 10.3138 8.13287 10.5935 8.13287ZM17.156 14.461H16.0662C15.9855 14.0636 15.7699 13.7064 15.456 13.4498C15.142 13.1932 14.749 13.053 14.3435 13.053C13.938 13.053 13.545 13.1932 13.2311 13.4498C12.9171 13.7064 12.7016 14.0636 12.6209 14.461H6.84352C6.75028 14.461 6.66086 14.498 6.59493 14.564C6.529 14.6299 6.49196 14.7193 6.49196 14.8126C6.49196 14.9058 6.529 14.9952 6.59493 15.0611C6.66086 15.1271 6.75028 15.1641 6.84352 15.1641H12.6209C12.7016 15.5615 12.9171 15.9187 13.2311 16.1753C13.545 16.4319 13.938 16.5721 14.3435 16.5721C14.749 16.5721 15.142 16.4319 15.456 16.1753C15.7699 15.9187 15.9855 15.5615 16.0662 15.1641H17.156C17.2493 15.1641 17.3387 15.1271 17.4046 15.0611C17.4705 14.9952 17.5076 14.9058 17.5076 14.8126C17.5076 14.7193 17.4705 14.6299 17.4046 14.564C17.3387 14.498 17.2493 14.461 17.156 14.461ZM14.3435 15.8672C14.1349 15.8672 13.931 15.8054 13.7576 15.6895C13.5841 15.5736 13.4489 15.4089 13.3691 15.2162C13.2893 15.0234 13.2684 14.8114 13.3091 14.6068C13.3498 14.4022 13.4502 14.2143 13.5977 14.0668C13.7452 13.9193 13.9332 13.8188 14.1378 13.7781C14.3424 13.7374 14.5544 13.7583 14.7471 13.8381C14.9399 13.918 15.1046 14.0532 15.2205 14.2266C15.3364 14.4 15.3982 14.604 15.3982 14.8126C15.3982 15.0923 15.2871 15.3605 15.0893 15.5583C14.8915 15.7561 14.6232 15.8672 14.3435 15.8672Z" fill="#2D3A55"/>
</svg>
