<svg width="18" height="20" viewBox="0 0 18 20" fill="none" xmlns="http://www.w3.org/2000/svg">
<g clip-path="url(#clip0_321_4454)">
<path d="M9.00001 13.5744C10.0971 13.5732 11.1489 13.1369 11.9247 12.3611C12.7005 11.5854 13.1368 10.5335 13.1379 9.43642V3.91918C13.1379 2.82173 12.702 1.76923 11.926 0.993222C11.15 0.217209 10.0975 -0.21875 9.00001 -0.21875C7.90256 -0.21875 6.85006 0.217209 6.07405 0.993222C5.29803 1.76923 4.86208 2.82173 4.86208 3.91918V9.43642C4.86322 10.5335 5.29954 11.5854 6.07531 12.3611C6.85107 13.1369 7.90291 13.5732 9.00001 13.5744ZM6.24139 3.91918C6.24139 3.18755 6.53203 2.48588 7.04937 1.96854C7.56671 1.4512 8.26837 1.16056 9.00001 1.16056C9.73164 1.16056 10.4333 1.4512 10.9506 1.96854C11.468 2.48588 11.7586 3.18755 11.7586 3.91918V9.43642C11.7586 10.1681 11.468 10.8697 10.9506 11.3871C10.4333 11.9044 9.73164 12.195 9.00001 12.195C8.26837 12.195 7.56671 11.9044 7.04937 11.3871C6.53203 10.8697 6.24139 10.1681 6.24139 9.43642V3.91918ZM9.68966 16.2985V19.0916C9.68966 19.2745 9.617 19.4499 9.48767 19.5793C9.35833 19.7086 9.18291 19.7812 9.00001 19.7812C8.8171 19.7812 8.64168 19.7086 8.51235 19.5793C8.38301 19.4499 8.31035 19.2745 8.31035 19.0916V16.2985C6.61004 16.1255 5.03429 15.3281 3.8878 14.0606C2.74132 12.7931 2.10555 11.1455 2.10345 9.43642C2.10345 9.25351 2.17611 9.0781 2.30545 8.94876C2.43479 8.81943 2.6102 8.74677 2.79311 8.74677C2.97602 8.74677 3.15143 8.81943 3.28077 8.94876C3.4101 9.0781 3.48276 9.25351 3.48276 9.43642C3.48276 10.8997 4.06404 12.303 5.09873 13.3377C6.13341 14.3724 7.53674 14.9537 9.00001 14.9537C10.4633 14.9537 11.8666 14.3724 12.9013 13.3377C13.936 12.303 14.5172 10.8997 14.5172 9.43642C14.5172 9.25351 14.5899 9.0781 14.7192 8.94876C14.8486 8.81943 15.024 8.74677 15.2069 8.74677C15.3898 8.74677 15.5652 8.81943 15.6946 8.94876C15.8239 9.0781 15.8966 9.25351 15.8966 9.43642C15.8945 11.1455 15.2587 12.7931 14.1122 14.0606C12.9657 15.3281 11.39 16.1255 9.68966 16.2985Z" fill="#0056D6"/>
</g>
<defs>
<clipPath id="clip0_321_4454">
<rect width="18" height="20" fill="white"/>
</clipPath>
</defs>
</svg>
