<svg width="7" height="10" viewBox="0 0 7 10" fill="none" xmlns="http://www.w3.org/2000/svg">
<path d="M5.24621 9.39595C5.28048 9.42789 5.30797 9.4664 5.32703 9.50919C5.3461 9.55198 5.35635 9.59817 5.35718 9.64501C5.358 9.69185 5.34939 9.73837 5.33184 9.78181C5.3143 9.82525 5.28818 9.8647 5.25506 9.89783C5.22193 9.93095 5.18248 9.95707 5.13904 9.97461C5.0956 9.99216 5.04908 10.0008 5.00224 9.99995C4.9554 9.99912 4.90921 9.98887 4.86642 9.9698C4.82363 9.95074 4.78512 9.92325 4.75318 9.88897L0.102019 5.23781C0.036693 5.1724 0 5.08374 0 4.9913C0 4.89886 0.036693 4.81019 0.102019 4.74479L4.75318 0.093624C4.81931 0.0320054 4.90677 -0.00154017 4.99715 5.43476e-05C5.08752 0.00164887 5.17374 0.038259 5.23766 0.102172C5.30157 0.166085 5.33818 0.252311 5.33977 0.342683C5.34137 0.433056 5.30782 0.52052 5.24621 0.586648L0.842135 4.9913L5.24621 9.39595Z" fill="black" fill-opacity="0.5"/>
</svg>
