<svg width="16" height="16" viewBox="0 0 16 16" fill="none" xmlns="http://www.w3.org/2000/svg">
<path d="M14.1767 6.26442C14.1211 6.09359 14.0163 5.94304 13.8753 5.83172C13.7343 5.7204 13.5635 5.65329 13.3845 5.63885L10.1067 5.37441L8.84109 2.31382C8.77265 2.14705 8.65616 2.0044 8.50643 1.904C8.35671 1.80361 8.18051 1.75 8.00025 1.75C7.81998 1.75 7.64378 1.80361 7.49406 1.904C7.34433 2.0044 7.22785 2.14705 7.1594 2.31382L5.89495 5.37385L2.61547 5.63885C2.43612 5.65402 2.26523 5.72178 2.12422 5.83364C1.98321 5.94549 1.87835 6.09648 1.82277 6.26767C1.76719 6.43886 1.76336 6.62265 1.81177 6.796C1.86018 6.96936 1.95867 7.12458 2.09491 7.2422L4.59493 9.39945L3.83326 12.625C3.79066 12.8003 3.80109 12.9842 3.86322 13.1535C3.92536 13.3228 4.03639 13.4698 4.18224 13.5759C4.32808 13.682 4.50216 13.7424 4.68236 13.7493C4.86257 13.7563 5.04078 13.7096 5.19438 13.615L7.99997 11.8884L10.8072 13.615C10.9609 13.7084 11.1387 13.7543 11.3184 13.7468C11.498 13.7393 11.6714 13.6788 11.8168 13.573C11.9621 13.4671 12.0729 13.3206 12.1352 13.1519C12.1974 12.9833 12.2084 12.7999 12.1667 12.625L11.4022 9.39889L13.9023 7.24165C14.0396 7.12422 14.139 6.96866 14.1878 6.7947C14.2367 6.62073 14.2328 6.43618 14.1767 6.26442ZM13.3245 6.56831L10.6189 8.90167C10.5572 8.95485 10.5113 9.02396 10.4862 9.10146C10.4611 9.17896 10.4578 9.26187 10.4767 9.34111L11.3033 12.83C11.3055 12.8348 11.3057 12.8403 11.3039 12.8453C11.3022 12.8502 11.2986 12.8543 11.2939 12.8567C11.2839 12.8645 11.2811 12.8628 11.2728 12.8567L8.23275 10.9872C8.16273 10.9442 8.08216 10.9214 7.99997 10.9214C7.91778 10.9214 7.8372 10.9442 7.76719 10.9872L4.72716 12.8578C4.71882 12.8628 4.7166 12.8645 4.70604 12.8578C4.70135 12.8554 4.69776 12.8513 4.696 12.8464C4.69425 12.8414 4.69446 12.836 4.6966 12.8312L5.52327 9.34223C5.54212 9.26298 5.53881 9.18007 5.51373 9.10257C5.48865 9.02507 5.44275 8.95596 5.38105 8.90278L2.67547 6.56942C2.6688 6.56386 2.66269 6.55886 2.66824 6.54164C2.6738 6.52442 2.67824 6.52664 2.68658 6.52553L6.23773 6.23886C6.31918 6.23187 6.39712 6.20256 6.46299 6.15414C6.52886 6.10572 6.58009 6.04007 6.61106 5.96441L7.97886 2.65271C7.9833 2.64327 7.98497 2.63882 7.9983 2.63882C8.01163 2.63882 8.0133 2.64327 8.01775 2.65271L9.38887 5.96441C9.42013 6.0401 9.47169 6.10567 9.53787 6.15391C9.60404 6.20214 9.68225 6.23115 9.76388 6.23775L13.315 6.52442C13.3234 6.52442 13.3284 6.52442 13.3334 6.54053C13.3384 6.55664 13.3334 6.56275 13.3245 6.56831Z" fill="#283B52"/>
</svg>
