<svg width="12" height="12" viewBox="0 0 12 12" fill="none" xmlns="http://www.w3.org/2000/svg">
<path d="M1.45233 4.16886L1.45251 4.16885L4.18905 3.94772L5.24419 1.39423C5.2442 1.3942 5.24422 1.39417 5.24423 1.39413L5.24424 1.39412L5.29045 1.41322C5.34819 1.27251 5.44648 1.15215 5.57281 1.06744C5.69914 0.982729 5.8478 0.9375 5.9999 0.9375C6.152 0.9375 6.30066 0.982729 6.42699 1.06744C6.55332 1.15215 6.65161 1.27251 6.70935 1.41322L1.45233 4.16886ZM1.45233 4.16886C1.2912 4.18249 1.13767 4.24336 1.01099 4.34386C0.8843 4.44435 0.790088 4.58 0.740153 4.7338C0.690218 4.8876 0.686781 5.05272 0.730273 5.20847C0.773765 5.36421 0.862251 5.50366 0.984645 5.60934L0.984657 5.60935M1.45233 4.16886L0.984657 5.60935M0.984657 5.60935L3.07106 7.40969L2.43546 10.1014C2.43544 10.1015 2.43543 10.1015 2.43541 10.1016C2.39718 10.259 2.40657 10.4243 2.46239 10.5763C2.51822 10.7285 2.61801 10.8606 2.74908 10.956C2.88015 11.0513 3.03659 11.1055 3.19853 11.1118C3.36048 11.118 3.52064 11.076 3.65868 10.9911L3.63248 10.9485L3.65868 10.9911L5.99967 9.55036L8.34206 10.9911L8.34229 10.9913M0.984657 5.60935L8.34229 10.9913M8.34229 10.9913C8.48037 11.0752 8.64018 11.1164 8.80162 11.1096M8.34229 10.9913L8.80162 11.1096M10.4076 5.00985L7.48392 4.77384L7.48795 4.724L7.48392 4.77384C7.40587 4.76753 7.33108 4.73979 7.2678 4.69366C7.20453 4.64754 7.15522 4.58483 7.12533 4.51246M10.4076 5.00985L3.90998 7.34337M10.4076 5.00985L8.17671 6.93378L8.1767 6.93379L8.20935 6.97165C8.15729 7.01653 8.11857 7.07484 8.0974 7.14023C8.07624 7.20562 8.07346 7.27557 8.08935 7.34244L8.0407 7.35396L10.4076 5.00985ZM7.12533 4.51246L7.17154 4.49337L7.12534 4.5125L7.12533 4.51246ZM7.12533 4.51246L5.9983 1.79032L4.87406 4.51231C4.87405 4.51234 4.87404 4.51236 4.87403 4.51239C4.84441 4.5847 4.79543 4.64745 4.73247 4.69374C4.66948 4.74004 4.59495 4.76807 4.51706 4.77475L4.51681 4.77477L1.5919 5.01089L3.82262 6.93472C3.82263 6.93472 3.82263 6.93473 3.82263 6.93473C3.88163 6.98558 3.92551 7.05167 3.9495 7.12577C3.97348 7.19988 3.97664 7.27916 3.95862 7.35494M3.95862 7.35494L3.90998 7.34337M3.95862 7.35494L3.95863 7.3549L3.90998 7.34337M3.95862 7.35494L3.27828 10.2263M3.90998 7.34337L3.21812 10.2633L3.27828 10.2263M3.27828 10.2263L3.26199 10.295L3.26095 10.2957M3.27828 10.2263L5.77706 8.68876L5.77707 8.68875C5.84402 8.64759 5.92107 8.62579 5.99967 8.62579C6.07826 8.62579 6.15531 8.64759 6.22226 8.68875L6.22226 8.68875L8.72106 10.2254L8.04071 7.354L3.26095 10.2957M3.26095 10.2957C3.26114 10.2915 3.26053 10.2873 3.25911 10.2833C3.25683 10.2768 3.25261 10.2713 3.24709 10.2674C3.24688 10.2673 3.24667 10.2672 3.24646 10.267M3.26095 10.2957L3.21772 10.265C3.22011 10.2643 3.22307 10.2637 3.22649 10.2634C3.23356 10.2629 3.23929 10.2643 3.24293 10.2655C3.2433 10.2657 3.24366 10.2658 3.24399 10.2659C3.24502 10.2663 3.24586 10.2667 3.24646 10.267M3.24646 10.267C3.24651 10.267 3.24655 10.2671 3.24659 10.2671C3.24681 10.2672 3.24699 10.2673 3.24714 10.2674C3.24767 10.2676 3.24771 10.2677 3.24715 10.2673L3.24726 10.2672L3.24317 10.2651C3.24431 10.2657 3.24541 10.2663 3.24646 10.267ZM1.52308 5.01589L1.52315 5.01637L1.52185 5.01651L1.52189 5.01654L1.53869 4.96502L1.53864 4.96503C1.53878 4.96516 1.53895 4.96532 1.53912 4.96549C1.53929 4.96567 1.53948 4.96585 1.53966 4.96605C1.53968 4.96607 1.5397 4.96609 1.53971 4.9661C1.54148 4.96801 1.54439 4.97163 1.54657 4.97697C1.55062 4.98694 1.54895 4.99458 1.54865 4.99575L1.54866 4.99575C1.54907 4.99447 1.54909 4.99466 1.54859 4.99573C1.54834 4.99625 1.54796 4.99698 1.54744 4.99786C1.54558 5.00099 1.54145 5.00663 1.53396 5.0112C1.52987 5.01369 1.52601 5.0151 1.52308 5.01589ZM1.52308 5.01589C1.52255 5.01604 1.52204 5.01616 1.52158 5.01627L1.52046 5.0153L1.51847 4.99073L1.51844 4.99031L1.51808 4.98589L1.51654 4.96681L1.51913 4.98623L1.5195 4.98904L1.51956 4.98947L1.52308 5.01589ZM8.80162 11.1096C8.96306 11.1029 9.11889 11.0486 9.24951 10.9534M8.80162 11.1096L9.24951 10.9534M9.24951 10.9534C9.38012 10.8583 9.47967 10.7267 9.53562 10.5751M9.24951 10.9534L9.53562 10.5751M9.53562 10.5751C9.59157 10.4235 9.60142 10.2588 9.56393 10.1016M9.53562 10.5751L9.56393 10.1016M9.56393 10.1016L8.92594 7.4092L11.0122 5.60903C11.0122 5.609 11.0122 5.60896 11.0123 5.60893C11.1356 5.50343 11.2249 5.3637 11.2688 5.20744L9.56393 10.1016ZM9.56393 10.1016L9.56394 10.1017L9.51529 10.1132C9.55049 10.2608 9.54124 10.4155 9.48871 10.5578C9.43618 10.7001 9.34271 10.8237 9.22007 10.913C9.09743 11.0023 8.95112 11.0534 8.79954 11.0597L9.56393 10.1016ZM3.2158 10.2731L3.21596 10.2724L3.2268 10.2905L3.22863 10.2936L3.22887 10.294L3.22923 10.2946L3.22958 10.2952L3.23826 10.3096L3.22947 10.2953L3.22891 10.2944L3.22868 10.294L3.22852 10.2938L3.22645 10.2904L3.2158 10.2731Z" fill="#BAC1CA" stroke="#BAC1CA" stroke-width="0.1"/>
</svg>
