<svg width="18" height="18" viewBox="0 0 18 18" fill="none" xmlns="http://www.w3.org/2000/svg">
<path d="M11.5622 8.53172L8.18719 6.28172C8.10246 6.22519 8.00396 6.19273 7.90222 6.1878C7.80048 6.18287 7.69931 6.20566 7.60951 6.25373C7.51971 6.30181 7.44465 6.37337 7.39234 6.46077C7.34003 6.54818 7.31243 6.64814 7.3125 6.75V11.25C7.31243 11.3519 7.34003 11.4518 7.39234 11.5392C7.44465 11.6266 7.51971 11.6982 7.60951 11.7463C7.69931 11.7943 7.80048 11.8171 7.90222 11.8122C8.00396 11.8073 8.10246 11.7748 8.18719 11.7183L11.5622 9.46828C11.6393 9.41694 11.7026 9.34732 11.7464 9.26562C11.7901 9.18393 11.813 9.09268 11.813 9C11.813 8.90732 11.7901 8.81608 11.7464 8.73438C11.7026 8.65269 11.6393 8.58307 11.5622 8.53172ZM8.4375 10.1988V7.80469L10.2361 9L8.4375 10.1988ZM16.4763 4.88813C16.4101 4.62892 16.2831 4.38918 16.106 4.18868C15.9289 3.98819 15.7066 3.83268 15.4575 3.735C13.0472 2.80407 9.21094 2.8125 9 2.8125C8.78906 2.8125 4.95281 2.80407 2.5425 3.735C2.29343 3.83268 2.07115 3.98819 1.894 4.18868C1.71686 4.38918 1.58992 4.62892 1.52367 4.88813C1.34156 5.58985 1.125 6.87235 1.125 9C1.125 11.1277 1.34156 12.4102 1.52367 13.1119C1.58983 13.3712 1.71672 13.6111 1.89387 13.8117C2.07102 14.0123 2.29335 14.168 2.5425 14.2657C4.85156 15.1566 8.46562 15.1875 8.95359 15.1875H9.04641C9.53438 15.1875 13.1505 15.1566 15.4575 14.2657C15.7067 14.168 15.929 14.0123 16.1061 13.8117C16.2833 13.6111 16.4102 13.3712 16.4763 13.1119C16.6584 12.4088 16.875 11.1277 16.875 9C16.875 6.87235 16.6584 5.58985 16.4763 4.88813ZM15.3872 12.8334C15.3658 12.9197 15.3242 12.9997 15.2659 13.0668C15.2076 13.1339 15.1342 13.1862 15.0518 13.2195C12.8264 14.0787 9.04148 14.0632 9.00492 14.0632H9C8.96203 14.0632 5.17992 14.0773 2.95312 13.2195C2.8707 13.1862 2.79733 13.1339 2.73903 13.0668C2.68073 12.9997 2.63916 12.9197 2.61773 12.8334C2.44687 12.1915 2.25 11.0088 2.25 9C2.25 6.99117 2.44687 5.80852 2.61281 5.17008C2.63384 5.0833 2.67523 5.00278 2.73355 4.93516C2.79187 4.86755 2.86545 4.81479 2.9482 4.78125C5.09414 3.95227 8.68992 3.9375 8.98453 3.9375H9.00352C9.04148 3.9375 12.8271 3.92485 15.0504 4.78125C15.1328 4.81452 15.2062 4.86685 15.2645 4.93394C15.3228 5.00104 15.3644 5.081 15.3858 5.16727C15.5531 5.80852 15.75 6.99117 15.75 9C15.75 11.0088 15.5531 12.1915 15.3872 12.8299V12.8334Z" fill="#BAC1CA"/>
</svg>
