<svg width="56" height="56" viewBox="0 0 56 56" fill="none" xmlns="http://www.w3.org/2000/svg">
<rect x="0.5" y="0.5" width="55" height="55" rx="23.5" fill="#424242"/>
<rect x="0.5" y="0.5" width="55" height="55" rx="23.5" stroke="#59595A"/>
<path d="M40.8987 22.3468C40.7675 22.2766 40.6198 22.2432 40.4712 22.2502C40.3226 22.2573 40.1787 22.3045 40.0549 22.3869L36.4001 24.8186V22.2441C36.4001 21.8079 36.2268 21.3896 35.9184 21.0813C35.61 20.7729 35.1918 20.5996 34.7556 20.5996H18.3112C17.8751 20.5996 17.4568 20.7729 17.1484 21.0813C16.84 21.3896 16.6667 21.8079 16.6667 22.2441V33.7552C16.6667 34.1913 16.84 34.6096 17.1484 34.918C17.4568 35.2264 17.8751 35.3996 18.3112 35.3996H34.7556C35.1918 35.3996 35.61 35.2264 35.9184 34.918C36.2268 34.6096 36.4001 34.1913 36.4001 33.7552V31.1857L40.0549 33.6226C40.1906 33.7107 40.3493 33.7568 40.5112 33.7552C40.7293 33.7552 40.9384 33.6685 41.0926 33.5143C41.2468 33.3601 41.3334 33.151 41.3334 32.9329V23.0663C41.3324 22.9183 41.2914 22.7734 41.2149 22.6468C41.1384 22.5202 41.0292 22.4165 40.8987 22.3468ZM34.7556 33.7552H18.3112V22.2441H34.7556V33.7552ZM39.689 31.3964L36.4001 29.2042V26.7951L39.689 24.6079V31.3964Z" fill="#EDEDED"/>
</svg>
