<svg width="12" height="12" viewBox="0 0 12 12" fill="none" xmlns="http://www.w3.org/2000/svg">
<path d="M10.4837 9.30682L8.92793 1.90994C8.90781 1.81321 8.86878 1.72141 8.81307 1.63981C8.75736 1.55821 8.68608 1.48842 8.60332 1.43446C8.52056 1.38049 8.42796 1.3434 8.33082 1.32533C8.23369 1.30726 8.13394 1.30856 8.03731 1.32916L5.84309 1.80072C5.649 1.84322 5.47955 1.96063 5.37158 2.12741C5.2636 2.2942 5.22585 2.49687 5.26653 2.69135L6.82231 10.0882C6.85698 10.257 6.9487 10.4087 7.08204 10.5178C7.21538 10.6269 7.38221 10.6867 7.5545 10.6873C7.60775 10.6872 7.66086 10.6816 7.71293 10.6704L9.90715 10.1988C10.1015 10.1563 10.2711 10.0386 10.3791 9.87153C10.4871 9.70446 10.5247 9.50149 10.4837 9.30682ZM6.00012 2.53807C6.00012 2.53525 6.00012 2.53385 6.00012 2.53385L8.19387 2.0651L8.34997 2.809L6.15622 3.28103L6.00012 2.53807ZM6.31043 4.01322L8.50512 3.54213L8.66168 4.28744L6.46887 4.759L6.31043 4.01322ZM6.62168 5.49307L8.81637 5.0215L9.43981 7.98588L7.24512 8.45744L6.62168 5.49307ZM9.75012 9.46572L7.55637 9.93447L7.40028 9.19057L9.59403 8.71853L9.75012 9.4615C9.75012 9.46432 9.75012 9.46572 9.75012 9.46572ZM4.50012 1.68728H2.25012C2.05121 1.68728 1.86044 1.7663 1.71979 1.90695C1.57914 2.04761 1.50012 2.23837 1.50012 2.43728V9.93728C1.50012 10.1362 1.57914 10.327 1.71979 10.4676C1.86044 10.6083 2.05121 10.6873 2.25012 10.6873H4.50012C4.69903 10.6873 4.8898 10.6083 5.03045 10.4676C5.1711 10.327 5.25012 10.1362 5.25012 9.93728V2.43728C5.25012 2.23837 5.1711 2.04761 5.03045 1.90695C4.8898 1.7663 4.69903 1.68728 4.50012 1.68728ZM2.25012 2.43728H4.50012V3.18728H2.25012V2.43728ZM2.25012 3.93728H4.50012V8.43728H2.25012V3.93728ZM4.50012 9.93728H2.25012V9.18728H4.50012V9.93728Z" fill="#BAC1CA"/>
</svg>
