<svg width="32" height="32" viewBox="0 0 32 32" fill="none" xmlns="http://www.w3.org/2000/svg">
<path d="M18.97 23.8076C18.97 23.9319 18.9206 24.0511 18.8327 24.1391C18.7448 24.227 18.6256 24.2763 18.5013 24.2763H13.5013C13.377 24.2763 13.2577 24.227 13.1698 24.1391C13.0819 24.0511 13.0325 23.9319 13.0325 23.8076C13.0325 23.6833 13.0819 23.564 13.1698 23.4761C13.2577 23.3882 13.377 23.3388 13.5013 23.3388H18.5013C18.6256 23.3388 18.7448 23.3882 18.8327 23.4761C18.9206 23.564 18.97 23.6833 18.97 23.8076ZM23.6333 11.0912C22.944 9.74289 21.9083 8.60231 20.6325 7.7865C20.5276 7.7259 20.4033 7.70826 20.2857 7.73729C20.1681 7.76631 20.0663 7.83975 20.0016 7.94219C19.937 8.04464 19.9145 8.16814 19.9389 8.2868C19.9633 8.40546 20.0327 8.51007 20.1325 8.57869C21.2718 9.30195 22.1949 10.3192 22.8044 11.5232C22.8328 11.5779 22.8716 11.6264 22.9187 11.666C22.9658 11.7056 23.0203 11.7355 23.079 11.7541C23.1377 11.7727 23.1995 11.7795 23.2608 11.7742C23.3221 11.7689 23.3818 11.7516 23.4364 11.7232C23.4911 11.6949 23.5396 11.656 23.5792 11.6089C23.6188 11.5618 23.6488 11.5073 23.6673 11.4486C23.6859 11.3899 23.6927 11.3282 23.6874 11.2668C23.6821 11.2055 23.6648 11.1458 23.6364 11.0912H23.6333ZM9.21065 11.5232C9.82015 10.3192 10.7432 9.30195 11.8825 8.57869C11.9824 8.51007 12.0518 8.40546 12.0762 8.2868C12.1006 8.16814 12.0781 8.04464 12.0134 7.94219C11.9488 7.83975 11.8469 7.76631 11.7293 7.73729C11.6117 7.70826 11.4874 7.7259 11.3825 7.7865C10.1068 8.60231 9.07108 9.74289 8.38174 11.0912C8.34759 11.146 8.32513 11.2073 8.31577 11.2712C8.30642 11.3351 8.31037 11.4002 8.32738 11.4626C8.34439 11.5249 8.3741 11.583 8.41463 11.6333C8.45516 11.6835 8.50565 11.7249 8.56293 11.7548C8.6202 11.7846 8.68302 11.8023 8.74746 11.8067C8.81189 11.8112 8.87655 11.8022 8.93737 11.7805C8.99818 11.7587 9.05385 11.7247 9.10088 11.6804C9.14791 11.6361 9.18528 11.5826 9.21065 11.5232ZM23.195 20.1303C23.292 20.296 23.3436 20.4843 23.3447 20.6762C23.3459 20.8682 23.2964 21.0571 23.2014 21.2239C23.1064 21.3907 22.9692 21.5296 22.8035 21.6266C22.6378 21.7235 22.4495 21.7752 22.2575 21.7763H9.75752C9.56596 21.7755 9.37798 21.7243 9.21241 21.6279C9.04684 21.5316 8.90948 21.3934 8.81407 21.2273C8.71867 21.0612 8.66857 20.8729 8.6688 20.6813C8.66902 20.4898 8.71955 20.3016 8.81534 20.1357C9.5333 18.892 9.91377 17.1373 9.91377 15.0576C9.91377 13.4414 10.5558 11.8915 11.6986 10.7487C12.8414 9.60586 14.3914 8.96385 16.0075 8.96385C17.6237 8.96385 19.1737 9.60586 20.3165 10.7487C21.4593 11.8915 22.1013 13.4414 22.1013 15.0576C22.1013 17.167 22.4716 18.8732 23.2013 20.1303H23.195ZM22.3849 20.599C21.5771 19.1982 21.1638 17.3342 21.1638 15.0576C21.1638 13.6901 20.6205 12.3786 19.6535 11.4116C18.6866 10.4446 17.375 9.90135 16.0075 9.90135C14.64 9.90135 13.3285 10.4446 12.3615 11.4116C11.3945 12.3786 10.8513 13.6901 10.8513 15.0576C10.8513 17.3357 10.438 19.1982 9.62393 20.6045C9.61022 20.6282 9.603 20.6552 9.603 20.6826C9.603 20.71 9.61022 20.737 9.62393 20.7607C9.6368 20.7847 9.65599 20.8046 9.6794 20.8184C9.70282 20.8321 9.72957 20.8392 9.75674 20.8388H22.2575C22.2847 20.8392 22.3114 20.8321 22.3349 20.8184C22.3583 20.8046 22.3775 20.7847 22.3903 20.7607C22.4042 20.737 22.4115 20.7101 22.4117 20.6827C22.4118 20.6553 22.4047 20.6283 22.3911 20.6045L22.3849 20.599Z" fill="white"/>
</svg>
