<svg width="20" height="20" viewBox="0 0 20 20" fill="none" xmlns="http://www.w3.org/2000/svg">
<path d="M13.4502 15.9071C13.4963 15.95 13.5332 16.0017 13.5588 16.0592C13.5844 16.1167 13.5982 16.1788 13.5993 16.2417C13.6004 16.3047 13.5889 16.3672 13.5653 16.4256C13.5417 16.4839 13.5066 16.5369 13.4621 16.5815C13.4176 16.626 13.3646 16.6611 13.3062 16.6846C13.2478 16.7082 13.1853 16.7198 13.1224 16.7187C13.0594 16.7176 12.9974 16.7038 12.9399 16.6782C12.8824 16.6526 12.8306 16.6156 12.7877 16.5696L6.5377 10.3196C6.44992 10.2317 6.40061 10.1125 6.40061 9.98831C6.40061 9.86409 6.44992 9.74495 6.5377 9.65706L12.7877 3.40706C12.8766 3.32426 12.9941 3.27918 13.1155 3.28132C13.237 3.28347 13.3528 3.33266 13.4387 3.41854C13.5246 3.50443 13.5738 3.62029 13.5759 3.74173C13.5781 3.86317 13.533 3.9807 13.4502 4.06956L7.53223 9.98831L13.4502 15.9071Z" fill="black"/>
</svg>
