<svg width="20" height="20" viewBox="0 0 20 20" fill="none" xmlns="http://www.w3.org/2000/svg">
<g opacity="0.5">
<path d="M13.7502 6.25C13.7502 6.00136 13.8489 5.7629 14.0247 5.58709C14.2006 5.41127 14.439 5.3125 14.6877 5.3125H16.8752C17.1238 5.3125 17.3623 5.41127 17.5381 5.58709C17.7139 5.7629 17.8127 6.00136 17.8127 6.25C17.8127 6.49864 17.7139 6.7371 17.5381 6.91291C17.3623 7.08873 17.1238 7.1875 16.8752 7.1875H14.6877C14.439 7.1875 14.2006 7.08873 14.0247 6.91291C13.8489 6.7371 13.7502 6.49864 13.7502 6.25ZM3.12516 7.1875H10.6252V8.125C10.6252 8.37364 10.7239 8.6121 10.8997 8.78791C11.0756 8.96373 11.314 9.0625 11.5627 9.0625C11.8113 9.0625 12.0498 8.96373 12.2256 8.78791C12.4014 8.6121 12.5002 8.37364 12.5002 8.125V4.375C12.5002 4.12636 12.4014 3.8879 12.2256 3.71209C12.0498 3.53627 11.8113 3.4375 11.5627 3.4375C11.314 3.4375 11.0756 3.53627 10.8997 3.71209C10.7239 3.8879 10.6252 4.12636 10.6252 4.375V5.3125H3.12516C2.87652 5.3125 2.63806 5.41127 2.46225 5.58709C2.28643 5.7629 2.18766 6.00136 2.18766 6.25C2.18766 6.49864 2.28643 6.7371 2.46225 6.91291C2.63806 7.08873 2.87652 7.1875 3.12516 7.1875ZM16.8752 12.8125H9.68766C9.43902 12.8125 9.20056 12.9113 9.02475 13.0871C8.84893 13.2629 8.75016 13.5014 8.75016 13.75C8.75016 13.9986 8.84893 14.2371 9.02475 14.4129C9.20056 14.5887 9.43902 14.6875 9.68766 14.6875H16.8752C17.1238 14.6875 17.3623 14.5887 17.5381 14.4129C17.7139 14.2371 17.8127 13.9986 17.8127 13.75C17.8127 13.5014 17.7139 13.2629 17.5381 13.0871C17.3623 12.9113 17.1238 12.8125 16.8752 12.8125ZM6.56266 10.9375C6.31402 10.9375 6.07556 11.0363 5.89975 11.2121C5.72393 11.3879 5.62516 11.6264 5.62516 11.875V12.8125H3.12516C2.87652 12.8125 2.63806 12.9113 2.46225 13.0871C2.28643 13.2629 2.18766 13.5014 2.18766 13.75C2.18766 13.9986 2.28643 14.2371 2.46225 14.4129C2.63806 14.5887 2.87652 14.6875 3.12516 14.6875H5.62516V15.625C5.62516 15.8736 5.72393 16.1121 5.89975 16.2879C6.07556 16.4637 6.31402 16.5625 6.56266 16.5625C6.8113 16.5625 7.04976 16.4637 7.22557 16.2879C7.40139 16.1121 7.50016 15.8736 7.50016 15.625V11.875C7.50016 11.6264 7.40139 11.3879 7.22557 11.2121C7.04976 11.0363 6.8113 10.9375 6.56266 10.9375Z" fill="#283B52"/>
</g>
</svg>
