<svg width="46" height="46" viewBox="0 0 46 46" fill="none" xmlns="http://www.w3.org/2000/svg">
<path d="M23.5 13.5C21.1139 13.5026 18.8262 14.4517 17.1389 16.1389C15.4517 17.8262 14.5026 20.1139 14.5 22.5V30.06C14.5 30.4419 14.6517 30.8082 14.9218 31.0782C15.1918 31.3483 15.5581 31.5 15.94 31.5H23.5C25.8869 31.5 28.1761 30.5518 29.864 28.864C31.5518 27.1761 32.5 24.8869 32.5 22.5C32.5 20.1131 31.5518 17.8239 29.864 16.136C28.1761 14.4482 25.8869 13.5 23.5 13.5ZM23.5 30.06H15.94V22.5C15.94 21.0048 16.3834 19.5431 17.2141 18.2999C18.0448 17.0567 19.2255 16.0877 20.6069 15.5155C21.9883 14.9433 23.5084 14.7936 24.9749 15.0853C26.4414 15.377 27.7884 16.097 28.8457 17.1543C29.903 18.2116 30.623 19.5586 30.9147 21.0251C31.2064 22.4916 31.0567 24.0117 30.4845 25.3931C29.9123 26.7745 28.9433 27.9552 27.7001 28.7859C26.4569 29.6166 24.9952 30.06 23.5 30.06ZM24.58 22.86C24.58 23.0736 24.5167 23.2824 24.398 23.46C24.2793 23.6376 24.1106 23.776 23.9133 23.8578C23.716 23.9395 23.4988 23.9609 23.2893 23.9192C23.0798 23.8776 22.8874 23.7747 22.7363 23.6237C22.5853 23.4726 22.4824 23.2802 22.4408 23.0707C22.3991 22.8612 22.4205 22.644 22.5022 22.4467C22.584 22.2494 22.7224 22.0807 22.9 21.962C23.0776 21.8433 23.2864 21.78 23.5 21.78C23.7864 21.78 24.0611 21.8938 24.2637 22.0963C24.4662 22.2989 24.58 22.5736 24.58 22.86ZM20.62 22.86C20.62 23.0736 20.5567 23.2824 20.438 23.46C20.3193 23.6376 20.1506 23.776 19.9533 23.8578C19.756 23.9395 19.5388 23.9609 19.3293 23.9192C19.1198 23.8776 18.9274 23.7747 18.7763 23.6237C18.6253 23.4726 18.5224 23.2802 18.4808 23.0707C18.4391 22.8612 18.4605 22.644 18.5422 22.4467C18.624 22.2494 18.7624 22.0807 18.94 21.962C19.1176 21.8433 19.3264 21.78 19.54 21.78C19.8264 21.78 20.1011 21.8938 20.3037 22.0963C20.5062 22.2989 20.62 22.5736 20.62 22.86ZM28.54 22.86C28.54 23.0736 28.4767 23.2824 28.358 23.46C28.2393 23.6376 28.0706 23.776 27.8733 23.8578C27.676 23.9395 27.4588 23.9609 27.2493 23.9192C27.0398 23.8776 26.8474 23.7747 26.6963 23.6237C26.5453 23.4726 26.4424 23.2802 26.4008 23.0707C26.3591 22.8612 26.3805 22.644 26.4622 22.4467C26.544 22.2494 26.6824 22.0807 26.86 21.962C27.0376 21.8433 27.2464 21.78 27.46 21.78C27.7464 21.78 28.0211 21.8938 28.2237 22.0963C28.4262 22.2989 28.54 22.5736 28.54 22.86Z" fill="white"/>
</svg>
