<svg width="24" height="24" viewBox="0 0 24 24" fill="none" xmlns="http://www.w3.org/2000/svg">
<path d="M20.5094 10.8751L7.00626 3.16781C6.77849 3.03959 6.51706 2.98382 6.25679 3.00792C5.99653 3.03203 5.74979 3.13486 5.54945 3.30274C5.3491 3.47061 5.20467 3.69554 5.13538 3.94757C5.06609 4.19959 5.07525 4.46675 5.16163 4.71344L7.62354 12.0003L5.16163 19.288C5.09311 19.4819 5.07211 19.6895 5.10038 19.8932C5.12865 20.0969 5.20537 20.2909 5.3241 20.4588C5.44283 20.6268 5.60011 20.7638 5.78274 20.8584C5.96537 20.953 6.16803 21.0024 6.3737 21.0024C6.59714 21.002 6.81669 20.9438 7.01108 20.8337L20.5078 13.1135C20.7069 13.002 20.8727 12.8395 20.9883 12.6428C21.1038 12.446 21.1649 12.2221 21.1653 11.9939C21.1657 11.7657 21.1054 11.5415 20.9906 11.3443C20.8757 11.1472 20.7105 10.9841 20.5118 10.8719L20.5094 10.8751ZM6.3737 19.7164C6.37404 19.7132 6.37404 19.71 6.3737 19.7068L8.76408 12.6433H13.4468C13.6173 12.6433 13.7809 12.5756 13.9015 12.455C14.022 12.3344 14.0898 12.1709 14.0898 12.0003C14.0898 11.8298 14.022 11.6662 13.9015 11.5457C13.7809 11.4251 13.6173 11.3573 13.4468 11.3573H8.76408L6.37852 4.2971C6.37773 4.29254 6.37609 4.28818 6.3737 4.28423L19.8769 11.9867L6.3737 19.7164Z" fill="white"/>
</svg>
