<svg width="32" height="32" viewBox="0 0 32 32" fill="none" xmlns="http://www.w3.org/2000/svg">
<path d="M23.9686 23.2961L19.8933 19.2207C21.0554 17.8843 21.6533 16.1488 21.5608 14.3801C21.4683 12.6114 20.6927 10.9477 19.3975 9.73977C18.1023 8.53179 16.3887 7.87388 14.6179 7.90472C12.8471 7.93557 11.1574 8.65275 9.90504 9.9051C8.65269 11.1574 7.9355 12.8471 7.90466 14.6179C7.87382 16.3888 8.53173 18.1024 9.73971 19.3976C10.9477 20.6928 12.6114 21.4684 14.38 21.5608C16.1487 21.6533 17.8842 21.0555 19.2207 19.8933L23.296 23.9687C23.3862 24.0528 23.5056 24.0985 23.6289 24.0964C23.7521 24.0942 23.8698 24.0442 23.957 23.957C24.0442 23.8698 24.0941 23.7522 24.0963 23.6289C24.0985 23.5056 24.0527 23.3863 23.9686 23.2961ZM8.8792 14.7488C8.8792 13.5879 9.22344 12.4531 9.86839 11.4879C10.5133 10.5226 11.43 9.7703 12.5026 9.32605C13.5751 8.8818 14.7552 8.76556 15.8938 8.99204C17.0324 9.21852 18.0782 9.77754 18.8991 10.5984C19.72 11.4193 20.279 12.4651 20.5055 13.6037C20.7319 14.7423 20.6157 15.9224 20.1715 16.995C19.7272 18.0675 18.9749 18.9842 18.0097 19.6291C17.0444 20.2741 15.9096 20.6183 14.7487 20.6183C13.1926 20.6164 11.7008 19.9974 10.6004 18.8971C9.50009 17.7967 8.88109 16.3049 8.8792 14.7488Z" fill="white"/>
</svg>
