<svg width="18" height="18" viewBox="0 0 18 18" fill="none" xmlns="http://www.w3.org/2000/svg">
<path d="M15.0228 6.58506L9.39795 12.2099C9.34572 12.2622 9.28368 12.3037 9.2154 12.332C9.14711 12.3603 9.07392 12.3748 9 12.3748C8.92608 12.3748 8.85289 12.3603 8.7846 12.332C8.71632 12.3037 8.65428 12.2622 8.60204 12.2099L2.97724 6.58506C2.8717 6.47952 2.8124 6.33637 2.8124 6.18711C2.8124 6.03785 2.8717 5.8947 2.97724 5.78915C3.08278 5.68361 3.22593 5.62432 3.3752 5.62432C3.52446 5.62432 3.66761 5.68361 3.77315 5.78915L9 11.0167L14.2269 5.78915C14.2791 5.73689 14.3412 5.69544 14.4094 5.66716C14.4777 5.63887 14.5509 5.62432 14.6248 5.62432C14.6987 5.62432 14.7719 5.63887 14.8402 5.66716C14.9085 5.69544 14.9705 5.73689 15.0228 5.78915C15.075 5.84141 15.1165 5.90346 15.1448 5.97174C15.173 6.04002 15.1876 6.1132 15.1876 6.18711C15.1876 6.26102 15.173 6.3342 15.1448 6.40248C15.1165 6.47076 15.075 6.5328 15.0228 6.58506Z" fill="black"/>
</svg>
