<svg width="324" height="47" viewBox="0 0 324 47" fill="none" xmlns="http://www.w3.org/2000/svg">
<g filter="url(#filter0_d_321_4605)">
<rect width="324" height="47" rx="16" fill="#F45F5F" shape-rendering="crispEdges"/>
<path d="M150.967 31.442L156.996 29.1439L157.013 29.1377C157.322 29.014 157.595 28.8153 157.807 28.5596C158.02 28.3038 158.165 27.9992 158.23 27.6731C158.238 27.6349 158.244 27.5962 158.247 27.5573L158.564 23.5719C160.589 22.871 163.393 22.8604 165.4 23.5436L165.748 27.5644C165.752 27.6042 165.757 27.643 165.765 27.6828C165.833 28.0056 165.979 28.3066 166.191 28.5592C166.403 28.8118 166.674 29.0081 166.98 29.1306L166.99 29.1412L173.033 31.4411C173.434 31.5997 173.876 31.6243 174.292 31.5112C174.709 31.3981 175.077 31.1534 175.343 30.8135C176.383 29.4582 176.894 27.7707 176.781 26.0661C176.668 24.3614 175.938 22.7563 174.728 21.5504C167.71 14.5324 156.29 14.5324 149.272 21.5504C148.062 22.7563 147.332 24.3614 147.219 26.0661C147.106 27.7707 147.617 29.4582 148.657 30.8135C148.923 31.1533 149.291 31.3981 149.707 31.5114C150.124 31.6247 150.565 31.6003 150.967 31.442ZM150.686 22.9647C153.689 19.9684 157.758 18.2856 162 18.2856C166.242 18.2856 170.311 19.9684 173.314 22.9647C174.18 23.8244 174.704 24.9702 174.788 26.188C174.871 27.4058 174.508 28.6123 173.767 29.5823C173.764 29.5784 173.76 29.5749 173.757 29.5717L167.746 27.2736L167.386 23.2599C167.384 23.22 167.378 23.1804 167.369 23.1414C167.298 22.8043 167.141 22.4913 166.913 22.2327C166.685 21.9741 166.395 21.7786 166.069 21.6653C163.631 20.8283 160.343 20.8407 157.887 21.6963C157.561 21.8122 157.271 22.0106 157.045 22.2723C156.818 22.534 156.664 22.8499 156.596 23.1892C156.589 23.2271 156.583 23.2655 156.58 23.3041L156.265 27.286L150.25 29.5796C150.25 29.5796 150.243 29.5867 150.24 29.5894C149.496 28.6196 149.131 27.4121 149.214 26.1928C149.296 24.9735 149.819 23.8259 150.686 22.9647Z" fill="white"/>
</g>
<defs>
<filter id="filter0_d_321_4605" x="-5" y="-4" width="336" height="59" filterUnits="userSpaceOnUse" color-interpolation-filters="sRGB">
<feFlood flood-opacity="0" result="BackgroundImageFix"/>
<feColorMatrix in="SourceAlpha" type="matrix" values="0 0 0 0 0 0 0 0 0 0 0 0 0 0 0 0 0 0 127 0" result="hardAlpha"/>
<feOffset dx="1" dy="2"/>
<feGaussianBlur stdDeviation="3"/>
<feComposite in2="hardAlpha" operator="out"/>
<feColorMatrix type="matrix" values="0 0 0 0 0.608333 0 0 0 0 0.608333 0 0 0 0 0.608333 0 0 0 0.4 0"/>
<feBlend mode="normal" in2="BackgroundImageFix" result="effect1_dropShadow_321_4605"/>
<feBlend mode="normal" in="SourceGraphic" in2="effect1_dropShadow_321_4605" result="shape"/>
</filter>
</defs>
</svg>
