<svg width="24" height="24" viewBox="0 0 24 24" fill="none" xmlns="http://www.w3.org/2000/svg">
<path d="M19.1375 9.13858L12.4716 15.8045C12.4097 15.8665 12.3362 15.9156 12.2553 15.9492C12.1743 15.9827 12.0876 16 12 16C11.9124 16 11.8257 15.9827 11.7447 15.9492C11.6638 15.9156 11.5903 15.8665 11.5284 15.8045L4.86246 9.13858C4.73738 9.0135 4.66711 8.84385 4.66711 8.66696C4.66711 8.49007 4.73738 8.32043 4.86246 8.19535C4.98754 8.07027 5.15719 8 5.33408 8C5.51097 8 5.68061 8.07027 5.80569 8.19535L12 14.3905L18.1943 8.19535C18.2562 8.13342 18.3298 8.08429 18.4107 8.05077C18.4916 8.01725 18.5783 8 18.6659 8C18.7535 8 18.8402 8.01725 18.9212 8.05077C19.0021 8.08429 19.0756 8.13342 19.1375 8.19535C19.1995 8.25728 19.2486 8.33081 19.2821 8.41173C19.3156 8.49265 19.3329 8.57938 19.3329 8.66696C19.3329 8.75455 19.3156 8.84128 19.2821 8.9222C19.2486 9.00312 19.1995 9.07664 19.1375 9.13858Z" fill="#6A7487"/>
</svg>
