<svg width="14" height="14" viewBox="0 0 14 14" fill="none" xmlns="http://www.w3.org/2000/svg">
<path d="M8.36315 5.63609C8.29868 5.57154 8.26247 5.48404 8.26247 5.39281C8.26247 5.30159 8.29868 5.21409 8.36315 5.14954L10.5297 2.98301H9.06544C8.97413 2.98301 8.88657 2.94674 8.82201 2.88218C8.75745 2.81762 8.72118 2.73006 8.72118 2.63875C8.72118 2.54745 8.75745 2.45989 8.82201 2.39533C8.88657 2.33077 8.97413 2.2945 9.06544 2.2945H11.3605C11.4518 2.2945 11.5394 2.33077 11.6039 2.39533C11.6685 2.45989 11.7047 2.54745 11.7047 2.63875V4.9338C11.7047 5.02511 11.6685 5.11267 11.6039 5.17723C11.5394 5.24179 11.4518 5.27806 11.3605 5.27806C11.2692 5.27806 11.1816 5.24179 11.1171 5.17723C11.0525 5.11267 11.0162 5.02511 11.0162 4.9338V3.46956L8.8497 5.63609C8.78515 5.70056 8.69765 5.73677 8.60643 5.73677C8.5152 5.73677 8.4277 5.70056 8.36315 5.63609ZM12.6165 9.91578C12.5178 10.6655 12.1495 11.3537 11.5805 11.8517C11.0115 12.3498 10.2806 12.6237 9.52445 12.6222C5.03189 12.6222 1.37702 8.96735 1.37702 4.47479C1.37545 3.71857 1.64929 2.98764 2.14737 2.4186C2.64545 1.84957 3.33368 1.48136 4.08346 1.38279C4.25598 1.36177 4.43066 1.39728 4.58129 1.48397C4.73192 1.57066 4.85037 1.70387 4.91886 1.8636L6.12949 4.5666C6.18285 4.68886 6.20491 4.82249 6.19369 4.95542C6.18247 5.08834 6.13832 5.21638 6.06523 5.32798C6.05786 5.33953 6.04981 5.35064 6.04114 5.36126L4.83222 6.79566C4.82487 6.81067 4.82105 6.82715 4.82105 6.84386C4.82105 6.86056 4.82487 6.87705 4.83222 6.89205C5.27172 7.79171 6.21498 8.72809 7.12727 9.16702C7.1425 9.17397 7.15914 9.17727 7.17587 9.17667C7.1926 9.17608 7.20896 9.17159 7.22366 9.16358L8.64028 7.95868C8.65039 7.94988 8.66113 7.94182 8.67241 7.93458C8.78357 7.86047 8.91147 7.81525 9.04452 7.80303C9.17756 7.7908 9.31156 7.81196 9.43437 7.86458L12.1448 9.07924C12.303 9.14927 12.4344 9.26854 12.5194 9.41927C12.6044 9.57 12.6384 9.74414 12.6165 9.91578ZM11.9342 9.82914C11.9362 9.80515 11.9305 9.78116 11.918 9.76057C11.9056 9.73998 11.887 9.72382 11.8648 9.71439L9.15379 8.49974C9.13898 8.49402 9.12311 8.49158 9.10727 8.49257C9.09142 8.49356 9.07598 8.49796 9.06199 8.50547L7.64595 9.71037C7.63562 9.71898 7.62472 9.72701 7.61382 9.73447C7.49831 9.8115 7.36481 9.85727 7.22635 9.86732C7.08788 9.87738 6.94917 9.85138 6.82375 9.79185C5.77032 9.28292 4.72033 8.24269 4.21141 7.19902C4.15155 7.07432 4.1249 6.93629 4.13405 6.79827C4.1432 6.66026 4.18783 6.52695 4.26362 6.41124C4.27101 6.39973 4.27926 6.3888 4.28829 6.37854L5.49606 4.93897C5.50297 4.92394 5.50654 4.9076 5.50654 4.89106C5.50654 4.87452 5.50297 4.85818 5.49606 4.84315L4.28829 2.14016C4.28032 2.11845 4.26597 2.09966 4.24713 2.08624C4.22829 2.07283 4.20584 2.06542 4.18272 2.06499H4.16952C3.58592 2.1425 3.05051 2.42984 2.66331 2.87331C2.27611 3.31679 2.06362 3.88607 2.06554 4.47479C2.06554 8.58752 5.41172 11.9337 9.52445 11.9337C10.1132 11.9355 10.6825 11.7229 11.126 11.3356C11.5694 10.9483 11.8567 10.4128 11.9342 9.82914Z" fill="#9299A2"/>
</svg>
