<svg width="16" height="16" viewBox="0 0 16 16" fill="none" xmlns="http://www.w3.org/2000/svg">
<path d="M7.99999 1.36133C6.68706 1.36133 5.40362 1.75066 4.31195 2.48008C3.22029 3.20951 2.36944 4.24627 1.86701 5.45926C1.36457 6.67225 1.23311 8.00699 1.48925 9.29469C1.74539 10.5824 2.37763 11.7652 3.30601 12.6936C4.23439 13.622 5.41722 14.2542 6.70493 14.5104C7.99263 14.7665 9.32737 14.635 10.5404 14.1326C11.7533 13.6302 12.7901 12.7793 13.5195 11.6877C14.249 10.596 14.6383 9.31256 14.6383 7.99962C14.6364 6.23961 13.9364 4.55221 12.6919 3.30769C11.4474 2.06317 9.76001 1.36319 7.99999 1.36133ZM7.99999 13.6166C6.88905 13.6166 5.80306 13.2872 4.87934 12.67C3.95563 12.0528 3.23568 11.1755 2.81054 10.1492C2.3854 9.12279 2.27417 7.99339 2.4909 6.9038C2.70764 5.8142 3.24261 4.81335 4.02816 4.02779C4.81372 3.24224 5.81457 2.70727 6.90417 2.49053C7.99376 2.2738 9.12316 2.38504 10.1495 2.81017C11.1759 3.23531 12.0532 3.95526 12.6704 4.87898C13.2876 5.80269 13.617 6.88868 13.617 7.99962C13.6153 9.48883 13.023 10.9166 11.97 11.9696C10.9169 13.0226 9.4892 13.615 7.99999 13.6166ZM9.02127 11.0635C9.02127 11.1989 8.96747 11.3288 8.87171 11.4245C8.77594 11.5203 8.64606 11.5741 8.51063 11.5741C8.23977 11.5741 7.98001 11.4665 7.78848 11.275C7.59695 11.0834 7.48936 10.8237 7.48936 10.5528V7.99962C7.35393 7.99962 7.22404 7.94583 7.12828 7.85006C7.03252 7.7543 6.97872 7.62442 6.97872 7.48899C6.97872 7.35356 7.03252 7.22367 7.12828 7.12791C7.22404 7.03215 7.35393 6.97835 7.48936 6.97835C7.76021 6.97835 8.01998 7.08595 8.21151 7.27747C8.40303 7.469 8.51063 7.72877 8.51063 7.99962V10.5528C8.64606 10.5528 8.77594 10.6066 8.87171 10.7024C8.96747 10.7981 9.02127 10.928 9.02127 11.0635ZM6.97872 5.19111C6.97872 5.03962 7.02364 4.89153 7.1078 4.76557C7.19197 4.63961 7.31159 4.54144 7.45156 4.48346C7.59152 4.42549 7.74552 4.41032 7.89411 4.43987C8.04269 4.46943 8.17917 4.54238 8.28629 4.6495C8.39341 4.75662 8.46636 4.8931 8.49591 5.04168C8.52547 5.19026 8.5103 5.34427 8.45233 5.48423C8.39435 5.62419 8.29618 5.74382 8.17022 5.82798C8.04426 5.91215 7.89617 5.95707 7.74467 5.95707C7.54153 5.95707 7.34671 5.87637 7.20306 5.73273C7.05942 5.58908 6.97872 5.39426 6.97872 5.19111Z" fill="#283B52"/>
</svg>
