<svg width="26" height="26" viewBox="0 0 26 26" fill="none" xmlns="http://www.w3.org/2000/svg">
<path d="M21.125 9.34375H17.875V6.90625C17.875 5.61332 17.3614 4.37334 16.4471 3.4591C15.5329 2.54486 14.2929 2.03125 13 2.03125C11.7071 2.03125 10.4671 2.54486 9.55285 3.4591C8.63861 4.37334 8.125 5.61332 8.125 6.90625V9.34375H4.875C4.44402 9.34375 4.0307 9.51496 3.72595 9.8197C3.4212 10.1244 3.25 10.5378 3.25 10.9688V22.3438C3.25 22.7747 3.4212 23.1881 3.72595 23.4928C4.0307 23.7975 4.44402 23.9688 4.875 23.9688H21.125C21.556 23.9688 21.9693 23.7975 22.274 23.4928C22.5788 23.1881 22.75 22.7747 22.75 22.3438V10.9688C22.75 10.5378 22.5788 10.1244 22.274 9.8197C21.9693 9.51496 21.556 9.34375 21.125 9.34375ZM9.75 6.90625C9.75 6.0443 10.0924 5.21765 10.7019 4.60815C11.3114 3.99866 12.138 3.65625 13 3.65625C13.862 3.65625 14.6886 3.99866 15.2981 4.60815C15.9076 5.21765 16.25 6.0443 16.25 6.90625V9.34375H9.75V6.90625ZM21.125 22.3438H4.875V10.9688H21.125V22.3438Z" fill="#6A7487"/>
</svg>
