<svg width="24" height="24" viewBox="0 0 24 24" fill="none" xmlns="http://www.w3.org/2000/svg">
<path d="M19.8993 20.2502L4.89933 3.75018C4.79636 3.65459 4.66134 3.60101 4.52084 3.59997C4.38035 3.59892 4.24455 3.65049 4.14016 3.74454C4.03578 3.83858 3.97036 3.96828 3.95679 4.10812C3.94322 4.24796 3.98248 4.38782 4.06683 4.50017L7.67058 8.46768V11.6252C7.67049 12.3691 7.86287 13.1005 8.22902 13.7481C8.59516 14.3957 9.12263 14.9376 9.76014 15.3211C10.3976 15.7046 11.1235 15.9166 11.8672 15.9366C12.6109 15.9566 13.3471 15.7839 14.0043 15.4352L15.2934 16.8527C14.3048 17.4833 13.1557 17.8165 11.9831 17.8127C10.3427 17.8107 8.77 17.1582 7.61005 15.9982C6.4501 14.8383 5.79757 13.2656 5.79558 11.6252C5.79558 11.476 5.73632 11.3329 5.63083 11.2274C5.52534 11.1219 5.38227 11.0627 5.23308 11.0627C5.0839 11.0627 4.94082 11.1219 4.83533 11.2274C4.72985 11.3329 4.67058 11.476 4.67058 11.6252C4.67299 13.4663 5.36904 15.239 6.62002 16.5898C7.87099 17.9407 9.58504 18.7707 11.4206 18.9142V22.1252C11.4206 22.2744 11.4798 22.4174 11.5853 22.5229C11.6908 22.6284 11.8339 22.6877 11.9831 22.6877C12.1323 22.6877 12.2753 22.6284 12.3808 22.5229C12.4863 22.4174 12.5456 22.2744 12.5456 22.1252V18.9161C13.8032 18.824 15.0148 18.4038 16.0593 17.6974L19.0668 21.0002C19.1673 21.1106 19.3075 21.1765 19.4566 21.1836C19.6057 21.1906 19.7514 21.1381 19.8618 21.0377C19.9722 20.9372 20.0382 20.797 20.0452 20.6479C20.0523 20.4988 19.9998 20.3531 19.8993 20.2427V20.2502ZM11.9831 14.8127C11.1377 14.8127 10.327 14.4769 9.72918 13.8791C9.13141 13.2813 8.79558 12.4706 8.79558 11.6252V9.70518L13.2131 14.5652C12.8237 14.7288 12.4055 14.8129 11.9831 14.8127ZM17.5443 14.3439C17.9593 13.4979 18.1736 12.5675 18.1706 11.6252C18.1706 11.476 18.2298 11.3329 18.3353 11.2274C18.4408 11.1219 18.5839 11.0627 18.7331 11.0627C18.8823 11.0627 19.0253 11.1219 19.1308 11.2274C19.2363 11.3329 19.2956 11.476 19.2956 11.6252C19.2985 12.7381 19.045 13.8368 18.555 14.8361C18.5245 14.9055 18.4804 14.968 18.4252 15.0199C18.37 15.0718 18.3049 15.112 18.2338 15.1382C18.1627 15.1643 18.0871 15.1758 18.0114 15.172C17.9357 15.1681 17.8616 15.1491 17.7935 15.1159C17.7254 15.0827 17.6647 15.0361 17.6151 14.9789C17.5654 14.9217 17.5278 14.8551 17.5045 14.783C17.4812 14.7109 17.4728 14.6348 17.4796 14.5594C17.4865 14.4839 17.5085 14.4107 17.5443 14.3439ZM8.02683 3.90674C8.42154 2.99691 9.11776 2.25094 9.99822 1.79448C10.8787 1.33802 11.8896 1.19897 12.8606 1.40077C13.8316 1.60257 14.7033 2.13287 15.329 2.90234C15.9547 3.67181 16.2961 4.63343 16.2956 5.62517V11.6252C16.2958 11.7758 16.288 11.9263 16.2721 12.0761C16.2577 12.215 16.1921 12.3436 16.0882 12.4368C15.9842 12.53 15.8493 12.5812 15.7096 12.5805C15.6903 12.5805 15.6706 12.5805 15.6506 12.5805C15.5023 12.5649 15.3663 12.4911 15.2724 12.3752C15.1785 12.2594 15.1345 12.111 15.15 11.9627C15.1626 11.8506 15.1694 11.738 15.1706 11.6252V5.62517C15.1714 4.89179 14.9193 4.18055 14.4568 3.61139C13.9943 3.04223 13.3497 2.64997 12.6317 2.50074C11.9136 2.35152 11.1661 2.45446 10.5151 2.79222C9.86412 3.12997 9.34953 3.68187 9.05808 4.35486C8.99557 4.48683 8.88419 4.58932 8.74749 4.64065C8.61079 4.69199 8.45948 4.68815 8.32555 4.62996C8.19162 4.57176 8.08558 4.46376 8.02983 4.3288C7.97409 4.19384 7.97301 4.04248 8.02683 3.90674Z" fill="#1863D3"/>
</svg>
