<svg width="16" height="16" viewBox="0 0 16 16" fill="none" xmlns="http://www.w3.org/2000/svg">
<path d="M5 7.75V3.75C5 2.95435 5.31607 2.19129 5.87868 1.62868C6.44129 1.06607 7.20435 0.75 8 0.75C8.79565 0.75 9.55871 1.06607 10.1213 1.62868C10.6839 2.19129 11 2.95435 11 3.75V7.75C11 8.54565 10.6839 9.30871 10.1213 9.87132C9.55871 10.4339 8.79565 10.75 8 10.75C7.20435 10.75 6.44129 10.4339 5.87868 9.87132C5.31607 9.30871 5 8.54565 5 7.75ZM13 7.75C13 7.61739 12.9473 7.49021 12.8536 7.39645C12.7598 7.30268 12.6326 7.25 12.5 7.25C12.3674 7.25 12.2402 7.30268 12.1464 7.39645C12.0527 7.49021 12 7.61739 12 7.75C12 8.81087 11.5786 9.82828 10.8284 10.5784C10.0783 11.3286 9.06087 11.75 8 11.75C6.93913 11.75 5.92172 11.3286 5.17157 10.5784C4.42143 9.82828 4 8.81087 4 7.75C4 7.61739 3.94732 7.49021 3.85355 7.39645C3.75979 7.30268 3.63261 7.25 3.5 7.25C3.36739 7.25 3.24021 7.30268 3.14645 7.39645C3.05268 7.49021 3 7.61739 3 7.75C3.00152 8.98909 3.46245 10.1836 4.29365 11.1025C5.12485 12.0215 6.26728 12.5996 7.5 12.725V14.75C7.5 14.8826 7.55268 15.0098 7.64645 15.1036C7.74021 15.1973 7.86739 15.25 8 15.25C8.13261 15.25 8.25979 15.1973 8.35355 15.1036C8.44732 15.0098 8.5 14.8826 8.5 14.75V12.725C9.73272 12.5996 10.8751 12.0215 11.7063 11.1025C12.5375 10.1836 12.9985 8.98909 13 7.75Z" fill="white"/>
</svg>
