<svg width="30" height="16" viewBox="0 0 30 16" fill="none" xmlns="http://www.w3.org/2000/svg">
<path d="M3.96647 15.442L9.99633 13.1439L10.0131 13.1377C10.3217 13.014 10.5947 12.8153 10.8072 12.5596C11.0197 12.3038 11.1651 11.9992 11.2302 11.6731C11.238 11.6349 11.2437 11.5962 11.247 11.5573L11.5643 7.57188C13.5893 6.87096 16.393 6.86035 18.4003 7.5436L18.7477 11.5644C18.7521 11.6042 18.7574 11.643 18.7653 11.6828C18.8327 12.0056 18.9789 12.3066 19.1908 12.5592C19.4027 12.8118 19.6737 13.0081 19.9798 13.1306L19.9904 13.1412L26.0326 15.4411C26.4339 15.5997 26.8757 15.6243 27.2921 15.5112C27.7085 15.3981 28.0772 15.1534 28.3431 14.8135C29.3832 13.4582 29.8944 11.7707 29.7811 10.0661C29.6679 8.36142 28.9381 6.75629 27.7279 5.55044C20.7099 -1.4676 9.29011 -1.46759 2.27207 5.55044C1.06189 6.75629 0.332044 8.36142 0.218835 10.0661C0.105627 11.7707 0.616801 13.4582 1.65689 14.8135C1.9226 15.1533 2.29106 15.3981 2.70729 15.5114C3.12352 15.6247 3.56522 15.6003 3.96647 15.442ZM3.68628 6.96465C6.68914 3.96835 10.7579 2.2856 15 2.2856C19.242 2.2856 23.3108 3.96835 26.3137 6.96465C27.1801 7.82445 27.704 8.97023 27.7874 10.188C27.8709 11.4058 27.5082 12.6123 26.7671 13.5823C26.764 13.5784 26.7604 13.5749 26.7565 13.5717L20.7461 11.2736L20.3864 7.25987C20.3836 7.21999 20.3777 7.18039 20.3687 7.14143C20.2976 6.80431 20.1406 6.49128 19.913 6.23267C19.6854 5.97406 19.3948 5.77863 19.0694 5.66534C16.6308 4.82831 13.3427 4.84068 10.8873 5.69628C10.5613 5.81217 10.2709 6.01065 10.0446 6.27231C9.81826 6.53397 9.66367 6.84988 9.59593 7.18916C9.58852 7.22714 9.58321 7.2655 9.58002 7.30406L9.26447 11.286L3.24965 13.5796C3.24965 13.5796 3.24257 13.5867 3.23992 13.5894C2.49624 12.6196 2.13135 11.4121 2.2135 10.1928C2.29566 8.9735 2.81924 7.82588 3.68628 6.96465Z" fill="white"/>
</svg>
