<svg width="25" height="24" viewBox="0 0 25 24" fill="none" xmlns="http://www.w3.org/2000/svg">
<path d="M13.1518 15.5816C14.3704 14.9332 15.3373 13.8959 15.8985 12.6347C16.4598 11.3735 16.5831 9.96088 16.249 8.62148C15.9149 7.28209 15.1425 6.0929 14.0546 5.24308C12.9667 4.39327 11.6259 3.93164 10.2455 3.93164C8.86506 3.93164 7.52427 4.39327 6.43641 5.24308C5.34855 6.0929 4.57612 7.28209 4.24199 8.62148C3.90786 9.96088 4.03122 11.3735 4.59246 12.6347C5.15369 13.8959 6.12056 14.9332 7.33925 15.5816C5.27675 16.1648 3.413 17.377 1.93832 19.1329C1.84757 19.2476 1.80508 19.3932 1.81985 19.5387C1.83462 19.6842 1.90549 19.8182 2.01743 19.9124C2.12938 20.0065 2.27359 20.0533 2.41949 20.0429C2.56538 20.0325 2.70149 19.9657 2.79894 19.8566C4.72457 17.5682 7.36832 16.3073 10.2455 16.3073C13.1227 16.3073 15.7674 17.5682 17.6902 19.8566C17.7369 19.9157 17.795 19.9648 17.861 20.0009C17.927 20.0371 17.9996 20.0597 18.0745 20.0673C18.1494 20.0749 18.2251 20.0674 18.2971 20.0452C18.369 20.023 18.4358 19.9866 18.4934 19.9382C18.551 19.8897 18.5983 19.8302 18.6325 19.7631C18.6667 19.696 18.6871 19.6228 18.6924 19.5477C18.6978 19.4726 18.688 19.3972 18.6637 19.3259C18.6394 19.2547 18.601 19.189 18.5508 19.1329C17.0761 17.377 15.2143 16.1648 13.1518 15.5816ZM5.183 10.1198C5.183 9.11849 5.47991 8.13971 6.03619 7.30719C6.59246 6.47466 7.38312 5.82579 8.30817 5.44262C9.23322 5.05945 10.2511 4.9592 11.2331 5.15454C12.2152 5.34987 13.1172 5.83203 13.8252 6.54003C14.5332 7.24804 15.0154 8.15009 15.2107 9.13212C15.4061 10.1141 15.3058 11.132 14.9226 12.0571C14.5395 12.9821 13.8906 13.7728 13.0581 14.3291C12.2256 14.8854 11.2468 15.1823 10.2455 15.1823C8.9033 15.1808 7.6165 14.6469 6.66742 13.6978C5.71834 12.7488 5.18449 11.462 5.183 10.1198ZM19.388 6.21882C19.9126 7.45246 20.183 8.77922 20.183 10.1198C20.183 11.4603 19.9126 12.7871 19.388 14.0207C19.3225 14.1465 19.2119 14.243 19.0783 14.2907C18.9447 14.3384 18.798 14.3339 18.6676 14.2781C18.5372 14.2223 18.4327 14.1192 18.3751 13.9896C18.3174 13.86 18.3109 13.7134 18.3568 13.5791C18.822 12.4852 19.0618 11.3086 19.0618 10.1198C19.0618 8.93096 18.822 7.75437 18.3568 6.66039C18.3109 6.52615 18.3174 6.37954 18.3751 6.24993C18.4327 6.12032 18.5372 6.01727 18.6676 5.96144C18.798 5.9056 18.9447 5.9011 19.0783 5.94883C19.2119 5.99656 19.3225 6.09299 19.388 6.21882ZM23.183 10.1198C23.1864 11.8721 22.8317 13.6067 22.1405 15.2169C22.0759 15.3448 21.965 15.4432 21.8303 15.4921C21.6956 15.541 21.5474 15.5366 21.4158 15.4799C21.2842 15.4232 21.1793 15.3185 21.1223 15.187C21.0653 15.0556 21.0607 14.9073 21.1093 14.7726C21.7371 13.3017 22.0608 11.719 22.0608 10.1198C22.0608 8.52051 21.7371 6.93779 21.1093 5.46695C21.0607 5.33218 21.0653 5.18394 21.1223 5.05249C21.1793 4.92105 21.2842 4.81629 21.4158 4.75959C21.5474 4.7029 21.6956 4.69854 21.8303 4.74741C21.965 4.79628 22.0759 4.8947 22.1405 5.02257C22.8317 6.63285 23.1864 8.36741 23.183 10.1198Z" fill="white"/>
</svg>
