<svg width="38" height="39" viewBox="0 0 38 39" fill="none" xmlns="http://www.w3.org/2000/svg">
<rect y="0.728516" width="38" height="38" rx="19" fill="#E6F0FF"/>
<path d="M27.4375 22.7285C27.4375 22.8777 27.3782 23.0208 27.2727 23.1263C27.1673 23.2318 27.0242 23.291 26.875 23.291H24.4375V25.166H26.125C26.2742 25.166 26.4173 25.2253 26.5227 25.3308C26.6282 25.4363 26.6875 25.5793 26.6875 25.7285C26.6875 25.8777 26.6282 26.0208 26.5227 26.1263C26.4173 26.2318 26.2742 26.291 26.125 26.291H24.4375V27.9785C24.4375 28.1277 24.3782 28.2708 24.2727 28.3763C24.1673 28.4818 24.0242 28.541 23.875 28.541C23.7258 28.541 23.5827 28.4818 23.4773 28.3763C23.3718 28.2708 23.3125 28.1277 23.3125 27.9785V22.7285C23.3125 22.5793 23.3718 22.4363 23.4773 22.3308C23.5827 22.2253 23.7258 22.166 23.875 22.166H26.875C27.0242 22.166 27.1673 22.2253 27.2727 22.3308C27.3782 22.4363 27.4375 22.5793 27.4375 22.7285ZM15.0625 24.6035C15.0625 25.25 14.8057 25.87 14.3486 26.3271C13.8915 26.7842 13.2715 27.041 12.625 27.041H11.6875V27.9785C11.6875 28.1277 11.6282 28.2708 11.5227 28.3763C11.4173 28.4818 11.2742 28.541 11.125 28.541C10.9758 28.541 10.8327 28.4818 10.7273 28.3763C10.6218 28.2708 10.5625 28.1277 10.5625 27.9785V22.7285C10.5625 22.5793 10.6218 22.4363 10.7273 22.3308C10.8327 22.2253 10.9758 22.166 11.125 22.166H12.625C13.2715 22.166 13.8915 22.4228 14.3486 22.8799C14.8057 23.3371 15.0625 23.9571 15.0625 24.6035ZM13.9375 24.6035C13.9375 24.2554 13.7992 23.9216 13.5531 23.6754C13.3069 23.4293 12.9731 23.291 12.625 23.291H11.6875V25.916H12.625C12.9731 25.916 13.3069 25.7777 13.5531 25.5316C13.7992 25.2855 13.9375 24.9516 13.9375 24.6035ZM21.8125 25.3535C21.8125 26.1989 21.4767 27.0096 20.8789 27.6074C20.2811 28.2052 19.4704 28.541 18.625 28.541H17.125C16.9758 28.541 16.8327 28.4818 16.7273 28.3763C16.6218 28.2708 16.5625 28.1277 16.5625 27.9785V22.7285C16.5625 22.5793 16.6218 22.4363 16.7273 22.3308C16.8327 22.2253 16.9758 22.166 17.125 22.166H18.625C19.4704 22.166 20.2811 22.5018 20.8789 23.0996C21.4767 23.6974 21.8125 24.5081 21.8125 25.3535ZM20.6875 25.3535C20.6875 24.8065 20.4702 24.2819 20.0834 23.8951C19.6966 23.5083 19.172 23.291 18.625 23.291H17.6875V27.416H18.625C19.172 27.416 19.6966 27.1987 20.0834 26.8119C20.4702 26.4251 20.6875 25.9005 20.6875 25.3535ZM10.5625 18.9785V12.2285C10.5625 11.8804 10.7008 11.5466 10.9469 11.3004C11.1931 11.0543 11.5269 10.916 11.875 10.916H20.875C20.949 10.916 21.0223 10.9305 21.0907 10.9588C21.159 10.9871 21.2211 11.0287 21.2734 11.081L26.5234 16.331C26.6286 16.4366 26.6876 16.5795 26.6875 16.7285V18.9785C26.6875 19.1277 26.6282 19.2708 26.5227 19.3763C26.4173 19.4818 26.2742 19.541 26.125 19.541C25.9758 19.541 25.8327 19.4818 25.7273 19.3763C25.6218 19.2708 25.5625 19.1277 25.5625 18.9785V17.291H20.875C20.7258 17.291 20.5827 17.2318 20.4773 17.1263C20.3718 17.0208 20.3125 16.8777 20.3125 16.7285V12.041H11.875C11.8253 12.041 11.7776 12.0608 11.7424 12.0959C11.7073 12.1311 11.6875 12.1788 11.6875 12.2285V18.9785C11.6875 19.1277 11.6282 19.2708 11.5227 19.3763C11.4173 19.4818 11.2742 19.541 11.125 19.541C10.9758 19.541 10.8327 19.4818 10.7273 19.3763C10.6218 19.2708 10.5625 19.1277 10.5625 18.9785ZM21.4375 16.166H24.7675L21.4375 12.836V16.166Z" fill="#283B52"/>
</svg>
