<svg width="24" height="24" viewBox="0 0 24 24" fill="none" xmlns="http://www.w3.org/2000/svg">
<g clip-path="url(#clip0_2135_20883)">
<path d="M22.8375 13.1908C22.7784 13.2351 22.7112 13.2673 22.6396 13.2857C22.568 13.304 22.4936 13.3081 22.4204 13.2976C22.3473 13.2872 22.277 13.2624 22.2134 13.2248C22.1498 13.1871 22.0943 13.1374 22.05 13.0783C21.5806 12.4472 20.9696 11.9352 20.2661 11.5835C19.5627 11.2318 18.7865 11.0502 18 11.0533C17.8508 11.0533 17.7077 10.994 17.6022 10.8885C17.4968 10.783 17.4375 10.6399 17.4375 10.4908C17.4375 10.3416 17.4968 10.1985 17.6022 10.093C17.7077 9.98752 17.8508 9.92826 18 9.92826C18.4559 9.92816 18.9026 9.80022 19.2894 9.55898C19.6762 9.31773 19.9876 8.97285 20.1882 8.5635C20.3888 8.15415 20.4707 7.69674 20.4244 7.24322C20.3781 6.78971 20.2055 6.35826 19.9263 5.99789C19.6471 5.63753 19.2724 5.36268 18.8449 5.20456C18.4173 5.04645 17.954 5.01141 17.5075 5.10343C17.061 5.19545 16.6492 5.41083 16.319 5.72511C15.9888 6.0394 15.7533 6.43999 15.6394 6.88139C15.6021 7.02585 15.5089 7.14957 15.3804 7.22535C15.2519 7.30113 15.0985 7.32274 14.9541 7.28545C14.8096 7.24815 14.6859 7.155 14.6101 7.02648C14.5343 6.89795 14.5127 6.7446 14.55 6.60014C14.6914 6.05023 14.9622 5.54208 15.3398 5.11805C15.7174 4.69402 16.1909 4.36638 16.7208 4.16246C17.2507 3.95853 17.8217 3.88423 18.3861 3.94573C18.9506 4.00723 19.4922 4.20275 19.9657 4.51601C20.4393 4.82927 20.8311 5.25118 21.1086 5.74658C21.386 6.24198 21.541 6.79652 21.5606 7.36398C21.5803 7.93143 21.464 8.49537 21.2215 9.00877C20.979 9.52218 20.6173 9.97018 20.1666 10.3154C21.2758 10.7294 22.2422 11.4542 22.95 12.4033C22.9943 12.4624 23.0266 12.5296 23.0449 12.6012C23.0632 12.6727 23.0673 12.7472 23.0568 12.8203C23.0464 12.8934 23.0216 12.9638 22.984 13.0273C22.9464 13.0909 22.8966 13.1464 22.8375 13.1908ZM17.7366 19.2095C17.7736 19.2735 17.7976 19.3441 17.8073 19.4173C17.817 19.4906 17.8122 19.565 17.7932 19.6364C17.7741 19.7078 17.7412 19.7747 17.6962 19.8334C17.6513 19.8921 17.5952 19.9413 17.5312 19.9783C17.446 20.0282 17.3488 20.0545 17.25 20.0542C17.1512 20.0543 17.0541 20.0283 16.9685 19.9789C16.883 19.9296 16.8119 19.8585 16.7625 19.7729C16.2736 18.9445 15.577 18.258 14.7417 17.781C13.9063 17.304 12.961 17.0532 11.9991 17.0532C11.0371 17.0532 10.0918 17.304 9.25645 17.781C8.42109 18.258 7.72456 18.9445 7.23562 19.7729C7.20046 19.8402 7.15206 19.8996 7.09334 19.9476C7.03462 19.9956 6.96678 20.0313 6.89392 20.0524C6.82106 20.0736 6.74468 20.0798 6.66937 20.0706C6.59406 20.0615 6.52138 20.0372 6.4557 19.9992C6.39002 19.9612 6.3327 19.9104 6.28718 19.8497C6.24167 19.789 6.2089 19.7197 6.19085 19.646C6.1728 19.5724 6.16985 19.4958 6.18216 19.4209C6.19447 19.3461 6.2218 19.2745 6.2625 19.2104C7.02866 17.8941 8.22826 16.8847 9.65625 16.3548C8.8762 15.8484 8.28079 15.1033 7.95883 14.2307C7.63687 13.3582 7.60561 12.405 7.86972 11.5132C8.13383 10.6215 8.67915 9.83898 9.42433 9.2825C10.1695 8.72602 11.0746 8.42535 12.0047 8.42535C12.9347 8.42535 13.8398 8.72602 14.585 9.2825C15.3302 9.83898 15.8755 10.6215 16.1396 11.5132C16.4038 12.405 16.3725 13.3582 16.0505 14.2307C15.7286 15.1033 15.1332 15.8484 14.3531 16.3548C15.7771 16.8865 16.9728 17.8953 17.7366 19.2095ZM12 15.9283C12.6304 15.9283 13.2467 15.7413 13.7709 15.3911C14.2951 15.0408 14.7036 14.543 14.9449 13.9606C15.1861 13.3781 15.2492 12.7372 15.1262 12.1189C15.0033 11.5006 14.6997 10.9326 14.2539 10.4869C13.8081 10.0411 13.2402 9.7375 12.6218 9.61451C12.0035 9.49152 11.3626 9.55464 10.7802 9.79589C10.1978 10.0371 9.69993 10.4457 9.34969 10.9699C8.99944 11.4941 8.8125 12.1103 8.8125 12.7408C8.8125 13.5861 9.14832 14.3969 9.74609 14.9947C10.3439 15.5924 11.1546 15.9283 12 15.9283ZM6.5625 10.4908C6.5625 10.3416 6.50323 10.1985 6.39775 10.093C6.29226 9.98752 6.14918 9.92826 6 9.92826C5.54418 9.92812 5.09753 9.80016 4.71078 9.55893C4.32402 9.3177 4.01266 8.97285 3.81204 8.56355C3.61142 8.15425 3.5296 7.6969 3.57585 7.24343C3.6221 6.78997 3.79458 6.35855 4.07369 5.99818C4.35281 5.63781 4.72738 5.36293 5.15488 5.20474C5.58237 5.04656 6.04565 5.01141 6.49211 5.1033C6.93858 5.19518 7.35033 5.41041 7.68062 5.72455C8.01091 6.03869 8.24649 6.43915 8.36062 6.88045C8.37909 6.95198 8.41146 7.01917 8.4559 7.07819C8.50033 7.1372 8.55596 7.18689 8.61959 7.22441C8.68323 7.26193 8.75364 7.28655 8.82679 7.29686C8.89994 7.30717 8.9744 7.30298 9.04593 7.28451C9.11746 7.26604 9.18466 7.23367 9.24367 7.18923C9.30269 7.1448 9.35238 7.08917 9.3899 7.02554C9.42742 6.9619 9.45204 6.8915 9.46235 6.81834C9.47266 6.74519 9.46846 6.67073 9.45 6.5992C9.30861 6.04929 9.03782 5.54114 8.66021 5.11711C8.2826 4.69308 7.80911 4.36545 7.2792 4.16152C6.74929 3.9576 6.17831 3.88329 5.61385 3.94479C5.0494 4.00629 4.50782 4.20182 4.03426 4.51507C3.5607 4.82833 3.16887 5.25024 2.89144 5.74564C2.61401 6.24105 2.45901 6.79558 2.43936 7.36304C2.41971 7.93049 2.53598 8.49443 2.77848 9.00783C3.02098 9.52124 3.38268 9.96924 3.83344 10.3145C2.72411 10.7287 1.75771 11.4539 1.05 12.4033C1.00568 12.4624 0.973431 12.5296 0.955099 12.6012C0.936766 12.6727 0.932707 12.7472 0.943153 12.8203C0.9536 12.8934 0.978348 12.9638 1.01598 13.0273C1.05362 13.0909 1.10341 13.1464 1.1625 13.1908C1.22159 13.2351 1.28884 13.2673 1.3604 13.2857C1.43196 13.304 1.50642 13.3081 1.57955 13.2976C1.65268 13.2872 1.72303 13.2624 1.78659 13.2248C1.85015 13.1871 1.90568 13.1374 1.95 13.0783C2.41941 12.4472 3.03044 11.9352 3.73388 11.5835C4.43733 11.2318 5.21353 11.0502 6 11.0533C6.14918 11.0533 6.29226 10.994 6.39775 10.8885C6.50323 10.783 6.5625 10.6399 6.5625 10.4908Z" fill="#F4F7FA"/>
</g>
<defs>
<clipPath id="clip0_2135_20883">
<rect width="24" height="24" fill="white"/>
</clipPath>
</defs>
</svg>
