<svg width="24" height="24" viewBox="0 0 24 24" fill="none" xmlns="http://www.w3.org/2000/svg">
<path d="M22.7653 6.98632C22.6755 6.9383 22.5744 6.91555 22.4727 6.9205C22.371 6.92546 22.2725 6.95792 22.1878 7.01444L18.5625 9.43132V6.73226C18.5625 6.38416 18.4242 6.05032 18.1781 5.80418C17.9319 5.55804 17.5981 5.41976 17.25 5.41976H9.84937C9.70019 5.41976 9.55712 5.47902 9.45163 5.58451C9.34614 5.69 9.28687 5.83307 9.28687 5.98226C9.28687 6.13144 9.34614 6.27451 9.45163 6.38C9.55712 6.48549 9.70019 6.54476 9.84937 6.54476H17.25C17.2997 6.54476 17.3474 6.56451 17.3826 6.59967C17.4177 6.63484 17.4375 6.68253 17.4375 6.73226V14.9476C17.4375 15.0968 17.4968 15.2398 17.6023 15.3453C17.7077 15.4508 17.8508 15.5101 18 15.5101C18.1492 15.5101 18.2923 15.4508 18.3977 15.3453C18.5032 15.2398 18.5625 15.0968 18.5625 14.9476V14.5332L22.1878 16.951C22.2726 17.0076 22.3711 17.04 22.4729 17.0449C22.5747 17.0498 22.6759 17.027 22.7657 16.9789C22.8555 16.9308 22.9306 16.8591 22.9828 16.7717C23.0351 16.6842 23.0627 16.5842 23.0625 16.4823V7.48226C23.0625 7.38043 23.0348 7.28052 22.9825 7.19318C22.9302 7.10584 22.8551 7.03434 22.7653 6.98632ZM21.9375 15.4313L18.5625 13.1813V10.7832L21.9375 8.53319V15.4313ZM4.16625 3.35726C4.06327 3.26167 3.92826 3.20809 3.78776 3.20705C3.64727 3.206 3.51147 3.25757 3.40708 3.35162C3.3027 3.44566 3.23728 3.57536 3.22371 3.7152C3.21014 3.85504 3.24939 3.9949 3.33375 4.10726L4.52344 5.41976H2.25C1.9019 5.41976 1.56806 5.55804 1.32192 5.80418C1.07578 6.05032 0.9375 6.38416 0.9375 6.73226V17.2323C0.9375 17.5804 1.07578 17.9142 1.32192 18.1603C1.56806 18.4065 1.9019 18.5448 2.25 18.5448H16.4559L18.3309 20.6073C18.4314 20.7177 18.5716 20.7836 18.7207 20.7907C18.8698 20.7977 19.0155 20.7452 19.1259 20.6448C19.2363 20.5443 19.3023 20.4041 19.3093 20.255C19.3164 20.1059 19.2639 19.9602 19.1634 19.8498L4.16625 3.35726ZM2.25 17.4198C2.20027 17.4198 2.15258 17.4 2.11742 17.3648C2.08225 17.3297 2.0625 17.282 2.0625 17.2323V6.73226C2.0625 6.68253 2.08225 6.63484 2.11742 6.59967C2.15258 6.56451 2.20027 6.54476 2.25 6.54476H5.54625L15.4331 17.4198H2.25Z" fill="white"/>
</svg>
